/* XPM */
static char *_432a39750a54083ca56438537933a4fcclrErZxpychO1Qw[] = {
/* columns rows colors chars-per-pixel */
"32 32 220 2 ",
"   c #E7060C",
".  c #E8060C",
"X  c #E7080C",
"o  c #E90A0D",
"O  c #EC130D",
"+  c #EF1E0E",
"@  c #F01E0E",
"#  c #EE230E",
"$  c #EF280E",
"%  c #F0260E",
"&  c #F0290F",
"*  c #F2330F",
"=  c #F12810",
"-  c #F23210",
";  c #F53C11",
":  c #D3103E",
">  c #F54311",
",  c #F74A11",
"<  c #F95312",
"1  c #FA5B12",
"2  c #F5410F",
"3  c #FC6B14",
"4  c #FC6614",
"5  c #FC7414",
"6  c #FC7B13",
"7  c #FB711E",
"8  c #FA7728",
"9  c #BF126E",
"0  c #BD1373",
"q  c #B9147B",
"w  c #D31042",
"e  c #D11149",
"r  c #CB0F54",
"t  c #CB1154",
"y  c #C6115D",
"u  c #C9105A",
"i  c #D11049",
"p  c #C31265",
"a  c #C21269",
"s  c #24BC1C",
"d  c #34BF1B",
"f  c #16B828",
"g  c #17B734",
"h  c #1BB73C",
"j  c #29BE26",
"k  c #39C016",
"l  c #37C138",
"z  c #59C511",
"x  c #46C317",
"c  c #74CA0E",
"v  c #7BCA0D",
"b  c #64C810",
"n  c #4DC636",
"m  c #1CB646",
"M  c #27B556",
"N  c #2BBC4D",
"B  c #2CB367",
"V  c #3BBB6A",
"C  c #33B377",
"Z  c #2EB370",
"A  c #39C149",
"S  c #52C753",
"D  c #47C266",
"F  c #53C672",
"G  c #71D16C",
"H  c #74D15D",
"J  c #FB8B0F",
"K  c #F8980E",
"L  c #FA8713",
"P  c #F99212",
"I  c #F6A30D",
"U  c #F5A90B",
"Y  c #F99538",
"T  c #F88C30",
"R  c #F8A139",
"E  c #F5B632",
"W  c #91CF0D",
"Q  c #A5D208",
"!  c #B3D406",
"~  c #B1D512",
"^  c #8AD132",
"/  c #B1D72D",
"(  c #D4D705",
")  c #D8D805",
"_  c #D7DA10",
"`  c #C9D707",
"'  c #EAC905",
"]  c #E2D304",
"[  c #E3D806",
"{  c #EDCD1F",
"}  c #D6DC28",
"|  c #E9D12A",
" . c #F78E55",
".. c #F68551",
"X. c #F99457",
"o. c #F69458",
"O. c #F7954E",
"+. c #F8B156",
"@. c #F7B075",
"#. c #94D970",
"$. c #B2DC53",
"%. c #D4E14C",
"&. c #E6E55E",
"*. c #F2DA6D",
"=. c #F6C967",
"-. c #DBE665",
";. c #F2E17B",
":. c #F6C656",
">. c #7E1CBF",
",. c #3B24E6",
"<. c #3426EB",
"1. c #2E38EE",
"2. c #3333ED",
"3. c #3637EE",
"4. c #2D32F0",
"5. c #2B2CEE",
"6. c #5C1FD4",
"7. c #531FD8",
"8. c #4D1FDB",
"9. c #6A1ECB",
"0. c #631FCE",
"q. c #721DC6",
"w. c #7A1DC2",
"e. c #4921DD",
"r. c #4D29DF",
"t. c #5929DB",
"y. c #6B37D7",
"u. c #492AE3",
"i. c #3347EE",
"p. c #3958EB",
"a. c #3148F0",
"s. c #3960EA",
"d. c #7751DE",
"f. c #6543DD",
"g. c #4846EE",
"h. c #5251EC",
"j. c #7456E2",
"k. c #6E53E3",
"l. c #4669EB",
"z. c #4676E6",
"x. c #4575E8",
"c. c #566EEC",
"v. c #6A6FED",
"b. c #AD168E",
"n. c #B21588",
"m. c #AD1692",
"M. c #A6189A",
"N. c #A91798",
"B. c #B01590",
"V. c #951AAB",
"C. c #9A19AA",
"Z. c #9D19A7",
"A. c #841BBB",
"S. c #8C1BB5",
"D. c #921AB0",
"F. c #A119A3",
"G. c #801DC1",
"H. c #844FD5",
"J. c #9374DE",
"K. c #3FB096",
"L. c #3EAF94",
"P. c #43B196",
"I. c #4AB49C",
"U. c #46AEA7",
"Y. c #48B1A5",
"T. c #4CAFB4",
"R. c #5FBCA2",
"E. c #75D188",
"W. c #5799DD",
"Q. c #53A6CD",
"!. c #52A7C8",
"~. c #56A6D2",
"^. c #6DB4CE",
"/. c #4F8CE1",
"(. c #518AE3",
"). c #5594E1",
"_. c #7C93EE",
"`. c #6A8EE9",
"'. c #75AAE3",
"]. c #8CDA8F",
"[. c #BDE48E",
"{. c #85D1A8",
"}. c #94D8AD",
"|. c #A3DDBA",
" X c #B1E5B5",
".X c #F8D393",
"XX c #DDED9C",
"oX c #F2E893",
"OX c #F3E588",
"+X c #D6EEB6",
"@X c #CBEAB9",
"#X c #F4F2B8",
"$X c #F4EEA9",
"%X c #899BEC",
"&X c #88A7EA",
"*X c #97B4EB",
"=X c #B0BBF1",
"-X c #8EC9D6",
";X c #B8D8E8",
":X c #BDC9F1",
">X c #B4CBF1",
",X c #C5E9D0",
"<X c #EBF6DA",
"1X c #F7F3D1",
"2X c #C4D7F2",
"3X c #D3D6F5",
"4X c #D5EDE5",
"5X c #D8F1E1",
"6X c #DFECF4",
"7X c #FBF4E7",
"8X c #F9FAEA",
"9X c #EAEAF7",
"0X c #ECF5F6",
"qX c #FCFCF3",
"wX c #F6FAFA",
"eX c #FFFFFF",
"rX c #FFFEFC",
"tX c #FEFEFD",
"yX c #F3F6F9",
"uX c #EBF5EE",
/* pixels */
"t t t t u t t e w w : w w w w e t t t t r y y y y y p p y y y y ",
"q q q q q 0 0 a a a p a a p p a a a a 9 9 0 9 0 0 0 q q q q n.q ",
"N.M.M.M.N.m.m.b.B.B.B.B.B.b.B.n.n.n.n.b.b.b.m.m.m.m.m.N.M.M.M.F.",
"C.C.C.C.C.C.Z.Z.C.C.C.C.C.Z.Z.Z.F.F.Z.V.V.V.V.C.V.V.V.D.S.S.A.>.",
"G.G.A.S.A.A.A.A.A.A.w.S.G.w.w.G.A.>.w.q.9.q.9.q.q.q.q.q.9.0.6.7.",
"6.6.H.H.9.9.9.9.9.9.y.J.H.6.6.0.H.y.7.8.e.e.y.d.t.d.d.j.d.k.u.,.",
",.,.9XeXr.u.e.r.8.f.yXj.9XJ.u.h.eX9X,.<.<.<.9XeXv.qXeXrXeXeXv.5.",
"2.2.9XeX2.<.<.<.,.3X3X2.=XyXg.3.9XeXg.4.5.3.qXyXh.tXeXeXeXeXv.4.",
"p.a.0XeXa.3.3.3.v.eX%X1.6XeX%X3.3XeXc.a.a.c.eX3Xh.wXeXeXeXeXv.p.",
"l.x.0XeXs.g.p.a.>XwXl.v.tXtXyXp.2XeX%Xs.p._.eX=Xl.tXwX&X&X%Xc.s.",
"(.(.yXeX(.x.x.x.0X2Xz.2XwX*XtX`.=XwX*Xz.x.>XeX&Xc.tXyXs.z.s.x.z.",
"W.W.yXeX~.).).W.wX&X).wX;XW.wX*X&XeX:X/.).2XeX'.'.wXwX/.)././.).",
"~.~.yXtX~.~.!.-XeX-X~.0X^.Q.;X;X^.tX6XQ.Q.9XtX^.^.tXyX!.!.Q.Q.Q.",
"T.T.0XtXY.Y.Y.-XtX6XK.{.K.K.R.,XI.wXwXY.K.wXwXK.I.tXyXL.K.Y.U.T.",
"C C 0XtXC Z B {.|.tXF B B {.M }.B 5XeXV B tX4XM V tXeX4X4XR.B Z ",
"m m uXtXN M m F N yX}.m F yXN D h  XeXD F tX Xg A qXeXeXeXE.g m ",
"f f uXeXh g g D f  X}.g G rXF S f ].eXG E.eXE.f A qXeXeXeX].f f ",
"s s uXrXl f f G l S S k k <X,X].k G eX].[.eXH k n tXwX@X@XH d d ",
"z z 8XrXx k k #.#.z z #.z [.eX+Xv ^ eX+X+XeX^ c ^ qX8Xc c c c c ",
"Q Q 8XqXW W W $.<XW W 5X/ / eXXXQ Q qX8X<XeX~ ! / qXqX! ! ! ! ! ",
"` ( 8XrX_ ` ` } eX%.%.rX%._ qX-.` ` 1XrX8X<X( ( } rXqX( ( ) ( ( ",
") [ 8XrX[ [ ) [ 8X$X#X8X_ &.eX} [ ) #XrXeX#X] ] { qXqX] ] ] ] ] ",
"' ' 8XrXoXoXoX{ $XqXrXOX' #X7X' ' ' OXeXeX;.' ' { eXqX*.*.*.{ U ",
"K I 7XrXrXeXrXE +.rXeXE E qX.XU U U =.rXeX:.U U E eXtXeXeXtX+.U ",
"J L 7XeXeXeXeXR P 1X7XP .XwXY P J J R tXeXY P P T qXeXeXeXtX+.L ",
"5 5 7XeXwXeXeXY 6 Y 7XO.7X@.5 5 5 6 5 qXtXL 6 6 T qXeXeXtXtXo.5 ",
"1 1 .. . .o. .7 7 3 T o...3 4 4 4 4 4  .X.5 5 3 7 X.X.X.X.X.8 3 ",
"2 2 , 2 , , , < < < < < < < < < < < < 1 1 1 1 1 1 1 1 1 1 1 1 < ",
"- - & - - - - ; ; > > ; ; ; ; ; ; ; > > , , , , > > ; > > ; ; ; ",
"+ @ % % @ # # = & & $ $ = % # # # # # % $ & & & % % # % # + + + ",
"o o o O O O O O O O + O O O O O O O O O O O O O O o o O o o o o ",
". . .     . X X . o . . o   . . .     o . X o . o o o o o   .   "
};
