/* XPM */
static char *result[] = {
/* columns rows colors chars-per-pixel */
"32 32 45 1 ",
"  c #B9855D",
". c #B9865E",
"X c #976C4A",
"o c #976C4B",
"O c #79563A",
"+ c #7A563A",
"@ c #79563B",
"# c #593D28",
"$ c #5A3D28",
"% c #976D4B",
"& c #5C3C28",
"* c #5C3C27",
"= c #5B3C28",
"- c #996B4A",
"; c #966D4C",
": c #898785",
"> c #8A8785",
", c #B7865F",
"< c #79573B",
"1 c #593D29",
"2 c #8A8784",
"3 c #8A8783",
"4 c #B8865E",
"5 c #986B4A",
"6 c #6E6C6A",
"7 c #6F6B6A",
"8 c #B7865E",
"9 c #6F6B69",
"0 c #6F6C6A",
"q c #6F6C69",
"w c #B9855E",
"e c #976C4C",
"r c #966C4C",
"t c #79563C",
"y c #8A8786",
"u c #888785",
"i c #8A8685",
"p c #8A8684",
"a c #78563C",
"s c #755843",
"d c #78573C",
"f c gray53",
"g c #888786",
"h c #78563A",
"j c #888787",
/* pixels */
" .XXXoOOO+ .XXXoOOO@#$OOO+ .O+  ",
"..XXooOOO+..o%%oOO@@$&OO++..O+..",
"O+Xo&&OOOO*=###&O@$$%oO+..-o&#==",
"++oo&$@O++$$$$$$++#$ooO+..;;*&$$",
" .+OO@$*..XXXoO+..#$OOOO*#:>,.OO",
"..@<O+$*..XXoo++..*&OO@@$1234.OO",
"5;678.O@**Xo++..-XXoO@$$@+..-XOO",
"X;694.++#$XoO+..XXooOO*&O+..ooOO",
"XoOOX-..#$XoOOO+Xo&&O+..O+Xo&&OO",
"-XOOX-..&&XoO@@O%%&$O+..O+oo&$++",
" .&&XX5XOOX%&####&@OOO*&OOOOO+. ",
" .&$oooo@<oo&$&&&&OO++*&OO++O+..",
" .OOOOO@07OOO+.  .O+.  .O+ooO+X5",
"..OO+++@0qO+@+..w.O+.w..OO;;++XX",
"OOO+.  .erXo&$O+Xo&&XX+OOty:rXXX",
"++O+..w.XoX%#$@Oo%&&ooOO+@>2r%oo",
"XoOOO+XX++X%###$O+oo+OO+oXrr&&OO",
"oo++@OooO+o%##$$O+XoOO@OX--o&$O+",
"O+oo&$OOO@$##$@OO+XoO@$*.  .OOoX",
"O+X%&$++O@$$&&O+@OXX++#&....@<oo",
"O+XoO+..O+oX..Xo&*.  .#$X55;uiOO",
"++ooO+..O+X5..X%1#....#$XXX;:pa@",
"Xo+OO+XXO+Xo++X;6qeo*##$XXXoOa$#",
"%%O@O+XoO+oo++o;6qro&$$&oooo++*&",
"###$O+XoOOO+..+OOOOOOOoo+OO+.   ",
"$$$&O+ooO@O+..++OO@@@O%oOO++....",
"OOooOOOOssO+X5XoO@$####&O+..-555",
"++ooOO++ss@Ooo%%++$$$$$&O+..XXXX",
"Xo+OO+..O@$$OO$*..OOOOooOOO+XXXX",
"XoOO++..+O$$da$*..++O+oo@<O+oo%%",
"XoO+..-5XoOd:iaOX5XoOOO@>>ro+O$#",
"XoO+ .XXXoOtfgh+XXXoOOOtfjroO@##"
};
