/* XPM */
static char *_b10099ae78144a1bf02f276b5f4fe818qGDqLhEw9OBPKey[] = {
/* columns rows colors chars-per-pixel */
"64 64 239 2 ",
"   c #E6050D",
".  c #EA060B",
"X  c #EA0B0B",
"o  c #EC130D",
"O  c #ED1B0D",
"+  c #E80910",
"@  c #EE220D",
"#  c #EE2B0D",
"$  c #F12C0E",
"%  c #F0240E",
"&  c #F3380F",
"*  c #F22C11",
"=  c #F12510",
"-  c #F33410",
";  c #F43A11",
":  c #EF2410",
">  c #D81038",
",  c #D80F3C",
"<  c #F64311",
"1  c #F64B12",
"2  c #F84D12",
"3  c #F84712",
"4  c #F95412",
"5  c #FA5B13",
"6  c #F75312",
"7  c #F4430F",
"8  c #FC6414",
"9  c #FC6C14",
"0  c #F66618",
"q  c #FD7414",
"w  c #FC7B13",
"e  c #F67B1B",
"r  c #FC790F",
"t  c #F77624",
"y  c #BF136E",
"u  c #BD1374",
"i  c #B8147C",
"p  c #D00F4A",
"a  c #CF114B",
"s  c #D11148",
"d  c #CB0F55",
"f  c #CA1055",
"g  c #C7115C",
"h  c #C9115B",
"j  c #CF0F4C",
"k  c #C31164",
"l  c #C1126C",
"z  c #1ABA1F",
"x  c #28BD1A",
"c  c #34BE19",
"v  c #16B927",
"b  c #15B732",
"n  c #19B63C",
"m  c #17B639",
"M  c #29BD34",
"N  c #3CC117",
"B  c #36C231",
"V  c #59C50F",
"C  c #47C314",
"Z  c #58C511",
"A  c #46C20E",
"S  c #69C80E",
"D  c #78CB0D",
"F  c #70CA12",
"G  c #68CA2E",
"H  c #1CB546",
"J  c #27B84B",
"K  c #24B555",
"L  c #36BC57",
"P  c #2BB368",
"I  c #34B570",
"U  c #3AC24C",
"Y  c #4BC754",
"T  c #6ECC4B",
"R  c #4FC370",
"E  c #6ED07B",
"W  c #47BE46",
"Q  c #F8970E",
"!  c #FB8311",
"~  c #FA8B11",
"^  c #F99210",
"/  c #F6A60C",
"(  c #F3B30A",
")  c #EEBB0A",
"_  c #F78F30",
"`  c #F5AD35",
"'  c #87CD0C",
"]  c #9DD108",
"[  c #98CF0F",
"{  c #A6D208",
"}  c #BDD505",
"|  c #B6D508",
" . c #ABD51A",
".. c #A1D531",
"X. c #C9D706",
"o. c #DCD504",
"O. c #D5D905",
"+. c #D9D904",
"@. c #D1DB18",
"#. c #EBC305",
"$. c #E8CB05",
"%. c #E3D404",
"&. c #E5D309",
"*. c #E9D119",
"=. c #D5DE31",
"-. c #E9D838",
";. c #F0CC3A",
":. c #F69B49",
">. c #F4B04C",
",. c #F6B271",
"<. c #A5DA5F",
"1. c #D3E250",
"2. c #F5C976",
"3. c #CBE46E",
"4. c #ECE46C",
"5. c #E9DD57",
"6. c #7D1CBE",
"7. c #2D2CEE",
"8. c #3B23E6",
"9. c #312AEE",
"0. c #3525E9",
"q. c #2E38EE",
"w. c #3137ED",
"e. c #2C37F1",
"r. c #3039F1",
"t. c #3028F1",
"y. c #571FD7",
"u. c #4E1FDA",
"i. c #641ECD",
"p. c #6B1ECB",
"a. c #741DC5",
"s. c #7A1DC2",
"d. c #721DC8",
"f. c #641ED1",
"g. c #4A22DC",
"h. c #5121DA",
"j. c #5621D5",
"k. c #5733DD",
"l. c #6521CD",
"z. c #642CD6",
"x. c #4322E1",
"c. c #4B38E6",
"v. c #3248EE",
"b. c #3857EC",
"n. c #3249F0",
"m. c #3D65EA",
"M. c #4E4FEC",
"N. c #6852E3",
"B. c #436AE9",
"V. c #4A7DE6",
"C. c #4574E8",
"Z. c #5777E5",
"A. c #5A6AEE",
"S. c #726CE8",
"D. c #645BDD",
"F. c #B41583",
"G. c #B1158B",
"H. c #AB1794",
"J. c #A5199D",
"K. c #A9179A",
"L. c #AE178F",
"P. c #9E19A4",
"I. c #951AAD",
"U. c #9B1AAA",
"Y. c #8B1BB4",
"T. c #841CBB",
"R. c #891BB9",
"E. c #931AB0",
"W. c #A119A3",
"Q. c #A019A9",
"!. c #9171DA",
"~. c #8B72E7",
"^. c #9375E2",
"/. c #895FDA",
"(. c #39B186",
"). c #3EB094",
"_. c #45B398",
"`. c #47AEA9",
"'. c #4DACB8",
"]. c #4FB1AD",
"[. c #64B9B8",
"{. c #59C191",
"}. c #71CE8D",
"|. c #559ADA",
" X c #5491DA",
".X c #52A9C7",
"XX c #56A4D4",
"oX c #4FA9C2",
"OX c #6DB1D5",
"+X c #4C86E3",
"@X c #518BE3",
"#X c #5294E1",
"$X c #5996E3",
"%X c #4F91E1",
"&X c #7091E8",
"*X c #72A9E1",
"=X c #F1BB92",
"-X c #89D695",
";X c #A8DD8E",
":X c #B7E394",
">X c #91D6AE",
",X c #B4E5AE",
"<X c #A2DFB0",
"1X c #F4CE92",
"2X c #EEE991",
"3X c #F2D8BB",
"4X c #F3D0A6",
"5X c #CEEAB0",
"6X c #F3EBB1",
"7X c #C3E68B",
"8X c #9092EA",
"9X c #90AFE9",
"0X c #ADB3EE",
"qX c #A3A2E0",
"wX c #C7BAE2",
"eX c #8FC9D0",
"rX c #A6D8CD",
"tX c #B7E4C8",
"yX c #B2CEEA",
"uX c #9AC8E4",
"iX c #C8EBCB",
"pX c #CDECD5",
"aX c #D8F0D0",
"sX c #F8E5C7",
"dX c #F6F4C9",
"fX c #F0F4D3",
"gX c #D4DBF5",
"hX c #CED2F0",
"jX c #D9E6F4",
"kX c #D2EAE7",
"lX c #EAF6EB",
"zX c #F9F9E9",
"xX c #ECF3F5",
"cX c #EDF6F6",
"vX c #FCFBF4",
"bX c #FEFFFE",
"nX c #F5F8F8",
"mX c #E7EAF3",
"MX c #EDDBD3",
/* pixels */
"s a a a a a a a a a a a s s s s s , > > > > > > > > > > > > s s s a j j j p p j f f f d d d d d f d f g d g g g g d d d d d d d ",
"h h g g g g g g g g h h h f f a j j s s s s s s s , s s a a s a f f h h f f h h f f f g g g g k k k k k k k y k y k k k g y k g ",
"y u u u y u y y l l l l l l k k l h h h f h h g g g g g g g g k k k k k k k k l k y y y y y y u y y y u u u u u u u u u u u u u ",
"F.i F.F.F.F.F.F.F.i i i u u u y l l l l l l l y y y y y y y y y l l l l l l u l u u u u u u u u u u i i i i F.F.F.F.F.F.F.F.F.i ",
"L.L.L.L.L.L.L.L.L.G.G.G.F.F.F.F.G.F.F.F.F.F.F.F.F.F.i i F.F.i i i i i i F.i F.F.i i i i F.F.F.F.F.F.G.F.G.G.G.G.L.L.H.L.H.H.H.H.",
"J.J.W.J.J.W.J.J.J.J.K.K.K.K.K.K.H.H.K.K.K.W.K.K.J.J.J.H.K.K.H.H.L.L.L.G.L.L.H.H.H.H.P.J.K.H.J.H.K.K.H.H.H.K.K.W.K.W.P.P.P.P.P.I.",
"Q.Q.Q.Q.U.U.Q.U.Q.Q.Q.W.W.Q.J.Q.W.W.W.Q.W.W.W.W.J.W.W.W.J.J.J.J.J.J.K.J.J.J.W.P.P.P.P.P.P.P.P.P.P.P.P.P.P.P.P.U.I.I.I.I.Y.Y.R.T.",
"I.I.E.I.E.I.E.U.I.E.I.I.U.U.U.Q.I.I.I.E.U.U.I.I.I.E.I.U.I.I.I.U.U.U.U.U.U.I.I.E.I.Y.Y.Y.Y.E.E.I.Y.I.I.Y.Y.Y.Y.Y.Y.R.R.6.6.6.a.a.",
"R.R.R.R.R.R.R.R.Y.Y.Y.Y.Y.Y.Y.Y.Y.R.Y.T.R.T.R.Y.T.T.T.T.R.R.R.R.R.Y.Y.T.R.6.6.6.a.a.s.s.s.6.6.6.6.6.6.6.6.6.6.6.a.a.a.p.p.i.y.j.",
"s.s.s.6.T.T.R.R.T.T.T.6.T.6.6.6.6.6.6.6.6.6.s.s.s.s.a.a.a.a.a.a.a.6.s.s.a.d.d.i.p.p.p.p.p.i.p.p.a.p.a.i.p.p.i.i.i.i.y.y.y.y.u.h.",
"f.f.f.p.d.d.s.d.d.s.a.a.a.d.d.d.d.d.d.d.i.d.i.a.f.p.i.i.i.i.i.i.f.i.i.i.y.y.y.y.u.y.u.y.y.y.y.y.j.j.y.j.j.j.j.u.u.g.g.x.x.x.x.8.",
"h.h.y.y./.!.!.!.z.l.l.l.f.l.f.l.f.f.f.f.y./.wXqXwXz.y.y.y.y.y.N.^.^.^.z.u.u.g.g.u.x.x.x.h.~.!.~.N.k.!.~.~.~.~.~./.~.~.~.S.0.8.0.",
"x.x.x.x.hXbXbXbXk.h.x.h.h.h.h.h.u.u.h.k.qXvXgXk.vXnX^.h.x.x.x.~.bXbXbXwX8.x.8.0.8.0.0.0.8XvXbXbX8XN.nXbXbXbXbXbXbXvXbXbXhX0.t.t.",
"t.0.0.0.hXbXbXbXk.x.x.x.x.x.g.x.x.x.x.^.nXzXqXx.hXvXxXN.8.0.0.N.vXbXbXnXx.0.t.t.0.0.0.9.hXvXbXvX~.M.nXbXbXbXbXbXbXbXbXbXhXt.7.7.",
"9.9.9.9.hXbXbXbXc.0.0.0.8.8.0.0.0.8.N.mXbXmXM.0.S.vXbXgXc.9.9.c.gXbXbXvXM.t.t.t.7.7.7.9.vXbXbXbXA.M.nXbXbXbXbXbXbXbXbXbXyXe.7.7.",
"v.r.r.r.hXbXbXbXM.t.9.9.9.9.9.9.t.t.wXbXbXqX7.7.c.bXbXvX8Xq.7.w.hXbXbXbXS.e.e.e.7.e.7.n.vXbXbXjXM.M.nXbXbXbXbXbXbXbXbXbXhXe.v.e.",
"n.v.v.r.hXbXbXbXn.r.t.w.9.e.7.7.r.M.xXbXbXS.7.q.S.bXbXbXjXw.q.q.0XbXbXbX&Xq.r.r.r.r.r.A.bXbXbXgXr.A.nXbXbXbXbXbXbXbXbXbXhXv.e.n.",
"b.b.b.b.gXbXbXbXM.n.r.r.w.r.r.w.e.0XbXbXjXv.v.v.jXbXbXbXvX8Xv.v.8XbXbXbXqXv.n.n.n.n.r.&XbXbXbX0Xr.A.nXbXbXbXbXbXbXbXbXbXgXv.n.n.",
"B.B.B.m.gXbXbXbXA.n.b.n.n.v.v.v.M.mXbXbX8Xb.b.A.vXbXbXbXbXhXb.b.8XnXbXbXhXn.b.b.b.B.b.9XbXbXbX8Xn.A.nXbXbXvXgXgXgXgXjXgXyXb.b.b.",
"V.V.C.C.jXbXbXbXC.m.b.b.b.b.b.b.&XbXbXnXC.m.m.qXbXbXxXbXbXxXb.m.&XbXbXbXcXm.m.m.B.b.b.yXbXbXbX&Xb.A.nXbXbXmXZ.Z.Z.Z.Z.Z.C.m.m.m.",
"+X+X+X+XjXbXbXbX@XC.C.m.m.m.m.m.0XbXbXyXB.B.C.xXbXbX9XjXbXbX*Xm.Z.jXbXbXbXZ.C.m.B.B.C.jXbXbXnXC.m.&XnXbXbXxXm.m.m.m.m.m.m.m.C.C.",
"#X#X@X@XjXbXbXbX$X+X+XV.+X+X+X+XgXbXbX*XV.V.9XbXbXxX X0XbXbXyXm.+XgXbXbXbX&XC.+XV.+X+XbXbXbXxXC.m.&XnXbXbXxXC.C.+Xm.V.V.C.V.+X+X",
"$X#X|.#XjXbXbXbX$X#X#X#X@X@X%X$XxXbXxX X@X@XhXbXbXyX%X*XbXbXkX+X@XyXbXbXbX*X+X@X@X%X&XbXbXbXjX+X+X&XnXbXbXcX+X+X+X+X+X+X+X+X+X+X",
"|.|.|.|.jXbXbXbX*XXX|.|.$X#X|.uXvXbXuX|.|.*XvXbXbXXX X|.gXbXxX*X#XyXbXbXnXuX#X#X#X#X*XbXbXbXhX|.%X*XnXbXbXcX#X#X%X%X%X%X%X#X%X%X",
"XXXXXXXXjXbXbXbXOXXXXXXXXXXXXXuXbXbXhXXXXXXXcXbXjXXXXXXXeXbXbX9XXXuXbXbXbXyXXXXXXX|.uXbXbXbXuXXXXXOXbXbXbXcXXX|.XXXX|.XX|.|.|.|.",
"XXXXOXXXjXbXbXbXOX.XXX.X.X.X.XyXbXbXcXOXoXoXrXbXeXoXoX'..XjXbXeX.XOXnXbXbXjX.X.X.X.XkXbXbXbXeX'.'.OXnXbXbXxX'.oXoXoXoX.X.X.X.X.X",
".X.X.X.XjXbXbXbX.XoX'.'.oX'.oXkXbXbXvXeX`.`.[.xX`.`.`.`.`.rXnXrX].[.lXbXbXnX'.'.'.`.jXbXbXbX].`.`.[.nXbXbXcX`.`.`.`.`.'.'.'.oXoX",
"].`.`.`.kXbXbXbX{._.).).).).).tXnXbXbXlX).(.(.>X(.(.(.(.(.{.nXrX(._.pXbXbXbX_.(.(.(.nXbXbXxX(.I _.{.nXbXbXxX(.(.(.).).).).`.).`.",
").).).).kXnXbXbX{.).(.I (.(.(.kXtXnXbXbX_.I P I P P {.I P I pXtXP P tXbXbXbX{.I I I nXbXbXkXP P K {.zXvXbXnX>X>X>X>X>X(.(.(.(.(.",
"K P P P pXbXbXbXI P P P P K I tX(.<XbXbXtXK K K K P mX-XK K {.<XK H >XbXbXbX}.K H R bXbXbXtXH H J R nXbXbXbXbXbXbXbXbXL K K K P ",
"J K K K pXbXbXbXL K K K H K P }.J R bXbXzXL K H H R bXiXH H J -XH H E bXbXbX}.n H R bXbXbX>Xm m m R nXbXbXbXbXbXbXbXbXK H H H H ",
"m n m m pXbXbXbXL H H H H H J R H H pXbXnX}.n H H tXbXnXL H n L m n J vXbXbX>Xm m -XbXbXbXE b b b Y nXbXbXbXbXbXbXbXnXJ b m m H ",
"v b b b pXbXbXbXJ b m m m m U U m m -XbXvX}.m b m pXbXbX-Xb b U b b m lXbXbXiXb b ,XbXbXbXU v v v Y cXbXbXbXbXbXbXbXbXM b b b v ",
"v v v v iXbXbXbXM b b b b v J E b v J lXbXU v b b E nXbXlXb v E v v v pXbXbXnXz z pXbXbXvXv v b v Y nXbXbXbXbXbXbXbXbXM v v z v ",
"v z v v iXbXbXbXM b v v v v M <XM v v iXiXv v v z B lXvXnXY Y ;Xz x x ,XbXbXvXB x cXbXbXaXx x x x Y vXbXbXbXbXvXbXvXbXB x z x x ",
"N z x N iXbXbXbXB z v z z z z aXE x x Y T N N N N N ;XbXbXiX,X:Xc A C ;XbXbXbXT Z bXbXbX5XN N C N T nXbXbXnX;X;X;X;X;XC N C N N ",
"N A N N 5XbXbXbXB N N z N N N ,X,XB N C C C C T C Z T vXbXcXzX:XS S V <.bXbXbX<.G bXbXbX:XZ Z V V G nXbXbXlXV V Z Z Z Z Z S Z Z ",
"S S S S aXbXbXbXG V A A C C N :XzX..Z S S S G fXF D ' 5XbXbXbX:X' ' ' ..bXbXbX5X<.nXbXbX3.D ' ' ' ..vXbXbXzXD ' ' ' ' ' ' ' ' ' ",
"] ' ' ' aXbXbXbX' D D S F D D 7XbX:XD ' ' ' <.bX..' ' 3.bXbXcX3.[ [ ] [ vXbXbXdX3.nXbXbX..[ ] {  ...bXbXbXzX] ] ] { ] { { ]  .{ ",
"| | | | dXbXbXbX .{ { ] ] { { 3.bXlX .] ] { zXbX5X{ {  .vXbXnX1.| | | { fXbXbXfX6XbXbXbX| | | X.} =.bXbXbXzX} } X.} } } } X.} X.",
"X.X.X.X.dXbXbXbX@.@.} } } } X.3.bXvX3.} | 1.bXbXvX| } | 6XbXzX=.} X.} } 6XnXnXvXdXbXbXfXX.X.X.X.O.=.vXbXbXzXO.O.X.X.X.X.O.X.X.X.",
"O.O.+.+.dXbXbXbX@.+.O.O.O.O.+.=.zXbXdXO.X.dXbXvX2XO.O.@.vXbXdXO.X.X.X.X.2XvXbXbXzXbXbX6XO.O.o.o.O.-.vXbXbXzXo.o.o.o.o.+.O.o.o.o.",
"+.%.+.+.dXbXbXbX*.+.+.%.+.+.+.@.dXbXbX=.=.vXbXvX1.+.+.4.bXbX6XO.+.+.O.O.4.vXbXbXvXbXbX6Xo.o.%.&.&.-.vXbXbXzX$.%.$.o.o.o.o.o.o.+.",
"+.%.%.%.dXbXbXbX*.%.%.%.+.%.%.%.2XbXbX2X2XbXbXfX&.+.&.6XvXbX4.+.+.%.+.+.-.bXbXbXbXbXbX4.%.%.&.$.$.-.vXbXbXzX$.$.$.$.$.$.$.$.%.&.",
"$.$.$.$.dXbXbXbX5.-.-.-.-.-.*.$.4.bXbXzXfXvXbX4.$.&.-.vXbXvX*.%.%.%.%.%.&.vXbXbXbXbXvX;.$.$.#.$.$.;.vXbXbXfX#.) #.) #.#.$.$.#.#.",
"#.#.#.#.dXbXbXbXdXdXdXdXdXdX5.#.;.zXvXvXbXbXvX*.#.#.2XbXbXdX$.#.#.#.#.#.$.dXbXbXbXbXvX*.#.#.#.#.) ;.vXbXbXvX6X6X6X6X6X6X2X( ) ) ",
"( / ( / sXbXbXbXbXbXbXbXbXbX2.( ( 6XbXbXbXbX6X( ( ) zXbXbX2.( ( ( ( ( ( ( 6XbXbXbXbXzX( ) ( ( / ( >.vXbXbXbXbXbXbXbXbXvXdX/ / ( ",
"Q Q Q Q sXbXbXbXbXbXbXbXbXbX2./ / >.vXbXbXvX>.Q / 2.vXvXzX` Q / / Q / / / 1XbXbXbXbX6X/ / / / / / ` vXbXbXbXbXbXbXbXbXbXsXQ Q Q ",
"^ ~ ~ ~ sXbXbXbXbXbXbXbXbXbX2.^ Q Q sXbXbXzXQ Q Q sXbXbX4XQ Q ^ ^ ^ ^ ^ ^ 2.bXbXbXbX1XQ Q Q Q Q Q :.vXbXbXbXbXbXbXbXbXbXsX~ ~ ~ ",
"! ! ! ! sXbXbXbXbXbXbXbXbXbX,.~ ~ ~ >.nXbXzX_ ~ ` bXnXzX_ ! ~ ~ ! ~ ~ ! ! :.bXbXbXbX>.~ ~ ~ ~ ~ ~ ` vXbXbXbXbXbXbXbXbXbXsX! ! ! ",
"w q q w sXbXbXbXbXbXbXbXbXbX,.~ ! ! ! =XbXbX,.! 4XvXbX,.w w w w r r q w w ! nXbXbXbX_ ! ! ! ! w w :.vXbXbXbXbXbXbXbXbXbXsXq q w ",
"9 q 9 9 sXbXnXnXbXnXbXbXbXvX=Xw w r w _ 3XvX3X! zXvX4Xe q q q q q q q q e q zXnXbXvX! w w w w w q _ nXbXnXbXvXbXbXnXbXnXsXq q q ",
"8 8 0 8 =X3X3X3X3X3X3X3X3X3X:.0 r 9 r r t 1XnX=XzX,.9 9 9 9 9 9 9 9 9 9 9 9 =X3X3X4Xq w q q q q q _ 3X3X3X3X3X3X3X3X3X3X=X9 9 9 ",
"4 4 6 6 6 4 4 5 5 5 5 5 8 8 8 0 8 9 8 8 0 8 0 t 5 6 0 8 8 8 8 8 8 8 8 8 8 8 8 8 0 0 9 9 9 9 9 9 8 8 0 0 9 8 8 8 8 8 9 8 0 8 8 8 ",
"2 2 1 1 1 1 1 1 2 6 6 6 4 5 5 5 5 5 5 5 5 5 5 5 6 5 6 5 5 5 6 6 5 4 4 5 5 4 5 5 8 5 8 8 8 8 8 8 5 5 5 5 5 5 8 8 8 5 8 5 5 5 8 5 ",
"< ; ; 7 < ; < < < < 3 3 3 2 2 2 2 2 6 6 6 6 6 6 6 1 6 6 2 2 2 6 2 2 4 2 4 4 4 4 4 5 5 5 5 5 5 5 5 5 5 5 5 4 4 5 5 5 4 5 4 4 4 2 ",
"- & - - & & - & - ; & & ; ; 7 < < < < 7 1 1 1 < 3 < < < < < < < < < < 3 < 3 < 3 1 2 2 2 4 4 2 2 2 3 3 3 3 3 3 3 3 3 1 < < < < ; ",
"* * - $ # $ $ $ * * - - - - - - - ; ; & ; ; ; ; ; ; - ; ; ; - - & & & & ; ; ; & 7 7 7 7 < < 7 7 7 7 ; ; < ; ; ; ; & & & ; - - - ",
"@ % = = = = @ # : = : : = : = # = * - * $ - $ - * * * $ $ # # # $ $ $ $ $ $ $ - $ & $ & - - - - $ - $ $ * * $ * * # $ # * = = = ",
"O o O O O @ O @ @ O O @ : @ @ @ : : : : @ @ # @ % @ @ @ @ O @ : @ O % % % O % % @ @ @ @ % % % % @ @ @ @ O O O O O O O O O o O O ",
"o X o o o o O o O O o O O O O o o O O O O O O O o o O o o o o o o O o o o o o O o O o O O O O O o o o o o o o o o o o X X o X o ",
"X X X X X X X X X X X X X o o o o o o o o o o o o o X o o X o + X X o o o o o o o o o X X o X o o o o o X X X o X X X . + X X X ",
". . . . . . . . . X X X X X   X . X X X X X X X X X X . . . X . X X . X X . . X X X   . X X     . . . X   X X . + X . . . . . . ",
"      .                         +   + + + .         + .     .   . .       . . .       . .   + + + + . . + + . . + +         . . "
};
