/* XPM */
static char *eb4be7a8fd674758af0ae04f05b3ac62siJRnBaZcfNiFlty[] = {
/* columns rows colors chars-per-pixel */
"64 64 153 2 ",
"   c #231722",
".  c #261C25",
"X  c #281F26",
"o  c #272027",
"O  c #282027",
"+  c #272028",
"@  c #292229",
"#  c #2E292E",
"$  c #302B2F",
"%  c #2F2C30",
"&  c #322D31",
"*  c #353235",
"=  c #383537",
"-  c #393539",
";  c #3D3B3D",
":  c #403E3F",
">  c #413E41",
",  c #454345",
"<  c #484547",
"1  c #474648",
"2  c #494549",
"3  c #4C4B4C",
"4  c #504C4F",
"5  c #4F4F50",
"6  c #514E51",
"7  c #545354",
"8  c #585657",
"9  c #595659",
"0  c #5C5B5C",
"q  c #5F5F60",
"w  c #605E60",
"e  c #5F6060",
"r  c #646364",
"t  c #686767",
"y  c #676768",
"u  c #696769",
"i  c #6C6C6C",
"p  c #6F6F70",
"a  c #716F71",
"s  c #737373",
"d  c #787777",
"f  c #777778",
"g  c #787778",
"h  c #7B7B7B",
"j  c #807E80",
"k  c #848384",
"l  c #848484",
"z  c #848484",
"x  c #878887",
"c  c #888688",
"v  c #8C8B8C",
"b  c gray55",
"n  c #8F8E8F",
"m  c #8C8C8C",
"M  c #8F908F",
"N  c #918F91",
"B  c #8F9090",
"V  c gray57",
"C  c #939393",
"Z  c #959595",
"A  c #979797",
"S  c #949494",
"D  c #979798",
"F  c #989798",
"G  c #9F9F9F",
"H  c #9C9C9C",
"J  c #9FA09F",
"K  c #9F9FA0",
"L  c #A09FA0",
"P  c gray63",
"I  c gray64",
"U  c #A4A4A4",
"Y  c #A6A6A7",
"T  c #A3A3A3",
"R  c #A9A7A9",
"E  c gray68",
"W  c #AEAEAE",
"Q  c #ACACAC",
"!  c #AFB0AF",
"~  c #B0B0AF",
"^  c #AFAFB0",
"/  c #B0AFB0",
"(  c #B1B1B1",
")  c gray70",
"_  c #B3B2B2",
"`  c #B4B4B4",
"'  c #B8B7B7",
"]  c #B8B8B7",
"[  c #B8B7B8",
"{  c gray72",
"}  c #BBBBBC",
"|  c gray74",
" . c gray75",
".. c #BBBBBB",
"X. c #C3C2C2",
"o. c #C5C5C5",
"O. c #C7C7C7",
"+. c #C4C4C4",
"@. c #C8C8C7",
"#. c #C8C8C8",
"$. c gray79",
"%. c #CBCBCB",
"&. c gray80",
"*. c #CDCDCD",
"=. c #CCCCCC",
"-. c #D0D0CF",
";. c #D0D0D0",
":. c gray82",
">. c #D3D4D4",
",. c gray83",
"<. c #D5D5D5",
"1. c gray84",
"2. c #D7D7D7",
"3. c #D3D3D3",
"4. c #DADADA",
"5. c gainsboro",
"6. c #DDDDDD",
"7. c #DFDFDF",
"8. c #DBDBDB",
"9. c #DFE0DF",
"0. c #DFE0DF",
"q. c gray88",
"w. c #E1E1E1",
"e. c #E7E7E7",
"r. c #E4E4E4",
"t. c #E4E4E4",
"y. c gray91",
"u. c #E9E9E9",
"i. c #E9E9EA",
"p. c gray92",
"a. c #ECECEC",
"s. c gray93",
"d. c #EEEEEE",
"f. c #EBEBEB",
"g. c #F3F3F3",
"h. c #F6F6F5",
"j. c #F5F5F6",
"k. c #F6F6F6",
"l. c gray97",
"z. c #F3F3F3",
"x. c #F7F8F7",
"c. c #F7F8F7",
"v. c #F8F8F7",
"b. c #FBFBFB",
"n. c #F8F8F8",
"m. c #FBFCFC",
"M. c gray99",
"N. c #FCFDFC",
"B. c #FDFDFC",
"V. c #FDFDFD",
"C. c #FEFEFE",
"Z. c white",
"A. c #FDFDFD",
/* pixels */
"          . . . .   . X . . X . . . @ . . . . o . . . @ . O . . . X . . O . . . . o . . . . . .       .   .                     ",
"    .     .   . . . . . X . . X . . . . . @ . . . . . . . X . O . o X o . o . . . . . . . . . . . . .         .       .         ",
"    .   .   . . . . . . X X . X @ @ @ . . . . . o o o o . O . X O o o o O . . . X . . . . . . .   . .     . .                   ",
".   . . . . . . . . . . . X . X . @ @ @ + @ . o . . o . o . . X O O O @ o . . . o . o . o X X . X . X     .     .               ",
".   . . . . . . . X X X X . . X + + + + X X X X . . . . . . @ : r h b p : @ O O @ . o o . . o o X . .     . .     . .           ",
". . . . . . . . . X X X + + + X + @ + . . . . X . . X O @ & 6 r t p b A x i * o . o o o o . .   . . . . .   .   .               ",
". . . X . . . . X X X X X X @ @ @ @ @ + X . X . . o o @ $ $ = 3 i s d p r 8 0 : @ o o o . .   o . . . . . .         .           ",
"  . . X . . . X X X @ X X X @ X @ @ . . . . . . . . O * < * ; 3 4 3 : < e 0 8 3 < @ o o o o o o . . . . . . . . . .   .   .     ",
"  X X X X . o . X X X @ X + @ + X @ X . . . .   . . ; s X.O.$.X.~ b e = % > 9 y 8 ; @ + o o o o . . . . . . . .         .   .   ",
"X . X X . X o X X + @ @ X X @ @ @ @ . X . . . . . * , h s.C.C.C.C.C.C.w.n > * 7 h 8 * + o o . . . . . . . .   . . . .       .   ",
"X . o X o o . o @ + + + @ . @ @ @ @ X . . .     @ - - W C.C.C.C.C.C.C.C.m.>.p & 3 9 , @ o o o . . . . .   .   . . . . . .       ",
". X X X X o @ @ @ + @ X @ @ X @ @ X . . . . . . # X 3 <.M.C.C.C.C.C.C.C.C.C.r.z & - 3 @ @ o o . . . . . .   +   . . . . .   . . ",
"o . o o + @ @ @ @ @ @ + . + + @ @ @ X .   . . . X . q 4.h.h.m.C.C.C.C.C.C.C.C.C.| 7 - @ @ @ . o . . . . . .   + . . . . . . .   ",
"@ @ @ @ @ @ @ o @ @ @ @ @ @ @ @ @ @ . . . . . . . . > / e.a.x.C.C.C.C.C.C.C.C.C.C.<.> # @ @ @ @ + . . . . . . .     . .   .   . ",
"@ @ @ @ @ @ @ o @ @ @ @ + @ @ @ @ X X . . . . . . X < o.w.y.x.C.C.b.h.h.C.C.C.C.C.C.i * @ @ @ @ . . . + . . +   +     .   . .   ",
"@ @ @ @ @ @ @ @ @ o + @ @ + @ @ @ X X X . . X @ @ @ h q.s.s.7.0.w. .Z G $.w.<.8.g.C.G # @ @ o @ + . . . . . . . . . . . . . . . ",
"@ @ @ @ @ @ @ @ . + + + @ @ @ o @ o . . . . o @ % * { s.z.&.P U j i ; , ~ ,.0 < s 0.@.& @ @ @ o + . . . . + . . .   . . . . . . ",
"@ @ @ @ @ @ # @ @ o @ + @ + @ o @ . . . . . = i 7 9 <.i.i.$.d r l t 0 5 *.w.5 s : h *.& @ o o . + . . . + . . .   . . .   . . . ",
"@ @ # @ @ @ @ X @ o @ @ @ @ @ @ @ o . . . . 8 , Z Z ( X.-.;.#.<.-. .) ! p.x.Y @.U M -.* @ o o o . . . . . X + . +   + . . . . . ",
"@ # @ @ @ @ @ @ @ @ @ @ @ @ @ o o . . . . . 2 z g V ` U P X.>.O.| o.e.r.g.C.p.{ 2.g.g.= @ @ o o . + . . . . . . + . + . . . + . ",
"@ @ @ # @ @ @ @ @ o @ o @ . @ + X . . . . . 2 k 9 $.X.P M U :.a.c.z.~ d.h.C.b.v.w.g.g.& @ @ o . + . . . . . . . . . X . . . X . ",
"# @ # @ # @ @ @ @ @ o o o @ o . X X . . . . @ L  .O.W S l b Q :.2.m z 2.-.4.r.y.N.N.2.# @ @ o o + . X . X . . X . X . X . . X + ",
"# @ @ @ @ @ X @ @ @ o @ @ @ o @ @ X . . X . X L 7.+.P x l Z m B h : ; * * : 7 l -.e.] # @ @ o o . . X X X X X . X . X X . . X . ",
"@ @ # @ @ @ @ @ @ + + o o . @ o @ . X . . . . w @.Y P l z Z b h 8 1 # o O o # : M *.A @ @ . o o X . X X X X . . . X X X . X X X ",
"# # @ @ o @ @ @ @ @ X X o @ @ o @ . @ . . . @ . 5 g G l z M M m 7 7 # @ o @ & , x -.s # O O o . o o . X X . . . . X . + + . X X ",
"@ @ @ @ @ @ @ @ @ @ @ @ o @ @ @ + + . . . @ . @ x P G x z x C x s e # X . o w t A =.2 @ O X . o o . . X . . . X . X . . . @ X X ",
"@ @ @ @ @ @ @ @ @ @ X X o @ o @ @ @ @ . . . . + H W A V M H H H s ; o # . . , h Q _ & @ O O X X . o X O . . X X X . @ @ X X X @ ",
"@ @ # @ @ o X X . X @ @ @ o o @ . . @ . . . . @ x R V G C A M m i s r 3 6 - r s X.C @ O O O . . . o X X . X X @ @ X . @ @ @ @ X ",
"@ @ @ @ @ @ @ @ @ @ @ @ @ . o @ @ . . . . . . 2 &./ b Z V n d m l l x G R P ` g o.t @ O o . . . o o o o X X X X @ @ @ X @ @ @ X ",
"# @ @ @ @ @ @ X o + @ @ @ @ o @ . . . . .   . h <.r.j d z x e m Y x r 7 6 r $.Q +.: @ O o o . . o o o o X X X @ X X X @ X @ @ @ ",
"@ # @ @ @ X @ @ @ @ . . @ @ o o o . . . . + r P G y.$.p s d p d *.{ I {  .O.7.' A # o o o . X . o o o o X @ X X X @ X @ @ X X @ ",
"@ @ @ @ @ @ @ X o @ @ @ @ . @ o o . . . o 0  .( h A b.8.p r h 0 Z  .....X.<.r.Y 3 O o o . o o X o o o o X X X X @ X @ X o @ X X ",
"@ @ @ o @ @ @ o @ + @ @ o @ @ . X . . # s @.{ ..H d Y N.g.l r g 6 9 i g z m ] s @ @ @ @ X X X X o o o X O O O O O O O O @ O O O ",
"@ @ @ @ o @ o o . @ . X o o @ @ @ # 6 C ,.X...Q U x s :.C.p.V r e : * ; 8 z D * @ @ @ @ o o X o o o o o O O O O O O O O O O X O ",
"# @ @ @ @ @ + + + @ X @ @ @ @ @ 6 / w.i.<.` | U H Z h f <.C.C.7.J t , , H r.x # @ @ @ @ @ o @ o o X X o O O O O O @ O O @ @ X X ",
"@ @ @ @ o X @ @ @ @ $ ; < > i (  .{ <.7.4.W ] Y H C l g g g.C.C.C.h.P 3 O.C.Y 0 $ @ @ @ @ @ o o o @ o X O O O O O @ O @ @ @ @ @ ",
"@ @ @ @ @ . @ + % r H  .>.<.6.P s Q ,.7.8.A W ! P Z b z j ] C.C.C.N.p s  .C.Y Q & @ @ @ @ @ @ o @ X X X @ X O O X X X @ X @ @ @ ",
"@ @ @ @ @ X . & W *.:.4.6.t.s.g.7.T / ( o.( A ..Q J M n b x w.C.C.w.7 M ` C.P 7.Y 3 $ # # @ @ o o X X X X @ X @ X X X X X @ X X ",
"@ @ o o @ @ @ N  .} `  .&.:.w.i.s.s.` h i l s { ( Y A n b n P v.C.x.f l W h.P <.r.X.w.O.G i < # o X o o @ X @ X @ X X X X X @ @ ",
"# @ @ @ @ @ > W x H Y / ..O.;.6.r.p.s.X.7 < 3 G ` Y H C b A Z  .C.h.C x P p.H O.w.O.Y h.b.b.p.n # X o @ @ X @ X X @ @ @ X @ X X ",
"@ @ @ @ @ @ H / r 7 h ! .. .] -.4.w.p.s.t ; $ 0 ..Q P H V Z A A r.e.n m @.x.V | 4.y.b Y g.x.b.y.c X O X @ @ O O @ X O O : X X X ",
"@ # @ @ @ 2 [ $.) r ; t J M V P { ` $.w.Y r , & I Q I L Z A V v ( 4.z g P C.C X.$.t.p.r x 8.v.z.7.d O X X O @ X @ X O @     O X ",
"@ # @ @ @ u [ F -. .j ; 5 M 7 t V Y Y O.' N R - c Q Y P H H Z x M ! s g W C.S  .=.4.g.<.e g 8.b.=.u.2 X X O O @ O @ @ X @ O O O ",
"@ @ @ # @ n  .C z ..@.l , 7 m , 8 Z p G ` Z R n i / L H L H A b M A i h Y b.G  .>.4.i.g.| 0 g 7.X.X.Q @ X O @ O @ X @ O O O O O ",
"@ @ @ @ @ L %. .H d H *.G 7 7 V , 0 w z I Z L  .8 U L H P Y P H b b H s x 0.J  .:.8.7.r.s.{ 3 x @.C -.: X X X O X @ @ X @ O O O ",
"@ # @ @ @ ' &.:.:.] j A -.G 3 e H , 0 u A A G X.8 L Q n s 8 V H H n C n m ) Y { 4.0.7.w.i.s.Z 7 _ a o.t X X X X X @ @ @ O O O O ",
"$ @ @ X # %.&.@.4.5.$.z x O.x < l s : r b H P X.u 3 < : - 2 F A H A b H l M Q { 4.7.5.<.` 5.<.8 A i -.~     X O @ @ X X @ @ O X ",
"# @ .   - 3.;.} W $.7...i s ( l , i , 8 h H Y W H x i < 3 r Z n A A C M x 0 H { <.0.w.r.s r { v a j H X.: X @ @ X X @ @ X X X X ",
"@ X . . 2 <.;.o.L R *.2.L r q L b , 8 5 0 C ! x U ! Q d 3 p v c b B V v Z 3 s  .4.4.7.w.2.h ,.` t k t F w @ X X @ X X @ @ @ @ X ",
"# .   . 7 ;.;.o.Q Z Q 8...k 7 8 Z M e 5 8 J J h J ` ] J 2 a x x x b n V Z 0 0 } 3.4.5.4.y.` { 5.j d t a ~ @ X @ o @ @ o X X @ X ",
"=   . . 9 ;.%.} Q F j [ 4.R s 3 3 Z o.x e f i h M J Y J r $ t j l b x x v j 8  .-.:.4.5.r.7.V :.Q 8 i 8 s.> O O @ X X @ X @ @ X ",
"w . . . 7 %.O. ./ L j j @. .Z s , 7 Z h e z x h C J x j h * ; < f b c l z j u  .$.,.4.4.w.<.P Y X.t a C s.a O X X X X @ @ @ @ X ",
"> X X & 9 *.%.o.{ W V t Z $.R V e : e s 3 r f z J ` H A m 5 $ 3 < i j h h s r { $.:.,.:.-.H { V <.~ d Z 0.U O X X X X ; * $ # $ ",
"X @ 6 w u $.&.O.X.X.] h e H  .U J 8 ; 0 = 5 0 z J J H J U M , * 8 , 6 s s 7 i ] %.<.:.o.) V X.V ] b , s X.-.* X X . # * $ $ , O ",
"X X & $ > X.O.%.=.X.X.Y s e Q ] Q b 5 , , 3 y Z J C >.N...H d , 1 0 9 2 y 2 h ~ ..,.@.r E Z R P b = = d R ] i O # & d k , $ @ X ",
"X @ - - 0 |  .$.;.=.@...H i s ] ! ] J i 0 % % ; e b J <.J A j i * 9 r 9 > ; V H i :.0 , z A O.R i 0 < d 8 : J @ * 2 n *.k , : * ",
"; P t.p.t.....X.=.&.-.@.{ H p h ] J Y ) z # @ # @ # p M f r h h 3 , 0 0 ; - V ( h , @ 3 g 0 x 8 3 v @ @ @ + : - : 3 l 8.s 7 = * ",
"l <.y.p.e.{ ] +.@.@.&.2.>.O.Y l M Q p e e # % % = ; * ; * 3 7 3 3 6 5 0 , 3 G Q , o @ , g , i 7 ` I . . + . . - * 3 3 h j Z t & ",
"z *.r.p.t.{ { +.#.@.X.;.4.4.>.{ A ! Q e 5 * % * ; , : : , 0 r 0 & 0 8 9 7 r n 7 @ # @ 1 h ; 2 & F >.@ . . . . & @ 7 r C 3 0 q i ",
"5  .e.r.0.` ` +.>.2.>.<.<.:.&.O.! A  .M 8 = % * : : , , 3 0 0 0 , 8 a > , , * * * 8 % ; u & # @ r c . . . . . . # : 3 s : - ; @ ",
"7 i 9 4 i ] ] { <.7.7.4.*. .Y H A A Q ..i = % * ; : 3 1 5 7 5 7 3 7 8 - @ @ ; < ; 5 % # 5 & $ & 7 & . . . . X . + & ; 6 * & # X ",
"3 * # * r ` ) Q &.7.4.-...` ! !  .-.>.>.A : # % = : 3 1 5 3 1 5 , # ; ; . . * 3 , 3 ; @ % @ ; ; p @ .   . . . @ @ & % @ @ @ # @ ",
"s s t h Y ) ` P ) *.8.>.*.:.8.r.f.e.-.] ] y @ % = = : ; 1 1 3 7 ; ; r 0 & # * @ 2 - & = = 2 - < h & .   . . . . @ @ @ @ X # $ X ",
"| e.2.<.X.` { P G ! ,.i.p.g.h.z.0...Y J ! h # % % * * ; : , 3 3 ; ; i y , * @ o y 0 , * * ; X - u > . . . . . @ + + @ X @ @ # X "
};
