/* XPM */
static char *e7f4292d1fb24043bc19aacaf55270eaMDZrUcenA6NChxh9[] = {
/* columns rows colors chars-per-pixel */
"32 32 234 2 ",
"   c #110F0D",
".  c #13110E",
"X  c #151412",
"o  c #191614",
"O  c #1C1916",
"+  c #1E1C19",
"@  c #0C0B09",
"#  c #211B16",
"$  c #221E1A",
"%  c #24211D",
"&  c #2A231D",
"*  c #32251C",
"=  c #33281E",
"-  c #252421",
";  c #2A2522",
":  c #2E2A26",
">  c #2F2E2A",
",  c #342B24",
"<  c #3B2C23",
"1  c #342E29",
"2  c #322520",
"3  c #36302D",
"4  c #3E332C",
"5  c #393026",
"6  c #3D3533",
"7  c #363332",
"8  c #482F23",
"9  c #44352C",
"0  c #4D382C",
"q  c #4B3529",
"w  c #573C2D",
"e  c #473C35",
"r  c #4B3C33",
"t  c #413731",
"y  c #533A32",
"u  c #5A3D34",
"i  c #753C35",
"p  c #613E2D",
"a  c #4B423C",
"s  c #4E4137",
"d  c #594235",
"f  c #54443C",
"g  c #5A4437",
"h  c #6B4533",
"j  c #61453A",
"k  c #664A3B",
"l  c #724A3D",
"z  c #74523C",
"x  c #6F543D",
"c  c #524E4B",
"v  c #564B43",
"b  c #5E5953",
"n  c #544F4C",
"m  c #624C41",
"M  c #7B4D46",
"N  c #6C5343",
"B  c #68584A",
"V  c #725342",
"C  c #7A5443",
"Z  c #735A45",
"A  c #7A5B46",
"S  c #7A5D4B",
"D  c #74594B",
"F  c #665D53",
"G  c #745D51",
"H  c #78634F",
"J  c #636459",
"K  c #68625D",
"L  c #796759",
"P  c #65604A",
"I  c #6C6A65",
"U  c #6F6F6A",
"Y  c #766F6A",
"T  c #7A7663",
"R  c #787577",
"E  c #855C4B",
"W  c #855746",
"Q  c #855F50",
"!  c #985854",
"~  c #864D48",
"^  c #85664C",
"/  c #836755",
"(  c #8B6A55",
")  c #896C5A",
"_  c #886656",
"`  c #946D5A",
"'  c #94735B",
"]  c #9B755C",
"[  c #A5765E",
"{  c #9C7B65",
"}  c #967A6B",
"|  c #987765",
" . c #91796B",
".. c #A67967",
"X. c #A96B67",
"o. c #A19F34",
"O. c #ABA93B",
"+. c #898751",
"@. c #99964C",
"#. c #B4B344",
"$. c #BDBC58",
"%. c #898479",
"&. c #98936F",
"*. c #AB846A",
"=. c #AD8969",
"-. c #A58269",
";. c #B2846B",
":. c #B38B6D",
">. c #B08067",
",. c #A98674",
"<. c #B48C72",
"1. c #B88B7A",
"2. c #BD957C",
"3. c #B8947A",
"4. c #AF9376",
"5. c #A9A468",
"6. c #AFAE73",
"7. c #B5B379",
"8. c #C38A76",
"9. c #C2997C",
"0. c #C0B27E",
"q. c #D0A279",
"w. c #F7C87D",
"e. c #F2D47A",
"r. c #F3D56F",
"t. c #817F83",
"y. c #93918E",
"u. c #BD9281",
"i. c #B89783",
"p. c #AD968D",
"a. c #B7AE92",
"s. c #ACABA7",
"d. c #B4B3AE",
"f. c #B8B6A5",
"g. c #BDBCB4",
"h. c #BABAB8",
"j. c #B5AEA6",
"k. c #C39883",
"l. c #C99B81",
"z. c #D39D89",
"x. c #C19E98",
"c. c #CAA589",
"v. c #CBAA99",
"b. c #D4AD94",
"n. c #D7AD98",
"m. c #DCB395",
"M. c #DAB29C",
"N. c #D6B49B",
"B. c #CAB18E",
"V. c #E0B79E",
"C. c #E1A898",
"Z. c #C7B8A6",
"A. c #DEB7A4",
"S. c #C0BFBA",
"D. c #E1B4A1",
"F. c #E4BDA3",
"G. c #E6BBA9",
"H. c #EBBDA7",
"J. c #E4BFB1",
"K. c #F6CA85",
"L. c #F7C988",
"P. c #EFD88E",
"I. c #F2D687",
"U. c #F4D398",
"Y. c #F1C48B",
"T. c #DBD3AA",
"R. c #C5C3BC",
"E. c #CAC5BB",
"W. c #D4CCBA",
"Q. c #DFD7B3",
"!. c #EAC2A3",
"~. c #EDC5AB",
"^. c #E7C1AD",
"/. c #F3CCAD",
"(. c #F2C5AC",
"). c #ECDCA8",
"_. c #F3D9A6",
"`. c #EECBB5",
"'. c #EDC7B0",
"]. c #F4C6B4",
"[. c #F4CCB4",
"{. c #F4CBBA",
"}. c #FACCB8",
"|. c #E8DBBC",
" X c #F6D0B7",
".X c #FAD4BD",
"XX c #F5DCBC",
"oX c #F4D6B7",
"OX c #F7E7AA",
"+X c #EFE3BE",
"@X c #F6E8B8",
"#X c #CBC7C1",
"$X c #CECBC4",
"%X c #C6C5C9",
"&X c #D1CDC4",
"*X c #DAD4CC",
"=X c #D9D6CC",
"-X c #DDDBD4",
";X c #D8D7D4",
":X c #ECDFC3",
">X c #E5DBC8",
",X c #FAD4C2",
"<X c #F4DEC2",
"1X c #FCDAC4",
"2X c #FCDCCA",
"3X c #E3DCD3",
"4X c #E3DFD9",
"5X c #ECE4CD",
"6X c #EDE0C5",
"7X c #F2E2CB",
"8X c #FDE1CE",
"9X c #F4E9C8",
"0X c #E4E0D4",
"qX c #ECE5D4",
"wX c #EEE9D4",
"eX c #E6E2DB",
"rX c #EAE7DD",
"tX c #EEEADD",
"yX c #F1E6D5",
"uX c #FEE2D1",
"iX c #F2ECD5",
"pX c #F2EBDC",
"aX c #F1E7D8",
"sX c #DCDBE1",
"dX c #E6E5E2",
"fX c #EDEBE3",
"gX c #EDECEB",
"hX c #E7E6E7",
"jX c #F1EEE4",
"kX c #F1EEE8",
"lX c #F2F0E5",
"zX c #F1F1EA",
"xX c #FDFDFC",
"cX c #F8F7F9",
/* pixels */
"&.y.%.%.%.a 3 & - ; 1 ; ; ; + - > + > 1 O O + 7 R y.;XsXgXsX%X%X",
"@.T J J K v > : $ $ - + + o X X O X O + O O + > F K #XhXcXhXt.I ",
"o.+.T P v 3 > % o X o $ O @ @ . . .     . $ ; & 7 a $XcXxXcXs.y.",
"O.5.T s 7 & $ $ O +     X . X   X     X # ; & % + - y.cXxXgXd.s.",
"O.6.F 7 & - % % & + .   X + # < 9 8 8 y g 5 % & X O c hXcXS.d.s.",
"#.6.L 6 % o O O $ O + # < g -.v.b.i.=.-.:.<.V & + $ c s.%Xh.d.d.",
"#.7.a.F 2 $ X   . # < 0 ' M.oX8XuXuX2X`.!.!.c.w + - 1 a d.d.h.h.",
"$.a.f.c % O o O * l A S M.[..X.X1X2X1X1X.X/.!.=.3 : : e %.g.S.S.",
"a.f.g.J $ X . = ( <.2.2.V.'./..X1X1X1X<X.X/.~.c.f 3 t 6 b g.S.#X",
"E.E.W.T + . X N >.2.b.V.'.[..X1X8XuX8XuX8X/.!.m.N & $ ; v S.#X#X",
"E.E.$XU % O O A =.c.V.~. X1X2X,X2X2X2X2X.XoXF.m./ & $ % F $X$X$X",
"&X&X&XU o O O A *.c.N.N.F.^.'.].].v.-.F B L | c.' $ + + %.$X*X&X",
"=X=X=Xs.$ . O V / v e 9 u / k.n.M.{ k p k V N  .{ % O % @.T.*X;X",
"-X0X>X=X7 X o x k B x h p A *.~.'.] h h ` ( A -.3.: O % 5.T.*X;X",
"eX4X-X=Xc X X N ) z k t y h ..].}.9.z k d Z E :.c.3 + $ 7.Q.-X=X",
"eX4X0X0XU X X H ] C D N V ` z.}.,X(.D.1.[ ;.z.m.N.e - u l.|.4X>X",
"eXeXeX4Xp.& o S 1.;.8...n.G.n.{.2X}..X1X{.,X.X(.A.B < ,.8.3X0X|.",
"eXdXeXeXx.M $ ) l.H.H.,X].D.D.{.2X,X}.1X2XuX2X].F.} W z.D.3X0X).",
"dXdXdXrX;XX.r } c.J.,XJ.H.D.J.].,X.X{.H.]..X X`.N.G ;.z.>XeX6XP.",
"fXfXdXrXeX1./ ) i.n.A.C.z.k.X.u.u.X.k.D.9.A.N.b.i.r 8.C.eX0X|.e.",
"dXrXtX5X5XZ.M 9 ..3.2.*.k.i._ G V g ,.J.v.;.<.*.L r m.J.rX5XU.r.",
"tXtX5X+X+X5X..4 N { ' D D f 2 u u 9 H  .v ` =.( r u D.0XrX|.I.P.",
"tXtXwX5X6XwXv.r 5 A A , < j 8 C ~ l E V 0 ] -.B r B Q.fX6XOXe.).",
"tXtXtXpXtXtXeX%., 9 ^ z l M ~ i i ~ X.X.;.;.^ d 4 L 5XqX+XI.P.6X",
"lXfXgXjXtXfXfX=X5 = Z ] :.] ! ! ! X.X.l.m.:.z < 1 %.wXqX_.I._.qX",
"fXlXjXgXjXjXfXfXb % d ' 3.<.] E Q E ] <.9.=.^ = H W.tXwX_.I.<XrX",
"lXjXgXkXjXfXpXiXa.B < ^ -.=.-.( u C *.9.2.=.P & :.6XfX7XU.U.5XtX",
"jXlXjXlXzXjXiX@XOXf., j A H ^ ) m } 4.&.' H * d Y.6XpXXXw._.yXyX",
"lXlXlXlXjXjX9XOX@XiXT $ = 9 < 9 5 9 r r r & & =.K.7XiXoXw.oXiX7X",
"lXlXlXlXlXjX@XOX9XpXa.5 o o o o X o o O # & q 9.K.<X8XU.K.XXaX+X",
"zXzXlXlXlXiX@X@XiX$Xp.H % X . .     X o O & Z q.L.XXXXK.L.7X7X_.",
"zXzXlXlXlX9X@X9Xs.- H ] 0 % # & * * * & = 0 ` q.Y.<XoXw.U.1XXXw."
};
