/* XPM */
static char *_ae13b01651944c4a7f0edd4c08ab09bOatIDa5U2r9QSJS2[] = {
/* columns rows colors chars-per-pixel */
"64 64 256 2 ",
"   c #0E0D0B",
".  c #110F0D",
"X  c #13110E",
"o  c #19140F",
"O  c #151412",
"+  c #191613",
"@  c #1C1916",
"#  c #1E1C19",
"$  c #18171A",
"%  c #0F1111",
"&  c #231B16",
"*  c #221E1A",
"=  c #281D18",
"-  c #24211D",
";  c #2B231C",
":  c #272017",
">  c #33241C",
",  c #37291E",
"<  c #252321",
"1  c #2A2522",
"2  c #2D2925",
"3  c #2C2929",
"4  c #312622",
"5  c #322A24",
"6  c #3B2C24",
"7  c #332D29",
"8  c #392E2A",
"9  c #3C322C",
"0  c #383129",
"q  c #3B3532",
"w  c #3B3834",
"e  c #43342B",
"r  c #48362A",
"t  c #56392B",
"y  c #443A34",
"u  c #4C3B33",
"i  c #453A35",
"p  c #583E32",
"a  c #452E24",
"s  c #69392D",
"d  c #482B1E",
"f  c #4B423C",
"g  c #484239",
"h  c #5B4333",
"j  c #54443C",
"k  c #5B493B",
"l  c #574538",
"z  c #5A4832",
"x  c #644233",
"c  c #634C3C",
"v  c #6B4A3B",
"b  c #684736",
"n  c #75493A",
"m  c #6A513B",
"M  c #78543E",
"N  c #67422F",
"B  c #4B4845",
"V  c #584B43",
"C  c #5B544B",
"Z  c #5C5955",
"A  c #654D42",
"S  c #794C43",
"D  c #695547",
"F  c #735344",
"G  c #745A4B",
"H  c #795947",
"J  c #785D50",
"K  c #655B52",
"L  c #7C634C",
"P  c #68655A",
"I  c #7C6554",
"U  c #757356",
"Y  c #696665",
"T  c #7A7568",
"R  c #7A7975",
"E  c #756C65",
"W  c #5F6155",
"Q  c #8D533E",
"!  c #A44736",
"~  c #855948",
"^  c #875D51",
"/  c #955A53",
"(  c #904E49",
")  c #A7574F",
"_  c #84634C",
"`  c #8C654D",
"'  c #896856",
"]  c #926C54",
"[  c #976957",
"{  c #8D715B",
"}  c #94735B",
"|  c #9C745C",
" . c #987357",
".. c #916E4D",
"X. c #A56E55",
"o. c #8C7565",
"O. c #9D7B63",
"+. c #977968",
"@. c #8D736B",
"#. c #A56961",
"$. c #A27C63",
"%. c #A87A67",
"&. c #B67A68",
"*. c #B37A74",
"=. c #CB7063",
"-. c #A29F34",
";. c #ABA836",
":. c #B2AF39",
">. c #969439",
",. c #929055",
"<. c #B0AF4D",
"1. c #958776",
"2. c #8F8A72",
"3. c #A48165",
"4. c #A4826A",
"5. c #AB846B",
"6. c #AB886A",
"7. c #B4886C",
"8. c #AA8774",
"9. c #B48B73",
"0. c #B78976",
"q. c #B4947C",
"w. c #BC947B",
"e. c #BA9477",
"r. c #AC9577",
"t. c #B2B06F",
"y. c #A09C41",
"u. c #C3987C",
"i. c #D1977F",
"p. c #D3AC7C",
"a. c #F2B86D",
"s. c #C1AA5B",
"d. c #F7C878",
"f. c #F2D577",
"g. c #F4D06D",
"h. c #D4C779",
"j. c #7B7E82",
"k. c #8C8A87",
"l. c #989489",
"z. c #929090",
"x. c #B89885",
"c. c #A19D98",
"v. c #AF9486",
"b. c #A8A59C",
"n. c #B5B08E",
"m. c #9797A1",
"M. c #ACABA6",
"N. c #B1AEA7",
"B. c #B4B3AD",
"V. c #BBB7A9",
"C. c #BBBAB4",
"Z. c #B8B7B4",
"A. c #AAA8B2",
"S. c #C39C83",
"D. c #C99B85",
"F. c #D39984",
"G. c #CA948C",
"H. c #CAA48B",
"J. c #C8A488",
"K. c #D4A88B",
"L. c #CBA894",
"P. c #D4AD94",
"I. c #D7A995",
"U. c #DCB39C",
"Y. c #D8B397",
"T. c #CAB88E",
"R. c #E3B99C",
"E. c #E5AC9A",
"W. c #C9BBA9",
"Q. c #DBB6A2",
"!. c #C3BDB6",
"~. c #C6A9A6",
"^. c #E4BCA3",
"/. c #EBBCAB",
"(. c #E5B8A5",
"). c #E3BFB2",
"_. c #DACF95",
"`. c #F6CC87",
"'. c #F2D588",
"]. c #F6CE99",
"[. c #F4D498",
"{. c #EAD297",
"}. c #C4C2BD",
"|. c #C9C5BA",
" X c #D5CCBC",
".X c #D9D3B6",
"XX c #D2C9A8",
"oX c #ECC4AB",
"OX c #E9C3A8",
"+X c #F3C9AA",
"@X c #ECDBA9",
"#X c #F5D7A7",
"$X c #EBC8B5",
"%X c #F3C5B3",
"&X c #F3CCB3",
"*X c #FACDBA",
"=X c #F7CCB7",
"-X c #EADCB8",
";X c #F4DBB5",
":X c #FAD4BC",
">X c #F4DCBA",
",X c #F6D3B8",
"<X c #F8E8AA",
"1X c #ECE1BC",
"2X c #F6E8B7",
"3X c #BCBCC4",
"4X c #C1BFC6",
"5X c #CCCAC2",
"6X c #C8C6C2",
"7X c #D2CDC4",
"8X c #D6CDC8",
"9X c #D4D2CB",
"0X c #DBD6CD",
"qX c #D9D6C8",
"wX c #DDDBD2",
"eX c #D7D5D5",
"rX c #CECDD7",
"tX c #E3DBC7",
"yX c #FBD4C3",
"uX c #F4DDC2",
"iX c #FCDAC4",
"pX c #FDDDCA",
"aX c #F4D8C5",
"sX c #E3DCD3",
"dX c #E3DED7",
"fX c #FEDED1",
"gX c #EDE2C4",
"hX c #EDE5CC",
"jX c #E6E1C9",
"kX c #F2E2C4",
"lX c #F2E3CC",
"zX c #FDE1CD",
"xX c #F5EBCB",
"cX c #F7EBC3",
"vX c #ECE5D3",
"bX c #EDE9D5",
"nX c #E5E3DB",
"mX c #EAE6DC",
"MX c #EDEADC",
"NX c #E3E1D5",
"BX c #F1E5D3",
"VX c #FEE3D2",
"CX c #F2ECDC",
"ZX c #F3EAD5",
"AX c #E6E5E1",
"SX c #E9E6E1",
"DX c #EDEBE2",
"FX c #EEEDE9",
"GX c #F1EEE4",
"HX c #F1EEE8",
"JX c #F2F0E5",
"KX c #F1F0EB",
"LX c #FDFEFD",
"PX c #F3F3F6",
"IX c #EEECF2",
"UX c #D9D7E1",
/* pixels */
"l.l.l.l.l.z.z.l.k.j.V y 9 7 ; 2 * 7 3 * 1 - 7 < 2 < < w - 2 w 2 f 7 - < 7 7 g 2 - O @ O @ - 3 Y z.R k.IXLXLXLXLXLXLXLXLXLXLXLXLX",
"2.2.2.2.R R R R R 2.K 9 q 7 7 - # # < 7 w w 2 - q @ # - # @ - # 7 < # @ - 1 2 7 - + $ @ @ # - 7 Z j.Y j.dXA.6XUXeXUXrX4XA.m.m.m.",
",.,.,.U U W P P P R K y 7 2 2 1 * * - 1 0 2 # # < # # @ X O @ @ # # O O O - - 2 - o O + @ # 2 7 C Y Z Y 5XN.A.AXIXIXSX4Xz.Y Y Y ",
"y.>.,.U P W W W W P C g 7 0 2 - # - # # - # * $ $ @ $ O % X $ O $ O O O X O @ @ - O + O # - 2 0 i E B Y 7XeXFXLXLXLXLXIXA.R Y Y ",
";.-.>.U U P P D C C y 1 7 2 - - # $ O + + O < 2 2           O O O O X X   O   X + O @ @ - 1 0 # B e f Z !.SXLXLXLXLXLXLXrXk.k.k.",
"-.-.,.,.2.T P W V f y 3 2 0 - # # + O X O + @ = 2 %           X O O X           . X @ - 2 2 7 - 8 < 7 f l.AXLXLXLXLXLXLXrXm.c.c.",
"-.;.<.t.2.U C C f i 2 2 < - @ + + # @ O O O . . # O   O   %   X             X O @ O * 2 5 1 - 2 < + * 0 Y Z.LXLXLXLXLXPX3XM.M.M.",
";.;.t.2.2.W f g 9 7 2 - # - < < $ # * # % .   . X X X O % X   X o + o X o X X @ ; * = 1 < * - - $ $ $ 2 B c.AXLXLXLXLXrXA.M.M.M.",
";.y.<.r.2.y i 0 - 1 1 * @ * 3 < < @ * < $       O X X X . O @ * ; > = & & o = , r 9 5 2 1 - 3 # @ O O # w E eXLXLXLXIXA.N.M.M.M.",
":.;.t.t.2.B y 9 2 * * 3 1 * @ * 7 1 & o $ % . . X @ - = = > a t h h t t t x b m L F t a = & = < O @ % $ w C eXLXLXIX3XB.B.B.M.B.",
":.<.<.n.2.y 0 q 1 # + $ & O O 1 1 * & O O O . $ @ 1 2 6 h H 4.q.8.O.~ Q ..] M ] $.[ 3.' h > * < # O # < w Y C.PXIXeXZ.B.B.B.B.B.",
":.<.t.t.c.C i i 1 # + + O $ O O & @ @ & + = & = > u p ^ 8.Y.$X$X,X$XOXOXH.w.e.6.9.u.u.p.6.G a = # # # < 3 Y Y k.C.}.Z.Z.B.Z.B.Z.",
":.<.t.h.N.l.E u 4 1 * o $ O o   . o o @ * ; 6 , h ~ 4.L.Q.aXaXpXVXpXVXVXaX,XOXY.Y.Y.E.R.p.6.A ; O # - 2 < f i C b.C.B.Z.Z.Z.C.Z.",
":.<.t.n.n.M.l.C 4 4 1 $ + o O . o . o & 6 t r c | u.^.$X,XiXaXpXzXVXzXVXVXzXiX:X,X+X+X+XR.K.[ e - - - - # 7 0 B b.V.M.Z.C.C.C.C.",
":.<.t.t.n.V.k.w < * * & & o & & & o > t b b t | H.^.oX:XuXiXiXiXpXzXzXzXzXpXpXzX:X,X#X+XOXR.u.L 2 ; # 1 - @ g g T b.M.}.C.C.!.!.",
"h.h.t.T.V.B.R 1 * & * o o $ & $ ; r F ] [ ~ d | R.OX$X&X&X:X:X>X:XiXkXiXiXiXaX:X:X;X+X+X+XR.K.| u 0 7 7 f 1 9 g V l.C.}.}.}.}.}.",
"h.t.n.V.XXV.j.w - : # X X O @ = p ` %.9.7.6.` 8.R.R.oX$X+X&X,X:X:X:XkXzXiX:X:X:X,X,X,X&X].OXY.e.D i w q f i 8 f B E V.!.6X!.6X3X",
"XXV.XXV.C.}.n.B ; # @ X   o & h ` $.e.w.w.J.D.Y.R.OXoX+X+X,X:X:XiXiXiXzXiXiX:XiX:X,X,X+XOXOXR.p.J 9 8 7 8 8 8 q i K N.}.6X}.6X}.",
"C.XXC.|.}.}.M.B 2 O O % X o : _ $.5.w.S.H.P.P.R.OXoX$X&X&X,X,XyXiXzXzXzXzXzXVXpX>X:X#X+XR.OXOXK.} 9 4 ; 2 2 5 2 1 K N.6X6X6X6X6X",
"|.|.}.}.}.}.B.W - + O % X + 9  .%.7.0.S.P.U.R.R.+X&X&X,X>XaX:XiXzXzXVXVXVXVXVXVXzXiX,X+X+XR.R.Y.8.e 4 * & * * - 1 Y |.5X6X6X6X6X",
"|.}.}.5X6X6XB.B - - # O + @ r  .3.9.w.J.Y.U.^.oX&X,X:XiXpXpXyXyXiXzXzXVXVXVXVXVXzXiX:X&XOXR.R.Y.u.l 4 - @ * * - 2 R |.5X5X5X5X5X",
"5X5X5X5X5X5XM.w 7 # # % @ # r  .6.9.w.P.U.OXoX+X&X,X:XiXpXpXiXyXiXiXpXaXpXfXaXaX>X:X>X&XOXR.Y.Y.D.l 4 # @ - - - - 2.9X5X7X9X7X7X",
".X}.5X5X5X5XM.w < O O @ @ # r  .$.7.w.P.Q.(.OXoX$X$X&X$X&X,X*X:XaX,XoX/.Q.L.n.8.1.1.v.x.q.S.Y.P.J.v 4 * @ & # * y n.|.7X7X9X9X9X",
".X9X5X9X9X9XB.B # O O + + # r  .3.7.J.P.L.L.n.L.Y.Q.Q.^./.)./.%X$XoXL.x.+.V i 9 e y f V K ' 8.Y.u.m 4 - # @ * # g V..X7X9X9X9X9X",
"9X9XqX9X8X0X8XR < O O % + # 9  .| { L K V i y y l K ' v.H.I.U.Q.Q.U.x.{ b t t r p v v k k k D q.K.F ; - # O - # z _._..XqX9X9XwX",
"qXqXwXwXtX0XeXc.< # O . O @ 6 ..} A j f y e 8 e e t p _ 4.D.P.Y.Q.I.8.` H n x s N n H H G G I +.P.L 2 - # O - < z t._..XqX9X9XeX",
"wXwXwXwX0X0XsX!.7 < O   O @ 6 ..D j V k A G A b N b S H [ 0.P.R./.Q.9.[ Q s s N S ~ n v _ ..} +.J.3.0 - - O # 2 m h._..XqX9XwXwX",
"NXNXwXwXsXsXsXsXY - # O O @ a ..k D G L ~ n N s t s b ] | e.^.:XiXoXw.` N N N n ' v.x.[ N ~ O.q.L.r.e 2 # O @ - U h._.@XqXwXwXwX",
"NXnXwXNXwXwXtXsXj.< @ X + + r ' G ' ` M b ' D p s p N n  .7./.:XiX&Xu.~ N x h e 3 < 5 p H Q ] u.L.J.g - @ O O - ,._._..XqXwXwXwX",
"NXNXNXNXsXsXsXtXz.# O O % + r { { } M v A 6 < < 4 l t S [ 7./.:X:X&XU.F.| m F G A D ' { ~ ..%.u.P.x.j - # * @ 4 2._.@X.XjXwXwXqX",
"AXwXNXNXsXsXsXsXM.3 O X % O e | O.[ F x r u 9 9 p x x ` 7.F.(.*XiX,XoXoXR.D.0.*.5.7.7.e.e.u.p.K.Y.L.D < * < - x e._.-XjXwXNXwXjX",
"NXAXnXNXNXsXsXsX5XB $ O X O 9 3.5. .~ ~ ' ] [ [ ^ ~ ] 0.K.K./.:XzX:X+X%X%X(.L.7.X.X.X.&.K.R.R.Y.OXY.I ; * 1 4 ~ ( _..XjXwXwXjXqX",
"nXdXnXdXBXdXsXsXsXk.4 $ O X 5 4.5.%.X.| X.X./ / X.x.E./.E.G./.yXVXpX%X&X=XiXiXyX).(./.=X*X&X+XR.OXU.3.- ; 7 l &.! K.tXjXNXwXjXtX",
"nXmXnXdXdXdXmXdXeX#.u = + O a 5.7.w.w.u.0.7.i.I.(.%X=X/.I.I./.yXVXyX*X%X+XiXpXpXpXyXyXpXyXyX,XoXR.U.x.g ; e 5.I.) P.jXdXdXNXjX-X",
"AXAXAXmXSXAXdXdXsX) t t * + r 8.u.J.Y.R.OX+X*X*X*X*X/./.E.E./.yXVXpXyX=X*X:XpXpXfXVXVXfXpXyX:X&XOXQ.Y.J k [ K.(.=.$XsXdXNXNX-X@X",
"AXAXAXSXdXAXAXAXAX*.Q J - * k 0.w.K.R.%X%X+X*XyX*X/.).E.Q.(./.yXfXpXyXyX*X*XyXyXyXfXfXfXpXpX:X&XOXQ.n.I ~ ! &.I.i.$XdXnXNXjX1X_.",
"AXSXnXAXAXAXAXAXAX~.) } 1 4 G 8.w.P.OXoX%X%XyXyX%X/./.E.(.(.).yXaXyXyXyX*X%X%X=X*XyXyXyXiXyX>X&XOXL.r.A 8.) =.F.U.NXnXnXNXtX@X'.",
"SXSXSXSXSXSXmXAXSXeX#.[ s A ^ v.q.P.Q.$X=X%X/.%X/.(.I.Q./.).)./.yXyXyXyX:X%X(.E.(.%X*X*X=X&X$X$XQ.L.o.l u.7.i.E..XnXnXnXjX1X@Xf.",
"SXSXAXSXSXSXmXmXSXSXv.#.^ G K x.q.J.L.Q.)./././.E.L.G.G.G.L.I.~.G.Q.I.H.D.P.(.K.F.I.^././.Q.Q.Q.L.q.G 9 4.F.E.E.tXmXAXNXjX1X'.g.",
"FXSXSXSXSXmXmXBXSXDXW.*.[ ^ V +.r.x.L.Y.U.U.U.I.D.D.D.*.^ ^ *.%.%.*.^ n ~ I./.(.u.7.L.U.Y.P.H.H.L.1.k 9 +.K.(.F.nXAXMXNX1X@Xf.g.",
"AXDXAXSXMXnXbXhXnXvXsXx./ H i l 1.9.w.J.J.D.S.0.*.I.L.x.*.@./ ^ H S F J %.I.$X$X).w.&.w.u.e.9.r.v.' e u w./.F.oXmXmXmXsX>X[.f.g.",
"DXDXMXmXMXvXhXjXuXhXvXx./ s i 1 L 4.8.e.q.w.%.[ 0.G.H.+.' D j ^ ^ c e p J v.~.Q.~.U.5.3.7.3.3.3.o.V 8 l E.E.E.dXmXmXmXgX@X'.g.f.",
"DXMXMXMXbXhX1X1X1XkXbX X#.{ A - u } O.3.5.$._ ' +.@.@.V i 4 4 A S e 8 a p o.v.+.' I 4. .6.3. .{ G i 4 G /./.$XSXSXmXvX-X@Xf.g.'.",
"MXmXMXbXbXxX1X2X2X1XhXbX8.%.D < 4 L { $.3.H v D A j x e 4 = a n J t 6 u A @.*.J p e H ] 9.3.} L k 9 8 c I.U.sXDXSXvXuX-X'.g.f.<X",
"MXbXbXMXbXbXgXgX1XcXlXMXW.0.J < ; k L  .} h u 9 4 a j u 4 > x ^ / ~ s S n ^ *.J i 6 N 3.u.3.' G l 6 0 k q. XCXmXMXhX1X@X'.f.'.@X",
"MXMXMXMXbXbXbXxXlXlXvXbXsXv.' < : 9 z L O.b , : = u v n s t S ( ( n s ( ^ / S p t p M e.r...L c l 6 y 1.hXbXmXDXbXgX<X[.f.f.@X1X",
"MXMXMXMXMXMXbXbXbXbXBXBXmX!.o.0 - 0 9 z } O.h r u d s A S S ( ( ~ s S n n ( ^ A ' ~ [ e.3.L m k l 6 e 2.jXxXbXbXjX1X@Xf.g.'.@XjX",
"MXJXCXDXGXDXGXDXmXCXCXMXDXDXMXR w ; > e c ....Q ^ ^ S ( ( S s s s s s #.*.*.*.G.D.u.7.e...G z y r 1 V 2.jXhXbXbX1X<X'.f.f.@X1XbX",
"GXMXGXGXFXDXDXGXDXMXMXDXCXDXSX!.B # 1 g z _  .X.$.3.| / [ #./ ( ( ) &.G.*.&.0.D.Y.K.u.6._ m r 6 4 0 V l.hXBXBXbX1X#X'.f.'.-XtXbX",
"MXJXGXDXFXFXHXDXDXGXDXCXGXDXFX9XW - # 2 m L  .$.9.e.9.| ^ / ( / ) / ) #.#.&.0.K.Y.T.p.3...m e > > e U n.sXbXbXlX2X#X`.f.[.uXvXbX",
"GXDXFXDXFXFXFXDXGXHXDXGXGXDXDXdXk.2 @ # z z ..3.w.w.x.7.%.#.[ [ #.#.#.[ #.%.9.S.J.p.e.3...L r ; 6 U v.7XGXCXBXvX2X[.f.'.;XtXvXDX",
"DXJXFXFXFXHXHXFXGXDXDXGXDXGXDXmX2.g < @ 6 z ..3.6.9.9.9.$.` ~ S S D M m ^ } 6.7.e.w.6.3.} M u - , q.W.vXMXCXmXlX@X[.`.[.;XpXmXDX",
"JXDXDXKXFXHXHXHXGXGXGXGXGXJXMXhXXXW D 0 , r _  .3.6.6.6.6.| ^ F u t x H ~ $.5.7.e.e.6.3.| m , @ z J.$XmXMXDXmXkX;X`.`.[.;XBXmXCX",
"GXJXGXJXJXHXGXKXFXFXMXGXMXGXZXxX2Xn.t.B : 6 M ....3.6.6.6.4.O.{ A a b [ 5.w.J.K.J.e.3.6.' k @ 2 .._.>XBXDXCXbXgX#Xf.`.#X1XmXbXCX",
"GXGXGXFXGXHXGXJXFXJXGXGXGXbXxX2X@X@XXXT 2 > m _ ..} 3.{ O.4.8.o.A A o.v.P.H.L.x.q.3.3. .k 1 @ r s.].&XBXGXCXlXuX].d.`.;XuXMXMXBX",
"HXJXJXGXGXGXGXFXJXJXGXJXZXZX2X<X<X<X-XXXB @ a k c m D D A J I J j D J +.1.2.{ o.{ L M z = & 6 ] a.].>XvXCXCXpX;X'.d.[.>XlXmXCXBX",
"JXJXJXJXJXCXJXJXJXKXJXJXZXxX2X<X<X2XxXbXc.2 & > 0 r r k e e k g u u u A A D l A z c u ; + : b s.a.].>XBXMXBXaX#X`.d.[.>XlXCXBXBX",
"JXJXJXJXJXJXJXJXJXKXJXJXZXcX<X<X<XcXxXJX9Xk - # : : ; 9 0 ; 6 5 4 - 1 5 7 9 5 q 6 9 ; - # 0 ..R.a.].;XBXZXBXuX#Xd.d.#XuXbXCXBXuX",
"KXJXJXJXCXJXJXJXJXJXFXCXxX2X<X<X2XxXZXJXqX{ 0 : + @ # @ - - - O O $ + * @ & * @ : - : - : r } K.a.[.>XuXVXpX>X].d.`.;XlXBXCXlX>X",
"KXKXJXJXJXCXZXJXJXJXJXCXcX<X<X<X2XxXCXJXNX8.V 4 # O O O X O X X . % O O O + + + + @ - > , z 4.p.a.].;XlXvXuX#X`.d.`.;XlXmXBXzX;X",
"KXKXKXKXJXJXJXJXJXJXJXZXcX<X<X2XxXZXCXJXeX8.{ h ; @ o O X O           . O . O + @ : ; > e ` u.i.a.].>XzXgX>X#X`.d.].;XBXBXlX>X#X",
"KXKXKXKXJXJXJXJXJXJXJXxX2X2X2XcXxXJXnXz.W r.3.D 0 : @ o o + O + o o o o O + + X @ : : ; r ] e.a.a.].>X2XpX;X].a.d.#X>XBXBXkX#X`.",
"KXKXKXKXJXJXJXJXJXZXJXcX2X<X2XxXMXAXj.$ w v.4.G l ; @ @ + o = : = = : = : & & = : : , e c } w.p.a.#X:XcXiX;X`.g.d.].1XzXcX:X#Xd.",
"KXKXKXKXJXJXJXJXJXJXZXcX2X2XcXxXwXB %   1 0.9.O.H r : : & : : > > , , , > , > > 6 6 e z ' 4.S.p.a.+X>XuXyX*X`.a.`.#X>XiX>X,X`.g."
};
