/* XPM */
static char *_7774913f07c44f5dac759c7abfdd690rIvNusrzhcZGGQag[] = {
/* columns rows colors chars-per-pixel */
"32 32 176 2 ",
"   c #3F4035",
".  c #444532",
"X  c #484633",
"o  c #494836",
"O  c #45463A",
"+  c #49473B",
"@  c #46483A",
"#  c #494B3C",
"$  c #4B4B42",
"%  c #4F4F4E",
"&  c #464444",
"*  c #4F5043",
"=  c #525345",
"-  c #55554A",
";  c #57594A",
":  c #5A5C4D",
">  c #5B5C54",
",  c #5F6052",
"<  c #666741",
"1  c #6A6641",
"2  c #6D6A4F",
"3  c #716E48",
"4  c #7D7B4D",
"5  c #646555",
"6  c #676852",
"7  c #6C6C56",
"8  c #66675B",
"9  c #67685D",
"0  c #6C6D5D",
"q  c #706F5F",
"w  c #6F705E",
"e  c #727155",
"r  c #797753",
"t  c #71705E",
"y  c #797659",
"u  c #7B7A5C",
"i  c #666560",
"p  c #6E6E61",
"a  c #716F61",
"s  c #6F7060",
"d  c #717162",
"f  c #7B7B60",
"g  c #74766B",
"h  c #7A7A6E",
"j  c #767772",
"k  c #7C7D73",
"l  c #7D7F78",
"z  c #85804C",
"x  c #858352",
"c  c #928D59",
"v  c #939158",
"b  c #A4A057",
"n  c #A4A05B",
"m  c #868463",
"M  c #888763",
"N  c #8C8C6B",
"B  c #908F6B",
"V  c #939263",
"C  c #94936D",
"Z  c #9A956A",
"A  c #99986D",
"S  c #838477",
"D  c #85857A",
"F  c #88887E",
"G  c #969472",
"H  c #9A9776",
"J  c #9C9C74",
"K  c #9F9E78",
"L  c #A19F7B",
"P  c #A8A264",
"I  c #A0A077",
"U  c #AAA774",
"Y  c #A6A67C",
"T  c #A9A77C",
"R  c #ACAA7D",
"E  c #B1AD7F",
"W  c #BCB976",
"Q  c #B5B17F",
"!  c #B4B273",
"~  c #878780",
"^  c #8B8C83",
"/  c #8F8F8B",
"(  c #8F9185",
")  c #909085",
"_  c #94948C",
"`  c #959491",
"'  c #9B9C93",
"]  c #9FA094",
"[  c #AEAD82",
"{  c #B5B485",
"}  c #B6B38A",
"|  c #B8B78A",
" . c #BEBB8B",
".. c #A4A49C",
"X. c #A6A89F",
"o. c #BFBE91",
"O. c #A3A3A0",
"+. c #ABACA5",
"@. c #AEB0A6",
"#. c #B5B6AD",
"$. c #B5B4B0",
"%. c #BABBB4",
"&. c #BEBEBC",
"*. c #C1BD8B",
"=. c #C2BE97",
"-. c #BFC0B8",
";. c #C4C181",
":. c #C2C28C",
">. c #CCC888",
",. c #C6C493",
"<. c #C8C691",
"1. c #CCCB94",
"2. c #C9C898",
"3. c #D3CF93",
"4. c #D2CF9E",
"5. c #D5D39C",
"6. c #D8D49D",
"7. c #DDDA9E",
"8. c #E0DC9F",
"9. c #DFDAA0",
"0. c #C2C2BD",
"q. c #E0DAA1",
"w. c #C6C6C5",
"e. c #CBCBC6",
"r. c #CCCCCA",
"t. c #CED0CC",
"y. c #D0D1CD",
"u. c #D1D1D0",
"i. c #D9DAD5",
"p. c #DCDCDB",
"a. c #E1E1DE",
"s. c #DFDFE1",
"d. c #E4E4E3",
"f. c #E7E8E6",
"g. c #E9E9E5",
"h. c #E6E7E8",
"j. c #E7E8E9",
"k. c gray91",
"l. c #E9E9E9",
"z. c gray92",
"x. c #EAEAEA",
"c. c #EAEAE8",
"v. c #EDEDE9",
"b. c #ECECEC",
"n. c gray93",
"m. c #EEEEEE",
"M. c #EEEEEB",
"N. c #F1F1EF",
"B. c #F1F1F1",
"V. c #F3F3F3",
"C. c #F2F2F2",
"Z. c #F3F3F1",
"A. c #F5F5F2",
"S. c #F3F3F4",
"D. c gray96",
"F. c #F4F4F5",
"G. c #F6F6F5",
"H. c #F6F6F6",
"J. c gray97",
"K. c #F7F7F7",
"L. c #F5F7F4",
"P. c #F4F4F3",
"I. c #F9F9F7",
"U. c #F9FAF5",
"Y. c #F9F9F7",
"T. c #F8F8F8",
"R. c #F9F9F9",
"E. c #F8F9F9",
"W. c #FBFAFB",
"Q. c #FBFBF9",
"!. c #FCFCFB",
"~. c #FDFDFB",
"^. c #FDFDFD",
"/. c #FCFCFC",
"(. c #FEFEFD",
"). c #FCFCFB",
/* pixels */
"T.T.T.T.T.T.T.T.T.T.T.T.T.T.T.T.T.T.T.T.T.T.T.T.T.T.T.T.T.T.T.T.",
"T.T.T.T.T.T.T.T.T.T.J.T.T.T.T.T.T.T.T.T.T.T.T.T.T.T.T.T.T.T.T.T.",
"T.T.T.T.T.T.T.T.D.D.V.D.J.T.T.T.T.T.T.T.J.D.n.n.A.J.T.T.T.T.T.T.",
"T.T.T.T.T.T.T.n.n.A.D.A.l.S.T.T.T.T.T.J.l.V.J.J.C.z.T.T.T.T.T.T.",
"T.T.T.T.T.T.V.n.T.e.X.v.Q.l.T.T.T.T.D.V.n.^.#.+.Q.z.D.T.T.T.T.T.",
"T.T.T.T.T.T.l.T.h.- 8 ^ ^.z.C.T.T.T.D.h.!.y.= 9 f.D.n.T.T.T.T.T.",
"T.T.T.T.T.D.h.^._ $ t s c.J.v.J.T.T.n.V.Q.p 5 0 %.Q.l.T.T.T.T.T.",
"T.T.T.T.T.D.l.^.j ; t s -.Q.f.J.T.J.c.^.e.; p p #.^.l.T.T.T.T.T.",
"T.T.T.T.E.C.n.T.> - w w @.^.a.h.h.h.h.^.F , s p t.!.z.I.T.T.T.T.",
"T.T.T.T.J.F.b.Q.g = 0 s %.^.^.^./.^.Q.^.k - s d N.N.m.T.T.T.T.T.",
"T.T.T.T.E.J.d./.0.$ 5 a _ +.' _ ( ( ' @.9 ; d a.Q.c.D.T.T.T.T.T.",
"T.T.T.T.J.B.h./.Z.9 $ 8 w s w s d 0 t t w 0 d d.Q.d.D.T.T.T.T.T.",
"D.I.D.D.V.c.Q.p.p = 6 0 d 0 d w w s d d a q q ` W.T.h.n.l.h.v.D.",
"V.V.V.n.z.Q.p.> - k ..S 0 d d w s s t d q ] ] 0 X.Q.D.T.^.^.J.n.",
"d.w.u.d.T.Q.g # 9 i.% #.g w 8 - $ = 0 t _ & r.D p p.r.w.t.v.^.d.",
"D.I.V.p.r.l O @ 0 ' +.' d s t 5 $ , s t h e.e.d , k c.J.A.A.I.^.",
"p.y.w.w.' O O = s s s s p p g h F S h 0 0 p s w 5 : ..r.t.i.d.Q.",
"^.I.v.h.^ O O : l #.$.a.-.L./.d.^.^.a.J.t.r.#.( w 5 d r.r.&.r.^.",
"h.p.p.%.$ O O $ 5 g ` c.e././.s.I.^.d.T.v...h p s w w D n./.W.T.",
"^./.O.$ O O O * 7 w s s j ~ ' _ X.+._ ^ g 0 a t d s t d k v./.s.",
"T.' & + @ @ @ 5 s w 7 7 w m C I C J Y J u 0 0 w w q d a q ..I.A.",
"_ O + O @ @ - 7 M [ o.9.7.7.7.6.7.7.7.7.7.5.:.N 0 a q t d 0 #.Q.",
"= @ @ O @ # H ,.4.9.6.7.7.2.f 7 m <.7.7.7. .M o.=.e 0 t 8 w 0 p.",
"O O O O o V 1.N 7 r R 9.7.U } <. .U 9.7.<.C Y C Z 5.C w 5 w 0 ^ ",
"+ O O X z Q u { 5.5.5.7.9.7.7.7.6.5.:.9.6.7.8.7.5.7.5.I 6 7 w p ",
"O O . 2 P 1.5.7.9.9.5.C u C 4.7.A 2 y r E 7.8.5.R  .7.9.[ 5 w s ",
"+   X v ! x e G 6.7.V [ | { 3.7.*.6.7.9.7.7.4.Z L e R 9.9.u s d ",
"+ O 1 n B I :.:.7.7.9.8.7.7.7.9.9.7.7.9.7.7.8.7.q.4. .7.9.N a t ",
"# . v n 3.7.7.7.7.8.q.q.9.9.9.9.9.9.9.7.8.8.9.q.8.7.7.7.9.J p t ",
"@ < n n >.9.7.8.q.9.7.q.q.q.9.9.9.9.9.q.7.q.9.9.q.8.q.q.9.Y p w ",
"O 4 b n ;.8.8.8.8.9.q.7.7.q.q.8.7.q.8.9.9.9.9.8.7.q.9.9.9.R p t ",
"+ x b n W 7.q.7.q.7.q.q.7.q.7.q.q.7.q.9.8.9.9.q.7.q.q.9.9.T 0 w "
};
