/* XPM */
static char *_b3a556be9014d4dd54ab8cca5561368PvbypQNE68p70Oew[] = {
/* columns rows colors chars-per-pixel */
"64 64 214 2 ",
"   c #0D0C0B",
".  c #33332D",
"X  c #3E3E2F",
"o  c #3B3C32",
"O  c #3A3B37",
"+  c #413F30",
"@  c #413E2C",
"#  c #3E4135",
"$  c #3F4138",
"%  c #49482B",
"&  c #434536",
"*  c #464835",
"=  c #45463B",
"-  c #49473B",
";  c #46483B",
":  c #494A3D",
">  c #4B4833",
",  c #575537",
"<  c #514D35",
"1  c #635F3B",
"2  c #64633B",
"3  c #666339",
"4  c #464741",
"5  c #4C4C42",
"6  c #494744",
"7  c #4F5142",
"8  c #515243",
"9  c #55554A",
"0  c #5B5C4D",
"q  c #565849",
"w  c #5C5D52",
"e  c #5A5B56",
"r  c #5F614E",
"t  c #5F6052",
"y  c #656344",
"u  c #6B6A43",
"i  c #64644B",
"p  c #69664A",
"a  c #6B6B4C",
"s  c #686749",
"d  c #706E4E",
"f  c #646555",
"g  c #6C6B54",
"h  c #646559",
"j  c #67685C",
"k  c #6C6D5D",
"l  c #686851",
"z  c #716F54",
"x  c #706F5E",
"c  c #6F705E",
"v  c #757454",
"b  c #7A7A56",
"n  c #71715E",
"m  c #7D7C5C",
"M  c #797653",
"N  c #797549",
"B  c #6D6E61",
"V  c #696A66",
"C  c #716F61",
"Z  c #6F7061",
"A  c #717162",
"S  c #74756B",
"D  c #76796D",
"F  c #7A7A6D",
"G  c #7B7C71",
"H  c #7D7D79",
"J  c #727070",
"K  c #817E5A",
"L  c #807E56",
"P  c #837F64",
"I  c #7F8179",
"U  c #83815D",
"Y  c #888756",
"T  c #928E5A",
"R  c #95935D",
"E  c #9D9B5F",
"W  c #A39F5B",
"Q  c #A29F54",
"!  c #A4A156",
"~  c #A3A15B",
"^  c #868562",
"/  c #8B8A63",
"(  c #8D8A68",
")  c #95946C",
"_  c #9B996D",
"`  c #999864",
"'  c #838477",
"]  c #83847B",
"[  c #89897B",
"{  c #999974",
"}  c #9A9A76",
"|  c #8D906D",
" . c #A49F64",
".. c #A39E6F",
"X. c #A19E73",
"o. c #A9A462",
"O. c #AAA665",
"+. c #A4A273",
"@. c #A3A17B",
"#. c #ACA979",
"$. c #B1AE77",
"%. c #B8B57C",
"&. c #C3BE7A",
"*. c #868683",
"=. c #8B8C84",
"-. c #8D8D8A",
";. c #878882",
":. c #8F9188",
">. c #8F9185",
",. c #93948D",
"<. c #999A8E",
"1. c #959592",
"2. c #9C9C95",
"3. c #9B9A9A",
"4. c #A09F9C",
"5. c #9FA09B",
"6. c #ACAA83",
"7. c #A8A781",
"8. c #B0AF85",
"9. c #AFB084",
"0. c #B6B485",
"q. c #B5B48A",
"w. c #BDBB8B",
"e. c #BAB785",
"r. c #A3A39D",
"t. c #BEBC91",
"y. c #B6B590",
"u. c #A5A5A3",
"i. c #ACACA5",
"p. c #AEAEAB",
"a. c #A7A9A2",
"s. c #B1AFAD",
"d. c #B3B3AD",
"f. c #B4B5AA",
"g. c #B4B4B1",
"h. c #B9BAB4",
"j. c #BDBDBA",
"k. c #C2BF8E",
"l. c #C1BF94",
"z. c #C0BFB9",
"x. c #BEC191",
"c. c #BFC1B6",
"v. c #C6C48A",
"b. c #D1CD8F",
"n. c #C4C393",
"m. c #C9C695",
"M. c #CCCA94",
"N. c #C9C69B",
"B. c #CCCB9A",
"V. c #C6C49A",
"C. c #D1CE9B",
"Z. c #D1CF96",
"A. c #CED09E",
"S. c #DCDA97",
"D. c #D6D59C",
"F. c #DAD69D",
"G. c #DDDA9D",
"H. c #D7D395",
"J. c #D7D18C",
"K. c #E0DB9E",
"L. c #D5D3A3",
"P. c #D9D6A3",
"I. c #DEDAA1",
"U. c #DDDCA8",
"Y. c #DAD6AB",
"T. c #C3C3BD",
"R. c #D2CDA2",
"E. c #E0DAA2",
"W. c #E0DCA9",
"Q. c #C4C4C3",
"!. c #CACBC5",
"~. c #CECECA",
"^. c #C8C8C3",
"/. c #D2D2CD",
"(. c #CFD0D1",
"). c #D4D4D3",
"_. c #D9D7D3",
"`. c #DADBD6",
"'. c #DDDEDD",
"]. c #D6D7D6",
"[. c #DFE0DB",
"{. c #E1E2DE",
"}. c #DEDFE1",
"|. c #DFE0E2",
" X c #E3E3E3",
".X c #E7E8E4",
"XX c #EAEBE5",
"oX c #EEEEED",
"OX c #EAEAEA",
"+X c #E7E6E6",
"@X c #F2F2EE",
"#X c #F2F2EE",
"$X c #EFEFF0",
"%X c #F1F1F1",
"&X c #F5F5F2",
"*X c #F4F4F4",
"=X c #F6F6F6",
"-X c gray97",
";X c #F6F6F5",
":X c #F5F5F4",
">X c #F9F9F6",
",X c #F9FAF6",
"<X c #F7F7F8",
"1X c #F8F8F8",
"2X c #F9F9F9",
"3X c #F9F9F8",
"4X c #FBFBFA",
"5X c #FAFAF9",
"6X c #FDFDFB",
"7X c #FDFDFA",
"8X c #FDFDFD",
"9X c #FDFDFC",
"0X c #FEFEFD",
"qX c #FBFBFB",
/* pixels */
"1X1X1X1X1X1X1X1X1X1X1X1X1X1X1X1X1X1X1X1X1X1X1X1X1X1X1X1X1X1X1X1X1X1X1X1X1X1X1X1X1X1X1X1X1X1X1X1X1X1X1X1X1X1X1X1X1X1X1X1X1X1X1X1X",
"1X1X1X1X1X1X1X1X1X1X1X1X1X1X1X1X1X1X1X1X1X1X1X1X1X1X1X1X1X1X1X1X1X1X1X1X1X1X1X1X1X1X1X1X1X1X1X1X1X1X1X1X1X1X1X1X1X1X1X1X1X1X1X1X",
"1X1X1X1X1X1X1X1X1X1X1X1X1X1X1X1X1X1X1X<X1X1X1X1X1X1X1X1X1X1X1X1X1X1X1X1X1X1X1X1X1X5X1X1X1X1X1X1X1X1X1X1X1X1X1X1X1X1X1X1X1X1X1X1X",
"1X1X1X1X1X1X1X1X1X1X1X1X1X1X1X1X1X1X1X<X<X<X;X1X1X1X1X1X1X1X1X1X1X1X1X1X1X1X1X1X1X1X1X1X1X1X9X1X;X<X<X1X1X1X1X1X1X1X1X1X1X1X1X1X",
"1X1X1X1X1X1X1X1X1X1X1X1X1X1X1X1X<X<X<X<X<X<X<X<X1X1X1X1X1X1X1X1X1X1X1X1X1X1X1X1X1X1X1X<X<X<X<X;X1X1X-X-X;X1X1X1X1X1X1X1X1X1X1X1X",
"1X1X1X1X1X1X1X1X1X1X1X1X1X1X1X-X<X*X%X%XoX%X%X*X;X<X1X<X1X1X1X1X1X1X1X1X1X1X1X1X;X-X-X%XOX+XOX.XoX%X-X-X1X1X1X1X1X1X1X1X1X1X1X1X",
"1X1X1X1X1X1X1X1X1X1X1X1X1X-X1X%X+X X+X X+X+X+X X+XoX-X;X1X1X1X1X1X1X1X1X1X1X9X<X;X%X+X+XOXoX$XoXXX XOX-X<X1X1X1X1X1X1X1X1X1X1X1X",
"1X1X1X1X1X1X1X1X1X1X1X1X1X<X%X XOX9X0X0X0X0X6X9X*X|.+X-X1X1X1X1X1X1X1X1X1X1X<X-X$X|.oX0X0X6X6X9X0X1X{.OX;X1X1X1X1X1X1X1X1X1X1X1X",
"1X1X1X1X1X1X1X1X1X1X1X1X1X-X+X+X6X6X6X,X;X,X6X0X9X<X|.oX1X<X1X1X1X1X1X1X1X1X-X-X XOX4X0X5X%X[.5X1X0XoX X%X1X1X1X1X1X1X1X1X1X1X1X",
"1X1X1X1X1X1X1X1X1X1X1X1X-XoX'.1X5X,X#XG f G h.4X1X9XoX+X;X5X1X1X1X1X1X1X1X<X1X+X X0X0X1X).t ; 5.1X0X1X+XOX1X1X1X1X1X1X1X1X1X1X1X",
"1X1X1X1X1X1X1X1X1X1X1X1X*X XOX0X6X,X;.4 t Z B h.0X0X<X'.%X;X1X1X1X1X1X1X1X-X$X}.;X0X0X$XZ ; 9 h XX0X0XoX X-X<X1X1X1X1X1X1X1X1X1X",
"1X1X1X1X1X1X1X1X1X1X1X1X$X X4X0X6Xj.5 : j k k :.5X0X9X|.oX;X1X1X1X1X1X1X>X%X+XOX0X6X6X=.= 7 k B f.>X0X%X'.%X-X<X1X1X1X1X1X1X1X1X",
"1X1X1X1X1X1X1X1X1X<X-X-XOX+X0X0X*Xe 5 7 j A A A XX6X0X%X X-X;X1X1X1X1X1X1XoX'.1X0X0X~.= 7 j k k G %X0X1X XoX-X<X1X1X1X1X1X1X1X1X",
"1X1X1X1X1X1X1X1X1X-X<X-X X+X0X0X+X6 ; 0 n A A k f.6X0X1X[.%X<X<X1X1X1X1X;X.X+X0X0X5XH 5 l c Z B C OX6X0X XoX-X<X1X4X1X1X1X1X1X1X",
"1X1X1X1X1X1X1X1X1X1X<X-X}.oX0X0X).4 - f x n A B ' 7X6X5X XXX<X<X1X1X1X1X-X{.*X0X6X/.9 0 k c Z Z j .X0XqX XoX1X1X1X1X1X1X1X1X1X1X",
"1X1X1X1X1X1X1X1X1X1X<X*X'.$X4X0Xg.= : f n n A Z B XX6X6X.X.X*X=X1X<X<X;XoX{.1X0X1X=.; f c c Z k C {.0XqX XoX1X1X1X4X1X1X1X1X1X1X",
"1X1X1X1X1X1X1X1X1X<X;X%X X-X0X>X,.= ; w k n C A Z `.9X0XXX X%X*X*X*X*X*X X X0X0X%Xt : j Z c c B ] #X6XqX XoX-X<X1X1X1X1X1X1X1X1X",
"1X1X1X1X1X1X1X1X1X1X;X%X'.-X0X-XS = ; 0 c n n Z B `.9X9X+X].}.}.}.}.}.}.].oX0X0XQ.: : k Z Z c B 2.-X6X-X X$X-X<X1X1X1X1X1X1X1X1X",
"1X1X1X1X1X1X1X1X1X<X<X%X|.;X0X;X:.; ; w x n k A S *X0X9X9X<X9X9X4X4XqXqX9X9X0X0X1.= ; t Z c Z k /.qX0XoX'.*X1X1X1X1X1X1X1X1X1X1X",
"1X1X1X1X1X1X1X1X1X;X<X*X'.%X0X0X(.= = 9 k A A k Z {.9X0X0X0X9X0X9XqX0X9X9X9X6X5X).e ; t k Z Z G #X6X6XOX+X1X1X1X1X1X1X1X1X1X1X1X",
"1X1X1X1X1X1X1X1X1X;X5X;X|.+X9X9X&X*.4 = w C x B D .X>XoXXX`.~.!.T.c.c.~._.XX&X,X5.; 4 j n B :.{.7X6X>X XOX-X1X1X1X1X1X1X1X1X1X1X",
"1X1X1X1X1X1X1X1X1X1X1X<XoX|.9X9X7Xi.9 = 8 k C k t >.] S Z Z c B B B j V B Z D ' D q : r j G XX6X6X6X+X X-X-X1X1X1X1X1X1X1X1X1X1X",
"1X1X1X1X1X1X1X1X1X1X<X<X X].=X9X6X#X^.- = w B k c Z Z Z Z c Z c Z Z c c c c c k A B k g f k ,.&X0XqX`.+X*X-X-X1X1X1X1X1X1X1X1X1X",
"1X1X1X1X1X1X1X1X<X;X;X+X X<X9X9XqXOXJ 4 - - 0 k Z Z Z Z Z Z A Z Z Z c Z n n n n n x n c x F .X,X0X6X X X*X-X-X1X1X-X1X1X-X1X1X1X",
"1X-X-X1X-X-X-X-X>X&X+X X5X9X9X5X`.] e = : l c c A A Z Z A Z A A A Z A A c A A A C x C n x x S oX9X9X9X+X}.*X<X*X-X*X%X*X*X<X-X<X",
"-X*X%X-X*X*X-X-X-XOX{.&X9XqX5Xu.4 - - 0 k c c c Z c c A A c c Z Z c Z Z Z A A A C C C x x x B -.*X9X9XqX X'.+X X X'.'. X X+X*X<X",
" X X X|. X|.|.|. X_.*X6XqX,X^.4 = 8 w k k j k k c A Z Z Z A Z A A Z Z Z A n C A C C V j x k x k 4.@XqX0X<X+X$X<X9X1X9X9X1XOX X-X",
"0XqXqXqX0XqX1X-X-X-X6X6X5Xa.5 ; : j k 2.T.~.d.I k k A A A A Z A Z c Z n n n A A C f 4.)._.f.j x j 4.>X0X0X0X0X4X0X0X0X0X0X<X|.%X",
"9X0X0X0X0X0X0X0X1X0X9X5X.Xj ; : i B <.,XT.V p.[.S Z n c k Z j l k i 0 f x x n C k <.s.6 p.&X[ k x h [.qX0X9X4X<X/.d.d.oX0XqX{.OX",
" XQ.u.4.p.h.!.'.%X1X9X,XI ; ; : j k h.&X9   O XX[ k A k k r q o . o o 5 f x C A k z.e   J &XT.V C B r.#X!.3.3.p.~. X,X6X6X6X+X'.",
"0X<X0X>XoX_.j.4.-.;.,.=.$ ; ; : w B >.oX).1._.T.V A Z Z A Z j 5 .   . 9 Z Z n A C r._.d.#X;X,.C k f j ;.h.-X0X1X>X7X6X,X6X1X0X9X",
"-X*X-X>X1XqX0X6X6X&Xd.6 $ $ $ : k Z k ] a.i.=.c B Z Z Z Z c k n Z A B c A A A k x C f.{./.<.k x q 0 j =..X&X-X-X#X#X#X#X&X-X9X0X",
"g.u.1.;.H H -.p.~.h.5 - = & = 9 Z Z A B Z B A k k B A A A A c k A B k n n Z Z A c Z B B Z Z c c f : 7 7 j P *.*.*.-.3.a.g.Q.oX0X",
"0X0X0X6XqX-X.X).~.9 4 = = & = w k Z Z B B Z k k k V k V S F ' ' 1.2.<.=.' F A k j c Z Z B B c c c k f h D #X<X4X9X4X9X9X0XqX9X0X",
"9X0X7X7X6X7X5X6X9Xh - - & = - j k [ <.1.-.2.h.T.!.u.'.%X6X0X0X).0X0X6X0X%X`.5X.X/.1.5.1.-.' [ I j k q q 0 G 2.<.1.3.u.j.'.<X9X0X",
"4X9X6X#X.X{.`./.^.4 + & = = : k k >.T.~.s.].6X6X<Xa.0X0X0X0X0X/.-X0X0X0X=X(.<X9X,X_.{.,X#XT.c.I c c c c k G `.>X4XOX].h.u.j.<X0X",
"Q.j.g.u.u.d.j.!.S + = - = : = 0 k k S 1.2.).<X0X%Xg.4X0X0X0X0X(.#X0X0X0X5X(.;X0X,X&X`.'.p.A k Z c Z c c c c S /.9X9XqXqX9X9X4X9X",
"4X0X0X4X0X5XoX=.= = = - - ; = : 7 j B B V *.h.%X#Xp.>X0X0X0X5X~.&X6X6X6X5X(.>X6X7X`.=.B k A B A c Z n n c c B B T.,X6XqX9X9X4X*X",
"0X0X9X4X9X(.V = = = = - = & = ; q k n c c k V D >.;.a.T./.|.oXg.{.#X>X6X%Xh.~.i.-.B B A x A A A Z A A c c c Z B j d.1X0X9X<X).}.",
"0X0X9X9XQ.4 $ = = = = = = = ; t k c c c c n c B Z B B B B B Z V D F G S D k Z k B Z A k A n n Z A A A Z n A x A x k h.9X9X9X+X|.",
"4X9X1X~.e 4 = : ; * : ; ; ; 7 k k c c n n x x c Z c Z c g j s g l g l g l r l g c c c c c Z c c Z Z B C x C C C C C S  X1X0X1X X",
"9X<X3.6 4 - = = ; * ; ; 4 ; q B Z A Z c x g a a a b ^ _ 6.0.x.n.w.#.+.N.L.Z.v.9.) v g g g c c c c c c x C A C C C C k r.>X6X0X>X",
"9X-.- 4 = ; = - ; ; ; ; 4 7 B x x l y z ^ #.t.N.A.P.I.G.K.G.G.G.S.G.G.G.K.K.G.I.I.P.R.m.q./ y k A c C C C C x C C C C k i.7XqX0X",
"T.= = = : - = - ; $ ; ; : f x p u e.B.P.P.P.P.I.I.G.G.G.G.F.D.P.G.G.G.G.S.I.I.G.G.S.G.G.F.I.N.^ l B C C x C C A A C A A k f.7X6X",
"[ : ; ; = = & ; = ; = : 0 x / q.F.P.I.F.I.G.G.I.G.G.G.P.x.v r z ( n.P.G.K.G.G.G.G.G.G.F.t.q.P.U.V.P x x k n A C Z k c c c Z _.5X",
"4 - & ; ; = & ; * ; # , ) L.P.U.A.B.L.I.G.K.G.G.I.I.U.6.s c k j g s _ C.G.G.G.G.G.P.L.) i s / V.Y.Y.L a z c c A k r c c c k =.5X",
"= - : ; ; $ # ; : * % _ H.P.L.@.m a L X.n.P.F.G.I.I.$.2 v | 7.6.@.K u Y P.G.G.G.P.n.I 2 a a l s X.R.P.w.I u c Z k r Z n Z Z k !.",
"= - ; ; 4 $ = : * % b v.G.e.v l i n p 1 3 k.P.K.G.G.M.e.L.Y.G.G.U.P.M.m.U.I.I.G.G.e.` e.A.B.x.X.3 Y U.P.L.U g c k t k c A B Z I ",
"- - & = 4 O = = < T $.C.#.a u { n.Y.L.M.M.D.U.G.G.G.G.G.G.K.G.G.K.F.F.I.G.G.S.S.S.G.I.F.F.E.P.E.C.B.P.G.G.x.I s c r k c c Z B V ",
"- - * = $ & * % 3 Q %.X.y ^ B.I.S.S.G.G.S.S.S.F.U.U.P.F.G.I.G.I.F.I.P.m.+.0.Z.S.F.G.S.S.K.F.K.F.I.E.F.G.G.G.S.$.a l t c c c c Z ",
"- - ; & # ; % 1 +. .H.k.n.I.E.G.G.G.I.G.G.U.P.9./ ) q.P.P.G.G.S.U.k.M i g i y I N.P.F.K.K.K.K.K.K.F.E.I.F.G.G.U.A.i 0 k c c c Z ",
"- - & # = ; , ` ~ O.b.C.A.D.G.G.I.I.G.I.P.t.I u c g a v 0.U.G.P./ s a g m ^ U v u 0.I.S.F.K.K.l._ ^ ( k.U.G.D.F.U.9., g n A n A ",
"- - = o & > 2 E ! ~ Z.U s v 7.Y.I.G.G.L.$.u p b | b b N T I.K.S.T ..l.C.U.I.I.U.P.F.G.G.E.B.N 1 y y z a X.P.U.G.P.Y.v n C C n C ",
"- - = o # % R E ! v.I g c g u I D.G.G.D.` _ N.I.U.U.W.I.I.G.S.G.K.F.K.K.S.G.G.I.G.G.G.G.E.B.#.k.N.N.^ a u t.P.P.E.D.{ l C A n C ",
"- - ; = @ 3 o.W %.X.s v @.+.R +.D.F.I.I.I.P.E.G.S.G.G.S.G.G.E.E.E.E.E.K.G.I.G.U.I.U.I.I.F.K.E.F.P.E.I.q.I ` I.I.K.I.q.g C A n C ",
"- - ; & % T Q ~ %.2 ) P.P.K.G.S.G.G.E.E.E.E.E.K.G.G.G.G.G.I.E.U.E.E.E.K.I.I.I.I.I.I.I.I.K.K.K.G.E.K.F.U.S.G.G.G.G.I.x.z C C A n ",
"- = * o ,  .Q W M.x.G.G.K.G.K.G.G.G.I.E.E.K.E.E.I.I.I.I.I.I.I.I.F.I.F.F.E.E.G.K.K.K.K.K.E.E.E.I.K.E.K.G.S.G.G.G.G.G.A.v Z C A n ",
"; = = % Y  . .o.J.S.K.K.K.G.G.G.E.G.I.I.E.K.F.E.I.E.I.E.I.E.I.G.K.E.E.I.E.K.I.K.I.I.G.E.G.I.I.E.E.E.F.E.E.E.E.G.I.G.I.m k A B n ",
"; = # 2 o.W W o.&.G.G.K.K.K.G.K.K.E.E.K.I.E.F.K.E.I.E.G.I.K.K.E.I.F.E.K.F.E.E.F.E.K.F.E.E.E.E.G.F.E.I.I.K.E.G.E.I.G.P.^ k Z n n ",
"; * % T W W ~ ~ ~ G.G.K.U.K.K.K.E.E.F.E.K.I.E.E.G.E.G.E.I.I.E.E.I.E.K.E.E.K.E.E.K.E.E.G.E.F.K.E.K.E.K.I.E.G.E.I.I.G.U.U k A Z n ",
"; * % E ! ! ~ ~ O.S.K.K.G.G.K.K.I.K.I.E.I.E.K.E.E.I.E.G.E.K.E.F.E.E.E.G.E.G.E.I.E.F.E.E.E.E.I.K.E.K.E.E.E.E.G.E.I.G.P./ x C C x ",
"= * , ` ~ ! ! ~ ~ H.I.K.K.K.K.G.E.G.E.F.K.G.E.E.G.E.G.E.E.F.G.E.K.F.E.E.K.E.I.K.I.E.K.E.K.F.E.E.F.E.E.G.G.I.E.G.I.I.I.( k B A x ",
"- * , E ~ ! ! ~ ~ b.G.K.I.I.K.G.K.E.E.K.I.E.E.F.I.K.E.E.K.E.E.I.E.G.E.G.F.E.E.F.E.G.E.E.E.G.E.K.K.E.K.I.G.E.I.I.I.I.E.^ c c k n ",
"- & 2  .~ ~ ~ ! ! v.G.I.I.I.I.K.E.E.F.E.E.F.I.K.I.I.E.G.E.E.F.K.I.E.K.E.E.K.E.E.G.E.K.F.E.E.F.E.E.F.E.I.E.I.E.I.I.I.U.U k Z k c "
};
