/* XPM */
static char *_1b1435ddeed4bda8ece5708cdb4194fjISYpirxm687KwV6[] = {
/* columns rows colors chars-per-pixel */
"32 32 136 2 ",
"   c #231722",
".  c #261C25",
"X  c #281F26",
"o  c #272027",
"O  c #282027",
"+  c #292229",
"@  c #2E292E",
"#  c #312B2F",
"$  c #2F2C30",
"%  c #332D32",
"&  c #353235",
"*  c #383237",
"=  c #3A353A",
"-  c #3D3A3D",
";  c #423E42",
":  c #454244",
">  c #484447",
",  c #4A464A",
"<  c #4D4B4D",
"1  c #4F4F50",
"2  c #514E51",
"3  c #545354",
"4  c #585357",
"5  c #595558",
"6  c #5C5B5C",
"7  c #605D5F",
"8  c #605D60",
"9  c #636363",
"0  c #6A676A",
"q  c #6C6B6C",
"w  c #6F6F70",
"e  c #706D70",
"r  c #737373",
"t  c #787677",
"y  c #797579",
"u  c #7C7B7B",
"i  c #848384",
"p  c #878788",
"a  c #8B8B8B",
"s  c #918E91",
"d  c #949394",
"f  c #979798",
"g  c #989798",
"h  c #9B9B9B",
"j  c #A09FA0",
"k  c gray63",
"l  c #A0A0A0",
"z  c #A4A3A4",
"x  c #A4A4A4",
"c  c #A5A5A5",
"v  c #A7A7A7",
"b  c #A4A3A4",
"n  c #A8A7A8",
"m  c gray66",
"M  c #A9A8A9",
"N  c #AAA9AA",
"B  c #AAAAAA",
"V  c #ACABAC",
"C  c #ACACAC",
"Z  c #ADACAD",
"A  c gray68",
"S  c #AEAEAE",
"D  c #ACACAC",
"F  c gray69",
"G  c #B1B1B1",
"H  c #B2B2B2",
"J  c gray70",
"K  c #B4B4B4",
"L  c gray71",
"P  c #B5B6B6",
"I  c #B6B6B6",
"U  c #B7B7B7",
"Y  c #B4B4B4",
"T  c gray72",
"R  c #B9B9B9",
"E  c gray73",
"W  c #BBBBBB",
"Q  c #BCBBBC",
"!  c gray74",
"~  c gray",
"^  c gray75",
"/  c #BCBCBC",
"(  c #BFBFC0",
")  c #C0C0C0",
"_  c gray76",
"`  c #C3C3C3",
"'  c #C5C6C5",
"]  c #C5C5C6",
"[  c #C6C6C6",
"{  c gray78",
"}  c #C6C5C6",
"|  c #C8C8C8",
" . c gray79",
".. c #CAC9CA",
"X. c #CBCBCB",
"o. c gray80",
"O. c #CDCDCD",
"+. c #CECECE",
"@. c #CACACA",
"#. c #D0D0D0",
"$. c #D1D1D0",
"%. c gray82",
"&. c LightGray",
"*. c #D5D5D4",
"=. c gray84",
"-. c #D7D7D7",
";. c #D3D3D3",
":. c #D8D8D8",
">. c #DADADA",
",. c gray86",
"<. c #DCDBDC",
"1. c #DDDDDD",
"2. c gray87",
"3. c #DFDFDF",
"4. c #DCDCDC",
"5. c gray88",
"6. c #E1E1E1",
"7. c gray89",
"8. c #E4E4E4",
"9. c #E6E6E6",
"0. c #E5E5E5",
"q. c gray91",
"w. c #E9E9E9",
"e. c #EAEAEA",
"r. c #EEEEEE",
"t. c #EFEFEF",
"y. c #EBEBEB",
"u. c #F3F3F3",
"i. c gray96",
"p. c #F6F6F6",
"a. c #F8F8F8",
"s. c gray98",
"d. c #FBFBFB",
"f. c #FDFDFD",
"g. c #FEFEFE",
"h. c white",
/* pixels */
"    . . . . . . X X . . . o . . o . o . . . . . .               ",
"  . . . . . . . o o X . . X . . o + . . . o . .   . .   .       ",
". . . . X X X X o X . . . . + 1 r p 6 + . o . . . . .     .     ",
". . . . X X X + o X X . X $ * : 6 5 6 1 # o o o . . . . .       ",
"X . X X X + X + + X . . @ 9 7.q.*.m 2 3 5 + o . . . .   .       ",
"X X X o + o X + o . . . @ s f.f.h.h.u.i : & o o . . . . . .   . ",
"X o + + + o o + o X . . . d t.f.h.h.h.h.W % o o . . . .   . .   ",
"+ + + + + + + + o . X X o v e.e.3.^ 9.q.d.5 + o . . . . . . . . ",
"+ + + + o + + o o . . ; , 1.:.i r < %.6 i w + o . . . . . . . . ",
"@ + + + + + + X X X . 8 a G ) O.` %.p.] | u o o . . X . . . . . ",
"+ + + + o + + o X . . w P x d #.| _ 8.r.i.y o X . . X . . . . . ",
"@ @ + + + X X + X . . 5 ( s a p 3 $ @ 1 ] 6 o X X X . X o X . X ",
"+ + + + + X o + X X . X p s p a 8 + + 3 U - X X . o . X . . X X ",
"@ + + o o o o + X . . X j f f d 9 : * 0 v @ X X o . X X + + + + ",
"+ + + o + o + + X . . < #.i p u a r y v u o X . o o X X X + X + ",
"+ + + + o + X o . . = z z ] w w P T  .` : o . o o o X + X X + X ",
"+ + O O O O O O o 6 W L a ! :.r 3 3 t r + + O o o O O O O + + O ",
"+ O O O + # = q v 3.) S f u *.p.[ 6 >.0 + o + o o O O O O O O + ",
"+ + O @ d ' 1.4.A _ L S k a d p.p.r 7.T 3 @ + o O O O O O X + O ",
"+ + O t x J ' 2.y.T 7 a A d d ) d.p &.T $.*.X.i + o O O O O O O ",
"@ + & U r w c A ' 5.q ; A k d d *.i 1.A 1.h $.u.u X O O O X + X ",
"+ + 6 x G i 7 7 a h l i f k h a h r ,.G =.w.u X.+.2 O + + + O + ",
"+ + t o.B l f 9 6 q f J i h u h s a A G ,.6.3.w g i O O O O X O ",
"@ O s ' @.T p i q 1 d S t 1 1 d f d t G 4.3.d d u U O O O O O O ",
"O . j | l O.a q u 3 i a A h 9 p a a q h :.1.T  .t t 2 + + X + X ",
"& . h _ c a _ e 6 d r u f d < 3 p p i h $.:.1.C i t g + X + + X ",
"@ , l | ! p g v 9 6 1 r x h p - 3 q 0 f $.O.x x N e ' + X % # % ",
". & d ' | R t c m q : 3 p $.h q 1 5 > h T 9 f A 7 9 e 2 = l 2 % ",
"h w.O.^ | $.! p c i : $ & 3 3 9 < 5 : x : - 7 9 d O O & : p u ; ",
"l 9.{ ^ $.$.*.{ x d : & - : 3 6 1 3 1 , - = < # d . . + - w : : ",
"< - d J :.:.! N P ' 6 $ - < 1 1 : : O : , $ % = ;   . . # = # + ",
"S F J C J 1.8.y.*.A a @ & - : < = 9 & + 3 = - * 2 . . O O + + + "
};
