/* XPM */
static char *_84bf4d326c44568a9cc027ef851598aAK6YtZNLog6YHPYU[] = {
/* columns rows colors chars-per-pixel */
"32 32 168 2 ",
"   c None",
".  c #000000",
"X  c #170E0F",
"o  c #1D1313",
"O  c #271517",
"+  c #2A1C1B",
"@  c #24191A",
"#  c #301114",
"$  c #3D1116",
"%  c #34171A",
"&  c #3A161A",
"*  c #391C1C",
"=  c #26211C",
"-  c #2A241E",
";  c #2E1F20",
":  c #3F1C20",
">  c #232323",
",  c #2B2624",
"<  c #2D2728",
"1  c #2C2C2C",
"2  c #3C2421",
"3  c #332B25",
"4  c #3E2C27",
"5  c #342F2C",
"6  c #342325",
"7  c #33312F",
"8  c #343231",
"9  c #383430",
"0  c #3E3833",
"q  c #3B3B3B",
"w  c #421218",
"e  c #4D151C",
"r  c #431A1E",
"t  c #481C1F",
"y  c #54181F",
"u  c #421D21",
"i  c #4C1F22",
"p  c #541D23",
"a  c #5C1C23",
"s  c #681E27",
"d  c #442524",
"f  c #442528",
"g  c #462D2F",
"h  c #432A27",
"j  c #522225",
"k  c #552428",
"l  c #512D2B",
"z  c #43342D",
"x  c #54322F",
"c  c #572F34",
"v  c #483430",
"b  c #443C35",
"n  c #4C3D35",
"m  c #523531",
"M  c #563B35",
"N  c #5F3D38",
"B  c #533639",
"V  c #652229",
"C  c #6C242B",
"Z  c #6D282F",
"A  c #76242D",
"S  c #7A242D",
"D  c #662F30",
"F  c #7C2730",
"G  c #752B34",
"H  c #683635",
"J  c #6E3838",
"K  c #633131",
"L  c #733234",
"P  c #793537",
"I  c #4D4137",
"U  c #47413C",
"Y  c #4C4238",
"T  c #52453A",
"R  c #5D443C",
"E  c #564A3F",
"W  c #61463E",
"Q  c #454545",
"!  c #4D4742",
"~  c #4C4B4B",
"^  c #4E4943",
"/  c #504A45",
"(  c #5A4E43",
")  c #5D5146",
"_  c #525252",
"`  c #5B5B5B",
"'  c #6F4640",
"]  c #614F43",
"[  c #6C4E45",
"{  c #734741",
"}  c #615346",
"|  c #62564A",
" . c #6B5C4E",
".. c #765C4F",
"X. c #75534A",
"o. c #615C56",
"O. c #745F51",
"+. c #736253",
"@. c #7B6556",
"#. c #796857",
"$. c #7D6C5B",
"%. c #666666",
"&. c #6A6A6A",
"*. c gray45",
"=. c #81242E",
"-. c #872631",
";. c #8B2934",
":. c #932935",
">. c #952D38",
",. c #9D2C39",
"<. c #93323B",
"1. c #96383F",
"2. c #A62E3C",
"3. c #AC313F",
"4. c #AF3240",
"5. c #B23241",
"6. c #BE3645",
"7. c #CC3A4A",
"8. c #C23646",
"9. c #D43B4D",
"0. c #DC3D4F",
"q. c #8D4646",
"w. c #845B51",
"e. c #895A51",
"r. c #846759",
"t. c #836C5B",
"y. c #8E6D5F",
"u. c #84715F",
"i. c #867361",
"p. c #8B7663",
"a. c #8E7966",
"s. c #927A67",
"d. c #927D69",
"f. c #E44052",
"g. c #EC4255",
"h. c #F64559",
"j. c #9A836E",
"k. c #96816D",
"l. c #9C8670",
"z. c #A28B75",
"x. c #A78F78",
"c. c #AA8F78",
"v. c #A18672",
"b. c #AC937C",
"n. c #B1977F",
"m. c #B1987F",
"M. c #B49A81",
"N. c #BA9F86",
"B. c #BCA087",
"V. c #BDA288",
"C. c #C0A58A",
"Z. c #C6A98E",
"A. c #CAAD91",
"S. c #CEB094",
"D. c #D1B396",
"F. c #D5B699",
"G. c #DABA9C",
"H. c #DFBEA0",
"J. c #E0BFA1",
"K. c #E4C3A4",
"L. c #E8C7A7",
"P. c #ECC9A9",
"I. c #F1CEAD",
"U. c #F4D1AF",
"Y. c #F7D3B2",
"T. c #F9D5B3",
"R. c #FFDAB7",
"E. c #FDD8B6",
/* pixels */
"                                                                ",
"                                                                ",
"                    ) ) ) ) ) ) ) ) ) ) ) ) )                   ",
"                  ( +.L.R.R.R.R.R.R.R.R.R.M.d.8                 ",
"                ) $.E.R.R.R.R.R.R.R.R.R.R.R.R.G. .              ",
"                k.R.R.R.b.K.R.R.R.R.R.E.V.I.R.R.L.              ",
"                c.Y.R.R.V.p.P.R.R.R.E.l.l.Y.R.R.G.              ",
"              p Z a.R.L.K.b.z.R.R.R.S.E Y.S.R.S.m A             ",
"              s 6.' U.k.M.b.d.C.R.K.b.T G.| L.u.;.;.            ",
"              V g.P D.m.S.P.M.p.I.z.z.F.L.s.J.M 9.:.            ",
"              s 9.D F.R.R.R.D.@.A.a.b.T.R.R.I.T 3.:.            ",
"              a 4.x G.l.p.m.H.b.b.j.S.K.p.p.D.( S =.            ",
"              z t i.b.E I } Z. .F.t.m.u.Y T $.A.2 d             ",
"            o @.s.3 b ! 5 / 3 -  .b - ^ b 0 / , ( j.2           ",
"        ) ) 2 l p.$ O ` &.~ # W u.@.r < %.%.5 e z R w ) >       ",
"        ) ( 2 k s.q.:.e w a 3.$ K.W ;.-.w w S <.y.x e @.>       ",
"        )  .K 5.J t.=.7.7.0.f.$ K.W 3.h.9.7.6.O...4.:.d.>       ",
"        ) ) { 7.C u.[ ,.h.h.<.z L.+.L 9.h.8.H n.h 9.1.#.>       ",
"          8 T A 4.N K.v.w.w.a.$.U.b.p.r.e.r.F.@.A 2.4 b q       ",
"            1 ) P ,.M D.N.N.M.b.E p.N.c.V.D.i.A 3.+.>           ",
"            q | r.g r ( d.M i j j j j r $.$.d B v $.9           ",
"              0 #.o q Y ( q _ *.*.*.` Q U i.7 h 4 I             ",
"              8 z $ . b I . . . . . . . - i.. y * 7             ",
"                < V . z I . . . . . . . - i.. F %               ",
"                  : q b I . . . . . . . = i.> c o               ",
"                  V G n | ` Q %.%.%._ ~ o.i.u ;.6               ",
"                    S L l.4 & k Z C u % +.X.>.<                 ",
"                      k [ s.@.r.t.r.@.t.r.i g                   ",
"                        ; z + s 4.-.& } @                       ",
"                            + =.2.,.u                           ",
"                                                                ",
"                                                                "
};
