/* XPM */
static char *_fdeb26ea4394dced6b0539999f55d5fWZyLmcBsJqSiXDHG[] = {
/* columns rows colors chars-per-pixel */
"64 64 210 2 ",
"   c None",
".  c #1D2326",
"X  c #0F2D3D",
"o  c #0D2430",
"O  c #172E3B",
"+  c #1A2A34",
"@  c #27282B",
"#  c #2C363C",
"$  c #3C3939",
"%  c #3B3530",
"&  c #342D2A",
"*  c #423F3F",
"=  c #704E39",
"-  c #123243",
";  c #19374A",
":  c #1D3B53",
">  c #1D3F58",
",  c #142E40",
"<  c #293E4A",
"1  c #2C3A44",
"2  c #263D53",
"3  c #313A40",
"4  c #1F405A",
"5  c #37454C",
"6  c #2B4152",
"7  c #23435B",
"8  c #28445B",
"9  c #334B5C",
"0  c #364756",
"q  c #244662",
"w  c #264966",
"e  c #2A4D6B",
"r  c #294B66",
"t  c #2A516B",
"y  c #3D5461",
"u  c #395667",
"i  c #2D5376",
"p  c #2E5478",
"a  c #3C5B73",
"s  c #305679",
"d  c #335B7D",
"f  c #365A76",
"g  c #2B4E70",
"h  c #38617F",
"j  c #464545",
"k  c #514C47",
"l  c #595247",
"z  c #424D58",
"x  c #4B555B",
"c  c #42515C",
"v  c #575756",
"b  c #625D59",
"n  c #715F51",
"m  c #6F5A4B",
"M  c #786658",
"N  c #6D6156",
"B  c #495864",
"V  c #445D74",
"C  c #575E62",
"Z  c #55626D",
"A  c #5C6468",
"S  c #466479",
"D  c #5D6E7B",
"F  c #566673",
"G  c #5D737F",
"H  c #4B616E",
"J  c #676868",
"K  c #746D65",
"L  c #746E69",
"P  c #656C71",
"I  c #6C7379",
"U  c #67737B",
"Y  c #7A7D7C",
"T  c #747679",
"R  c #77736F",
"E  c #9B6D4B",
"W  c #956A47",
"Q  c #8E745D",
"!  c #9B7755",
"~  c #936F54",
"^  c #A2714E",
"/  c #A37352",
"(  c #A97654",
")  c #A57C59",
"_  c #8D7C6C",
"`  c #8A7665",
"'  c #967F6A",
"]  c #867C74",
"[  c #7B817E",
"{  c #A9855F",
"}  c #86807C",
"|  c #9B8B7B",
" . c #978574",
".. c #9B876E",
"X. c #A78868",
"o. c #BE8F6D",
"O. c #B18866",
"+. c #A68E79",
"@. c #B08C70",
"#. c #AA937D",
"$. c #A7917B",
"%. c #BB9675",
"&. c #B5977B",
"*. c #B8916F",
"=. c #C59C7A",
"-. c #C89B79",
";. c #C8A27E",
":. c #365F81",
">. c #376083",
",. c #3C6584",
"<. c #3E6A8C",
"1. c #436D8B",
"2. c #4F6F83",
"3. c #587688",
"4. c #416E90",
"5. c #457394",
"6. c #4A7592",
"7. c #4B7C9E",
"8. c #497897",
"9. c #54768F",
"0. c #637989",
"q. c #747C81",
"w. c #4D7FA2",
"e. c #5C829C",
"r. c #7D8488",
"t. c #6C8797",
"y. c #788993",
"u. c #4E81A4",
"i. c #5185A6",
"p. c #5287A9",
"a. c #5489AA",
"s. c #5B8BAA",
"d. c #5E91AE",
"f. c #699BB3",
"g. c #6497B2",
"h. c #73A6BA",
"j. c #76AABD",
"k. c #868788",
"l. c #978D87",
"z. c #9C948C",
"x. c #9E9080",
"c. c #88959C",
"v. c #939394",
"b. c #9C9C9D",
"n. c #989A96",
"m. c #8A8F90",
"M. c #A59686",
"N. c #B59C84",
"B. c #A39C96",
"V. c #BCA48C",
"C. c #BAA28A",
"Z. c #ABA297",
"A. c #B8AB9C",
"S. c #BEB09E",
"D. c #8197A5",
"F. c #959DA0",
"G. c #9BA3A6",
"H. c #9DA9B0",
"J. c #ACADAE",
"K. c #A5A5A4",
"L. c #B3ABA4",
"P. c #B9ADA0",
"I. c #BBBBBC",
"U. c #B4B5B6",
"Y. c #BAB1A6",
"T. c #C8A889",
"R. c #D3AC8B",
"E. c #D2A986",
"W. c #D6B08E",
"Q. c #C5AC93",
"!. c #CEAE90",
"~. c #C6B29D",
"^. c #CEB499",
"/. c #C4B197",
"(. c #D5B392",
"). c #DBB694",
"_. c #D3B799",
"`. c #DEBB9A",
"'. c #D9B898",
"]. c #E2BD9C",
"[. c #CDB8A2",
"{. c #C3B9AE",
"}. c #CCBBA8",
"|. c #DBBEA2",
" X c #E3C19E",
".X c #DAC1A7",
"XX c #DBC4AB",
"oX c #D7C0A8",
"OX c #DAC5B3",
"+X c #C3C1BF",
"@X c #E6C3A1",
"#X c #E9C6A4",
"$X c #EBC9A7",
"%X c #EECBAA",
"&X c #E6C9AC",
"*X c #F1CEAC",
"=X c #F3D1AF",
"-X c #E5CCB2",
";X c #EACEB1",
":X c #EDD2B5",
">X c #F5D4B3",
",X c #F8D6B5",
"<X c #F9D8B6",
"1X c #FDDCBB",
"2X c #F7D8B8",
"3X c #C2C2C3",
"4X c #D0CECD",
"5X c gray83",
"6X c #E3E3E3",
"7X c #F4F4F4",
/* pixels */
"                                                                                                                                ",
"                                                                                                                                ",
"                                                                                                                                ",
"                                                                                                                                ",
"                                                                                                                                ",
"                                                                                                                                ",
"                                                                                                                                ",
"                                                                                                                                ",
"                                                                                                                                ",
"                                                                                                                                ",
"                                                                                                                                ",
"                                                                                                                                ",
"                                                                                                                                ",
"                                                                                                                                ",
"                                                                                                                                ",
"                                                                                                                                ",
"                                                                                                                                ",
"                                                                                                                                ",
"                                                                                                                                ",
"                                                  t F m.                  t.u z                                                 ",
"                                                u u.f V k.            G.t.7.7.r L                                               ",
"                                              H.6.<.i i 7 y G 3.0.0.Z 6.7.p.i.e Z U.                                            ",
"                                              y.1.i f 1.f.h.j.h.d.i.i.a.p.i.<.i B v.                                            ",
"                                              0.s f 6.f.j.j.j.f.a.p.a.i.w.5.d i V c.                                            ",
"                                            c.S ,.w.a.g.f.f.d.a.7.5.4.4.:.i i i e Z                                             ",
"                                            Y ] }.,.7.p.a.a.8.,.}.XXN.6 i i i p w B                                             ",
"                                            Z.XX1X:XF.e.s.D.Y.:X1X1X1X1XZ.V i p e 9                                             ",
"                                            S.>X1X1X:XL.K.-X1X1X1X1X1X1X,X{.F p p 8                                             ",
"                                            [.2X1X1X1X:X:X1X1X1X1X1X1X1X1X>XY i i r                                             ",
"                                            v b .X1X1X1X1X1X2X=Xb * C.<X1X1XY i p g c                                           ",
"                                            [.oX_ Q.<X1X1X1X_. .^.>X1X1X1X1XY i i i 6                                           ",
"                                            [.2X2X&X2X1X1X1X:X&X1X1X1X1X1X<Xr.i i q ; Y                                         ",
"                                            ~.2X_ {.#X=X<X%X}.Z.2X1X1X1X1XoXG i e > - <                                         ",
"                                            n.XX%XQ o.-.o.o...V.1X1X1X2X|.U i p > - ; 4 q.                                      ",
"                                            F.z.>X1X<X,X,X,X1X1X1X1X<X>Xv.S i i e w g p a r.                                    ",
"                                            0.9 %.=X,X1X1X1X1X1X>X>X).k.a i i i i p i p i V F                                   ",
"                                            S U W.%X*X>X=X>X=X=X*X*X].P.q.f s i p p i i i g B                                   ",
"                                          h 2.L.1X>X>X>X,X<X,X>X2X1X1X1X1X-X0.:.4.4.:.g i i w q.                                ",
"                                        2.<.y.OX1X1X1X1X1X1X1X1X1X1X1X1X1X1XY 5.p.w.<.i i p g y                                 ",
"                                      0.<.5.q.XX1X1X1X1X1X1X1X1X1X1X1X1X1X1XY i.p.p.w.p p i i q I                               ",
"                                      3.u.5.I oX1X1X1X1X1X1X1X1X1X1X1X1X1XXXD u.a.p.u.p i i i i B                               ",
"                                    r <.a.u.H B.1X1X1X1X1X1X1X1X1X1X1X1X2X/.9.a.p.p.5.p p > w i 9                               ",
"                                    a 6.p.u.t r.1X1X1X1X1X1X1X1X1X1X1X1X-Xm.6.p.a.i.<.p i : w p 9                               ",
"                                    1.i.p.u.d H 2X1X1X1X1X1X1X1X1X1X1X1XA.S 7.p.p.u.>.p e q i i e 5                             ",
"                                    5.p.p.u.h 7 -X1X1X1X1X1X1X1X1X1X1X=XJ ,.a.a.u.5.p i q q i i i 1                             ",
"                                    <.u.p.u.d 9 k <X1X1X1X1X1X1X1X1X1XK c.e.a.i.<.d i e 2 e i i i < P                           ",
"                                  T f 7.p.8.i 3.@ <X1X1X1X1X1X1X1X1X2Xj y.6.i.5.p i i : 7 i i i s e U                           ",
"                                   .< h u.h 7 5 #.1X1X1X1X1X1X1X1X1X| v.3.t >.s i g 6 ; i i i i i e F                           ",
"                      I.    3X    Q.k , q 7 A R >X1X1X1X1X1X1X1X1X1XC.. U 9 7 7 ; # +.4 i p i i p e Z                           ",
"                      b.3X3Xn.I.6XV.C.L # A } _.1X1X1X1X1X1X1X1X1X1X1XC.} A x j J $._.7 p i i i e q B                           ",
"                      J.I.v.J.5XJ...%X!.N | &X<X1X1X1X1X1X1X1X1X1X1X1X2X^...M Q.z.x.^.9 h i w w : - x                           ",
"                  k.P } {.K b.6Xj Q #X>X,X<X1X1X1X1X1X1X1X1X1X1X1X<X<X<X=X*X'.+XI.} Q.G.I ; ; - - , C                           ",
"                  J.  /.O._.C.` l R.R. X$X*X=X,X,X>X>X>X>X>X>X>X*X$X*X$X%X X .7XU.L Z.7XJ X - - - O q.                          ",
"                    Z.`.>X<X*X X=X1X$XW.].%X*X%X%X%X%X%X%X*X%X$X*X$X*X$X XW.!.&.&.+.Z.5XC O 6 6 - +                             ",
"                    OX'.%X*X*X>X<X1X<X].R.%X%X%X%X%X%X%X%X%X%X%X%X%X$X'.).*X<X$X$X$X_.+.M I G.k.O +                             ",
"                    OX(.'.(.$X%X,X1X1X*X-.#X%X%X%X%X%X%X%X%X%X%X%X%X%X;.$X<X=X*X(.E.).;.Q 3X6Xm.o x                             ",
"                      / W ! O.W.%X*X*X*XM ].*X$X%X%X%X%X%X%X%X%X%X%XE.).,X*X X! ( W ~ %X| {.I.# O                               ",
"                      N / ( / { $X$X%X%XT.m @X*X%X%X%X%X%X%X%X%X%X%X;.=X=X$X*.^ ( ( ^ ! _.x.T o 6                               ",
"                      n.= ( ( ^ T.%X%X%X$X% ` C.$X%X%X%X%X%X%X%X%X$X@.$X%X).{ ( ( ( / ) %X` @ O J                               ",
"                        M ^ ( W %.%X%X%X].. # l ' `.%X%X%X%X%X%X%X%X&.$.%XR.E ( ( ( E =.#Xm . c G.                              ",
"                          ` Q X. X%X$X].m z < O ; 5 l Q $.#.#.#.#.#.M.& &. X%.W E ) =.].&.J b.                                  ",
"                            l.%.R.`.!.N.K 3Xv # y 9 y 5 $ $ * * $ * * @  .T.!.{ ) %._.&.x.                                      ",
"                              L.L ] } z.                                  z.` #.N.@._ l.                                        ",
"                                                                            l.B.B.B.m.                                          "
};
