/* XPM */
static char *result[] = {
/* columns rows colors chars-per-pixel */
"64 64 215 2 ",
"   c #0A151D",
".  c #18191C",
"X  c #211C1B",
"o  c #0C1C26",
"O  c #141D27",
"+  c #0D2331",
"@  c #0F2C3C",
"#  c #0D2837",
"$  c #122D3D",
"%  c #182C3E",
"&  c #172833",
"*  c #1C323D",
"=  c #122733",
"-  c #26292E",
";  c #2B2B2C",
":  c #292524",
">  c #362F2A",
",  c #262C34",
"<  c #2A353C",
"1  c #3B3A3A",
"2  c #363739",
"3  c #563C2D",
"4  c #443B34",
"5  c #52443B",
"6  c #7B5936",
"7  c #113244",
"8  c #1D3A4D",
"9  c #193347",
"0  c #1C3C53",
"q  c #1F3F58",
"w  c #103040",
"e  c #2F3C47",
"r  c #2F3E4F",
"t  c #1E4159",
"y  c #27404E",
"u  c #38434A",
"i  c #22425B",
"p  c #2A4658",
"a  c #344A57",
"s  c #3A515D",
"d  c #234561",
"f  c #254964",
"g  c #2B4A65",
"h  c #274C6B",
"j  c #2A4D6B",
"k  c #284660",
"l  c #2C506C",
"z  c #3C5564",
"x  c #365469",
"c  c #2B4F70",
"v  c #2D5377",
"b  c #2E5578",
"n  c #315574",
"m  c #345C7C",
"M  c #3B5D7B",
"N  c #305678",
"B  c #35607C",
"V  c #464746",
"C  c #544D47",
"Z  c #5D5248",
"A  c #424A53",
"S  c #4A5359",
"D  c #53565B",
"F  c #6B594B",
"G  c #645B54",
"H  c #785D4A",
"J  c #6B625A",
"K  c #7A6353",
"L  c #796A59",
"P  c #465B68",
"I  c #545F6A",
"U  c #436074",
"Y  c #576977",
"T  c #5C727E",
"R  c #51636C",
"E  c #656669",
"W  c #6A6869",
"Q  c #7C736A",
"!  c #6D6E71",
"~  c #656F72",
"^  c #6B7274",
"/  c #6B7275",
"(  c #727375",
")  c #7B7B7B",
"_  c #777879",
"`  c #726C66",
"'  c #825E3B",
"]  c #826337",
"[  c #896447",
"{  c #956947",
"}  c #9C6D4C",
"|  c #926645",
" . c #96744D",
".. c #866D58",
"X. c #997654",
"o. c #967758",
"O. c #A06E4C",
"+. c #A57451",
"@. c #A97654",
"#. c #A87E5B",
"$. c #A97755",
"%. c #8A7868",
"&. c #967C68",
"*. c #877D74",
"=. c #A37C60",
"-. c #A9855E",
";. c #9D886D",
":. c #8E8071",
">. c #998674",
",. c #A58967",
"<. c #BD8E6C",
"1. c #B58665",
"2. c #BD906E",
"3. c #A68E77",
"4. c #AA947A",
"5. c #BA9879",
"6. c #AF9070",
"7. c #C39876",
"8. c #CCA17F",
"9. c #365F81",
"0. c #3C6788",
"q. c #3A6486",
"w. c #456A89",
"e. c #5E7685",
"r. c #447394",
"t. c #4A7A9C",
"y. c #4A7793",
"u. c #547B98",
"i. c #667985",
"p. c #6F7D88",
"a. c #4E7FA1",
"s. c #77858E",
"d. c #768792",
"f. c #728895",
"g. c #4F81A3",
"h. c #5184A6",
"j. c #5287A9",
"k. c #5489AA",
"l. c #5A8CAA",
"z. c #5D90AD",
"x. c #689AB3",
"c. c #6093AF",
"v. c #72A4B9",
"b. c #76AABD",
"n. c #6FA1B7",
"m. c #898887",
"M. c #958C81",
"N. c #969289",
"B. c #8E8F92",
"V. c #81939B",
"C. c #919193",
"Z. c #93979A",
"A. c #9A9B9B",
"S. c #9C9997",
"D. c #8C908E",
"F. c #B49C86",
"G. c #A59E99",
"H. c #AA9987",
"J. c #BAA184",
"K. c #AAA093",
"L. c #B5A696",
"P. c #AEA18E",
"I. c #9A9FA2",
"U. c #8195A1",
"Y. c #9AA3A7",
"T. c #AAAAAB",
"R. c #A7A6A4",
"E. c #BAB2AA",
"W. c #AAAEB1",
"Q. c #B2B3B4",
"!. c #BCBCBC",
"~. c #B8B8B8",
"^. c #A8B5BC",
"/. c #CAA688",
"(. c #D5AE8C",
"). c #D1A885",
"_. c #D6B28E",
"`. c #C4AD96",
"'. c #C9B39C",
"]. c #DAB492",
"[. c #D4B99E",
"{. c #DDBB9B",
"}. c #D8B696",
"|. c #E0BD9B",
" X c #C9B7A5",
".X c #D7BDA4",
"XX c #C3BEBA",
"oX c #E2C19E",
"OX c #DDC4AA",
"+X c #D1C4B8",
"@X c #E3C2A2",
"#X c #EAC7A5",
"$X c #EBC9A6",
"%X c #EECBA9",
"&X c #E3C7AA",
"*X c #F1CEAC",
"=X c #F3D0AE",
"-X c #EED1B2",
";X c #F5D4B2",
":X c #F8D7B5",
">X c #FAD9B6",
",X c #FDDCBB",
"<X c #F6D7B8",
"1X c #E6CDB3",
"2X c #BEBEC0",
"3X c #C2C3C3",
"4X c #CACACB",
"5X c #C6C8C8",
"6X c #CBD4D8",
"7X c #D9D8D9",
"8X c #CFD0CE",
"9X c #ECECEC",
"0X c #F4F4F4",
"qX c #FBFBFB",
"wX c None",
/* pixels */
"wXwXwXwXwXwXwXwXwXwXwXwXwXwXwXwXwXwXwXwXwXwXwXwXwXwXwXwXwXwXwXwXwXwXwXwXwXwXwXwXwXwXwXwXwXwXwXwXwXwXwXwXwXwXwXwXwXwXwXwXwXwXwXwX",
"wXwXwXwXwXwXwXwXwXwXwXwXwXwXwXwXwXwXwXwXwXwXwXwXwXwXwXwXwXwXwXwXwXwXwXwXwXwXwXwXwXwXwXwXwXwXwXwXwXwXwXwXwXwXwXwXwXwXwXwXwXwXwXwX",
"wXwXwXwXwXwXwXwXwXwXwXwXwXwXwXwXwXwXwXwXwXwXwXwXwXwXwXwXwXwXwXwXwXwXwXwXwXwXwXwXwXwXwXwXwXwXwXwXwXwXwXwXwXwXwXwXwXwXwXwXwXwXwXwX",
"wXwXwXwXwXwXwXwXwXwXwXwXwXwXwXwXwXwXwXwXwXwXwXwXwXwXwXwXwXwXwXwXwXwXwXwXwXwXwXwXwXwXwXwXwXwXwXwXwXwXwXwXwXwXwXwXwXwXwXwXwXwXwXwX",
"wXwXwXwXwXwXwXwXwXwXwXwXwXwXwXwXwXwXwXwXwXwXwXwXwXwXwXwXwXwXwXwXwXwXwXwXwXwXwXwXwXwXwXwXwXwXwXwXwXwXwXwXwXwXwXwXwXwXwXwXwXwXwXwX",
"wXwXwXwXwXwXwXwXwXwXwXwXwXwXwXwXwXwXwXwXwXwXwXwXwXwXwXwXwXwXwXwXwXwXwXwXwXwXwXwXwXwXwXwXwXwXwXwXwXwXwXwXwXwXwXwXwXwXwXwXwXwXwXwX",
"wXwXwXwXwXwXwXwXwXwXwXwXwXwXwXwXwXwXwXwXwXwXwXwXwXwXwXwXwXwXwXwXwXwXwXwXwXwXwXwXwXwXwXwXwXwXwXwXwXwXwXwXwXwXwXwXwXwXwXwXwXwXwXwX",
"wXwXwXwXwXwXwXwXwXwXwXwXwXwXwXwXwXwXwXwXwXwXwXwXwXt $ B.wXwXwXwXwXwXwXwXwXwXwXwXwXf.7 S wXwXwXwXwXwXwXwXwXwXwXwXwXwXwXwXwXwXwXwX",
"wXwXwXwXwXwXwXwXwXwXwXwXwXwXwXwXwXwXwXwXwXwXwXwXU h.y.p T.wXwXwXwXwXwXwXwXwXwXwXf.t.0.g ( wXwXwXwXwXwXwXwXwXwXwXwXwXwXwXwXwXwXwX",
"wXwXwXwXwXwXwXwXwXwXwXwXwXwXwXwXwXwXwXwXwXwXwXwXz a.0.v r p.A.wXwXwXwXwXwXwXY.f.y.k.h.g W wXwXwXwXwXwXwXwXwXwXwXwXwXwXwXwXwXwXwX",
"wXwXwXwXwXwXwXwXwXwXwXwXwXwXwXwXwXwXwXwXwXwXwXY.y.t.b v b i p T T T i.e.T D y.r.j.j.g.j e Q.wXwXwXwXwXwXwXwXwXwXwXwXwXwXwXwXwXwX",
"wXwXwXwXwXwXwXwXwXwXwXwXwXwXwXwXwXwXwXwXwXwXwXf.t.n c b m k.v.v.v.v.n.g.h.h.k.j.k.j.9.n 9 C.wXwXwXwXwXwXwXwXwXwXwXwXwXwXwXwXwXwX",
"wXwXwXwXwXwXwXwXwXwXwXwXwXwXwXwXwXwXwXwXwXwXwXi.v g l y.v.b.b.b.b.n.k.k.j.j.j.j.a.t.N b 0 I.wXwXwXwXwXwXwXwXwXwXwXwXwXwXwXwXwXwX",
"wXwXwXwXwXwXwXwXwXwXwXwXwXwXwXwXwXwXwXwXwXwXV.f q.B l.x.v.b.b.n.x.l.k.k.j.j.h.r.q.b v v j i.wXwXwXwXwXwXwXwXwXwXwXwXwXwXwXwXwXwX",
"wXwXwXwXwXwXwXwXwXwXwXwXwXwXwXwXwXwXwXwXwXwXV.k 0.k.j.j.z.c.c.z.j.j.g.0.0.0.q.v v v b v b w ~.wXwXwXwXwXwXwXwXwXwXwXwXwXwXwXwXwX",
"wXwXwXwXwXwXwXwXwXwXwXwXwXwXwXwXwXwXwXwXwXwX) :. XB w.j.j.k.k.k.r.M  XOXOX&.p v v v v v v % T.wXwXwXwXwXwXwXwXwXwXwXwXwXwXwXwXwX",
"wXwXwXwXwXwXwXwXwXwXwXwXwXwXwXwXwXwXwXwXwX6XN.;X,X<X Xu.h.j.z.f.T.<X,X,X,X,X<X`.x c b b b 9 Z.wXwXwXwXwXwXwXwXwXwXwXwXwXwXwXwXwX",
"wXwXwXwXwXwXwXwXwXwXwXwXwXwXwXwXwXwXwXwXwXY.P.,X,X,X,XT.u.u.Y.<X,X,X,X,X,X,X,X,XH.z v b v f , wXwXwXwXwXwXwXwXwXwXwXwXwXwXwXwXwX",
"wXwXwXwXwXwXwXwXwXwXwXwXwXwXwXwXwXwXwXwXwX~ ,X,X,X,X,X,XE.L.<X,X,X,X,X,X,X,X,X,X,XL.M b v b < wXwXwXwXwXwXwXwXwXwXwXwXwXwXwXwXwX",
"wXwXwXwXwXwXwXwXwXwXwXwXwXwXwXwXwXwXwXwXwX^ ,X,X,X,X,X,X,X,X,X,X,X,X,X,X,X,X,X,X,X;Xz v v v , wXwXwXwXwXwXwXwXwXwXwXwXwXwXwXwXwX",
"wXwXwXwXwXwXwXwXwXwXwXwXwXwXwXwXwXwXwXwXwXP Z J OX;X,X,X,X,X,X,X>X*X*.: G &X,X,X,X,Xs v v v j S wXwXwXwXwXwXwXwXwXwXwXwXwXwXwXwX",
"wXwXwXwXwXwXwXwXwXwXwXwXwXwXwXwXwXwXwXwXwX^ -XL.C L ;X,X,X,X,X>X&.V N.%X<X,X,X,X,X,Xs v v v c r wXwXwXwXwXwXwXwXwXwXwXwXwXwXwXwX",
"wXwXwXwXwXwXwXwXwXwXwXwXwXwXwXwXwXwXwXwXwX^ ,X,X,X,X,X,X,X,X,X,X,X,X,X,X,X,X,X,X,X>Xs c v b k r 3XwXwXwXwXwXwXwXwXwXwXwXwXwXwXwX",
"wXwXwXwXwXwXwXwXwXwXwXwXwXwXwXwXwXwXwXwXwX~ >X,X;X'.,X,X,X,X,X,X.X%X,X,X,X,X,X,X,X;XP b v h 7 @ D wXwXwXwXwXwXwXwXwXwXwXwXwXwXwX",
"wXwXwXwXwXwXwXwXwXwXwXwXwXwXwXwXwXwXwXwXwX` ;X,XZ +XK.=X:X:X;X`.!.Q -X,X,X,X,X,X=X) n b v q 7 w % I.wXwXwXwXwXwXwXwXwXwXwXwXwXwX",
"wXwXwXwXwXwXwXwXwXwXwXwXwXwXwXwXwXwXwXwXwX6XM.,X-XF 2.2.<.<.<.2.%..X,X,X,X,X,X,Xm.g b b d 7 7 0 i / wXwXwXwXwXwXwXwXwXwXwXwXwXwX",
"wXwXwXwXwXwXwXwXwXwXwXwXwXwXwXwXwXwXwXwXwXwXD..X,X,X<X;X:X;X;X>X,X,X,X,X,X,X,XOXi.v v v j q i v n i Z.wXwXwXwXwXwXwXwXwXwXwXwXwX",
"wXwXwXwXwXwXwXwXwXwXwXwXwXwXwXwXwXwXwXwXwXwXf.S &X,X,X,X,X,X,X,X,X,X,X,X:X;X&Xi.b v v v v b b b b b i Z.wXwXwXwXwXwXwXwXwXwXwXwX",
"wXwXwXwXwXwXwXwXwXwXwXwXwXwXwXwXwXwXwXwXwX4Xx 0 -.%X=X:X,X,X,X,X,X,X*X*X%X7.Y c b b b v v v v b v b v g E wXwXwXwXwXwXwXwXwXwXwX",
"wXwXwXwXwXwXwXwXwXwXwXwXwXwXwXwXwXwXwXwXwXU v K.#X%X%X%X%X%X%X%X*X*X%X*X*X$X-XL.P M b b v v v b v v n j S wXwXwXwXwXwXwXwXwXwXwX",
"wXwXwXwXwXwXwXwXwXwXwXwXwXwXwXwXwXwXwXwXU v w. X,X=X=X=X;X=X=X=X*X=X;X,X,X,X,X,X<XC.c 9.9.9.b b v v b v i m.wXwXwXwXwXwXwXwXwXwX",
"wXwXwXwXwXwXwXwXwXwXwXwXwXwXwXwXwXwXwXe.0.m A.,X,X,X,X,X,X,X,X,X,X,X,X,X,X,X,X,X,X<Xs r.k.k.r.N v v v b j I wXwXwXwXwXwXwXwXwXwX",
"wXwXwXwXwXwXwXwXwXwXwXwXwXwXwXwXwXwXY.B h.N I.,X,X,X,X,X,X,X,X,X,X,X,X,X,X,X,X,X,X,Xs h.k.k.j.0.B b v b b 9 I.wXwXwXwXwXwXwXwXwX",
"wXwXwXwXwXwXwXwXwXwXwXwXwXwXwXwXwXwXB 0.k.l D.,X,X,X,X,X,X,X,X,X,X,X,X,X,X,X,X,X,X-Xz k.j.k.k.g.b b v v v c u wXwXwXwXwXwXwXwXwX",
"wXwXwXwXwXwXwXwXwXwXwXwXwXwXwXwXwX^.B j.j.h >.,X,X,X,X,X,X,X,X,X,X,X,X,X,X,X,X,X,X_ m j.j.j.j.k.b v b c v b O !.wXwXwXwXwXwXwXwX",
"wXwXwXwXwXwXwXwXwXwXwXwXwXwXwXwXwXi t.j.k.B T OX,X,X,X,X,X,X,X,X,X,X,X,X,X,X,X,X,X^ y.j.k.j.h.0.b v v 0 v b 7 Z.wXwXwXwXwXwXwXwX",
"wXwXwXwXwXwXwXwXwXwXwXwXwXwXwXwXwXt j.j.j.t.t K.,X,X,X,X,X,X,X,X,X,X,X,X,X,X,X,X'.P g.j.k.j.g.9.v v b $ v b f < wXwXwXwXwXwXwXwX",
"wXwXwXwXwXwXwXwXwXwXwXwXwXwXwXwXs.B k.j.j.r.t K.,X,X,X,X,X,X,X,X,X,X,X,X,X,X,X,XC.B j.j.j.k.g.9.v v i i v b v e wXwXwXwXwXwXwXwX",
"wXwXwXwXwXwXwXwXwXwXwXwXwXwXwXwXp j.j.j.j.t.v s <X,X,X,X,X,X,X,X,X,X,X,X,X,X,X Xx r.j.j.j.j.q.b v v 0 c v v v 0 D wXwXwXwXwXwXwX",
"wXwXwXwXwXwXwXwXwXwXwXwXwXwXwXwXg j.j.j.j.t.v t 1X,X,X,X,X,X,X,X,X,X,X,X,X,X-X*.v j.j.j.j.a.9.v v c 7 c v v v j , wXwXwXwXwXwXwX",
"wXwXwXwXwXwXwXwXwXwXwXwXwXwXwXwXp k.j.j.j.t.v + J >X,X,X,X,X,X,X,X,X,X,X,X,X*.m.i.k.j.j.t.9.v v v q q v b v b h , wXwXwXwXwXwXwX",
"wXwXwXwXwXwXwXwXwXwXwXwXwXwXwXwXf 0.j.j.j.B v s.. ;X,X,X,X,X,X,X,X,X,X,X,X,XV 6Xu.k.j.g.9.v b v q w c v v v v v a C.wXwXwXwXwXwX",
"wXwXwXwXwXwXwXwXwXwXwXwXwXwXwX X. B j.j.g.b t s.1 :X,X,X,X,X,X,X,X,X,X,X,X&X1 A v r.a.9.v v v i w c v v v b v v j ! wXwXwXwXwXwX",
"wXwXwXwXwXwXwXwXwXwXwXwXwXwXwX/.5 7 q.g.m d y - &X,X,X,X,X,X,X,X,X,X,X,X,X> !.I.q v v v c c p 2 0 n v v b v v v j ( wXwXwXwXwXwX",
"wXwXwXwXwXwXwX3XQ.wXwXwXQ.wXwXJ.&X  0 d d p _ Q =X,X,X,X,X,X,X,X,X,X,X,X,X*.: p.z 0 k d 0 # G `.q n b b v v v v j ! wXwXwXwXwXwX",
"wXwXwXwXwXwXwXp.S.6X0XB.C.5XqX4.*XJ s u i.< Q .X,X,X,X,X,X,X,X,X,X,X,X,X,X,X>.! / u Y O V *.].[.q n v b v v v v g E wXwXwXwXwXwX",
"wXwXwXwXwXwXwXm.9XR.~.C.0XT.4X;.&X=X:.; 5 `.&X,X,X,X,X,X,X,X,X,X,X,X,X,X,X,X;X'.:.; C J.H.m.[.[.q n n b v v q 8 7 E wXwXwXwXwXwX",
"wXwXwXwXwXwXwX; 4X0XD _ qX0XW X oX=X;X-X-X,X,X,X,X,X,X,X,X,X,X,X,X,X,X,X,X,X,X,X<X&X@X'.T.! F.[.P p.P g 9 7 7 7 @ ( wXwXwXwXwXwX",
"wXwXwXwXXX_ ( E *.P.L ) 9X4X2 ..(.%X=X:X:X,X,X,X,X,X,X,X,X,X,X,X,X,X,X;X:X:X;X%X%X%X'.!.0X_ 4.`.3XS.+ 9 7 7 7 7 # / wXwXwXwXwXwX",
"wXwXwXwXwXT.wXwX5.,.oXL.4.L 5 }.).(.%X%X%X;X;X:X;X;X;X;X;X:X;X;X=X:X=X*X%X%X%X*X%X_.` 0X7X~ :.+X0Xm.+ 7 7 7 7 7 & R.wXwXwXwXwXwX",
"wXwXwXwXwXwXm.8X|.>X,X>X_._.=X,X,X_.(.%X%X%X%X%X%X%X%X%X%X%X%X%X*X%X$X%X%X%X$X%X_.).4.,.;.,.D 7X7Xp.+ 7 7 9 7 @ - wXwXwXwXwXwXwX",
"wXwXwXwXwXqXwX5.=X%X=X=X,X,X,X,X,X;X8._.%X%X%X%X%X%X%X%X%X%X%X%X%X%X*X$X%X%X$X].(.=X>XoX|.@X/.6.XX*.& 8 ^ ~ y @ - wXwXwXwXwXwXwX",
"wXwXwXwXwXwXqX1.%X%X%X%X*X*X,X,X,X,X].).#X%X%X%X%X%X%X%X%X%X%X%X%X%X%X%X*X$X_.).>X>X>X*X%X%X%X|.} ' *.A.7XC.+ 7 - wXwXwXwXwXwXwX",
"wXwXwXwXwXwXwX$.%X_.5.$X*X%X=X,X,X>X=X7.@X%X%X%X%X%X%X%X%X%X$X%X$X%X$X*X$X*X<.;X>X=X%X%X].7.5.#X|.[ G.qXqXm.+ % m.wXwXwXwXwXwXwX",
"wXwXwXwXwXwXwX] -.{ { 1.-.*X%X*X=X=X%XK [.%X%X%X%X%X%X%X%X%X%X%X*X$X*X$X$X7.|.>X*X%X@XX.-.{ { X.#X;.G.7X~.e @ < wXwXwXwXwXwXwXwX",
"wXwXwXwXwXwXwX4X3 +.$.+. .-.*X%X%X%X%X2.4 oX%X%X%X%X%X%X%X%X%X%X$X%X$X*X$X1.;X:X%X%X .} @.$.$.} #.{.-.T.B.o w u wXwXwXwXwXwXwXwX",
"wXwXwXwXwXwXwXwXF  .@.@.@.<.@X$X%X%X%X$X: /.#X%X%X%X%X%X%X%X%X%X$X*X%X%X%X#.;X%X%X{.#.@.@.@.$.}  .%X#X4   7 o 3XwXwXwXwXwXwXwXwX",
"wXwXwXwXwXwXwXwXQ.3 @.$.@.| 5.%X$X*X%X%X: , ..F.$X%X%X%X%X%X%X%X$X%X%X%X%X[ &X%X%XX.O.@.@.@.$.+.#.%X%XF o # A 4XwXwXwXwXwXwXwXwX",
"wXwXwXwXwXwXwXwXwX*.[ $.@.| 5.$X*X$X*X(.X 7 # 1 G /.%X%X%X%X*X%X*X$X$X$X%X3.%.$X%Xo.O.@.@.@.@.| _.*X(.X o I 7XwXwXwXwXwXwXwXwXwX",
"wXwXwXwXwXwXwXwXwXwXJ } } X.|.%X$X$X$XK . 9 $ $ & e 4 ..1.{.|.@X@X@X@X@X@X|.> 7.%X].| +.@.@.| 7.$X@XK V 5XwXwXwXwXwXwXwXwXwXwXwX",
"wXwXwXwXwXwXwXwXwXwXwXG.' |.#X%X$X@X7.5 4XW.- , P a a s e 4 1 1 1 1 1 1 1 1 ; Z {.#X].6 6 } _.$X).H 5XwXwXwXwXwXwXwXwXwXwXwXwXwX",
"wXwXwXwXwXwXwXwXwXwXwXwXm.4.&.3.3.o.M.!.wXwXwXwXwXwXwXwXwXwXwXwXwXwXwXwXwXwXwXwX%.&.(.&X#X$X].3.K !.wXwXwXwXwXwXwXwXwXwXwXwXwXwX",
"wXwXwXwXwXwXwXwXwXwXwXwXwXXXW ! ( Z.wXwXwXwXwXwXwXwXwXwXwXwXwXwXwXwXwXwXwXwXwXwX3XE K &.&.&.H W R.wXwXwXwXwXwXwXwXwXwXwXwXwXwXwX",
"wXwXwXwXwXwXwXwXwXwXwXwXwXwXwXwXwXwXwXwXwXwXwXwXwXwXwXwXwXwXwXwXwXwXwXwXwXwXwXwXwXwX5XT.T.Q.3XwXwXwXwXwXwXwXwXwXwXwXwXwXwXwXwXwX"
};
