/* XPM */
static char *cd07b1718e1143c4c729a57fb9cf23d3M1px7N3hTtrBvaeP[] = {
/* columns rows colors chars-per-pixel */
"128 128 10 1 ",
"  c None",
". c #2A143D",
"X c #47195D",
"o c #731F7A",
"O c #343761",
"+ c #5B5F90",
"@ c #B63F83",
"# c #C8658C",
"$ c #6EBDEA",
"% c #DD8D9F",
/* pixels */
"                                                                                                                                ",
"                                                                                                                                ",
"                                                                                                                                ",
"                                                                                                                                ",
"                                                                                                                                ",
"                                                                                                                                ",
"                                                                                                                                ",
"                                                                                                                                ",
"                                                                                                                                ",
"                   oooooooooooooooooooooooooooooooooooooooooooooooooooooooooooooooooooooooooooooooooooooooooo                   ",
"                   +XooooooooooooooooooooooooooooooooooooooooooooooooooooooooooooooooooooooooooooooooooooooX+                   ",
"                   ++XooooooooooooooooooooooooooooooooooooooooooooooooooooooooooooooooooooooooooooooooooooX++                   ",
"                   ++XooooooooooooooooooooooooooooooooooooooooooooooooooooooooooooooooooooooooooooooooooooX++                   ",
"                   +++XXXXXXXXXXXXXXXXXXXXXXXXXXXXXXXXXXXXXXXXXXXXXXXXXXXXXXXXXXXXXXXXXXXXXXXXXXXXXXXXXXXX+++                   ",
"                   +++X++++++++++++++++++++++++++++++++++++++++++++++++++++++++++++++++++++++++++++++++++X+++                   ",
"                   +++X++++++++++++++++++++++++++++++++++++++++++++++++++++++++++++++++++++++++++++++++++X+++                   ",
"                   +++X++XXXXXXXXXXXXXXXXXXXXXXXXXXXXXXXXXXXXXXXXXXXXXXXXXXXXXXXXXXXXXXXXXXXXXXXXXXXXXX++X+++                   ",
"                   +++X++XXooooooooooooooooooooooooooooooooooooooooooooooooooooooooooooooooooooooooooXX++X+++                   ",
"                   +++X++X+XooooooooooooooooooooooooooooooooooooooooooooooooooooooooooooooooooooooooX+X++X+++                   ",
"                   +++X++X++XooooooooooooooooooooooooooooooooooooooooooooooooooooooooooooooooooooooX++X++X+++                   ",
"                   +++X++X+++XooooooooooooooooooooooooooooooooooooooooooooooooooooooooooooooooooooX+++X++X+++                   ",
"                   +++X++X++++XooooooooooooooooooooooooooooooooooooooooooooooooooooooooooooooooooX++++X++X+++                   ",
"                   +++X++X+++++XooooooooooooooooooooooooooooooooooooooooooooooooooooooooooooooooX+++++X++X+++                   ",
"                   $$$X++X++++++XooooooooooooooooooooooooooooooooooooooooooooooooooooooooooooooX++++++X++X$$$                   ",
"                   XXXX++X+++++++XXXXXXXXXXXXXXXXXXXXXXXXXXXXXXXXXXXXXXXXXXXXXXXXXXXXXXXXXXXXXX+++++++X++XXXX                   ",
"                   $$$X++X+++++++X++++++++++++++++++++++++++++++++++++++++++++++++++++++++++++X+++++++X++X$$$                   ",
"                   +++X++X+++++++X++++++++++++++++++++++++++++++++++++++++++++++++++++++++++++X+++++++X++X+++                   ",
"                   +++X++X+++++++X++++++++++++++++++++++++++++++++++++++++++++++++++++++++++++X+++++++X++X+++                   ",
"                   +++X++X+++++++X++++++++++++++++++++++++++++++++++++++++++++++++++++++++++++X+++++++X++X+++                   ",
"                   +++X++X+++++++X++++++++++++++++++++++++++++++++++++++++++++++++++++++++++++X+++++++X++X+++                   ",
"                   +++X++X+++++++X++++++++++++++++++++++++++++++++++++++++++++++++++++++++++++X+++++++X++X+++                   ",
"                   +++X++X+++++++X++++++++++++++++++++++++++++++++++++++++++++++++++++++++++++X+++++++X++X+++                   ",
"                   +++X++X+++++++X++++++++++++++++++++++++++++++++++++++++++++++++++++++++++++X+++++++X++X+++                   ",
"                   +++X++X+++++++X++++++++++++++++++++++++++++++++++++++++++++++++++++++++++++X+++++++X++X+++                   ",
"                   +++X++X+++++++X++++++++++++++++++++++++++++++++++++++++++++++++++++++++++++X+++++++X++X+++                   ",
"                   +++X++X+++++++X++++++++++++++++++++++++++++++++++++++++++++++++++++++++++++X+++++++X++X+++                   ",
"                   +++X++X+++++++X+++++++++++......................................+++++++++++X+++++++X++X+++                   ",
"                   +++X++X+++++++X+++++++++++......................................+++++++++++X+++++++X++X+++                   ",
"                   +++X++X+++++++X+++++++++++..%%%%%%%%%%%%%%%%%%%%%%%%%%%%%%%%%%..+++++++++++X+++++++X++X+++                   ",
"                   +++X++X+++++++X+++++++++++..#%%%%%%%%%%%%%%%%%%%%%%%%%%%%%%%%#..+++++++++++X+++++++X++X+++                   ",
"                   +++X++X+++++++X+++++++++++..#%%%%%%%%%%%%%%%%%%%%%%%%%%%%%%%%#..+++++++++++X+++++++X++X+++                   ",
"                   +++X++X+++++++X+++++++++++..##%%%%%%%%%%%%%%%%%%%%%%%%%%%%%%##..+++++++++++X+++++++X++X+++                   ",
"                   +++X++X+++++++X+++++++++++..##%%%%%%%%%%%%%%%%%%%%%%%%%%%%%%##..+++++++++++X+++++++X++X+++                   ",
"                   +++X++X+++++++X+++++++++++..###%%%%%%%%%%%%%%%%%%%%%%%%%%%%###..+++++++++++X+++++++X++X+++                   ",
"                   +++X++X+++++++X+++++++++++..####%%%%%%%%%%%%%%%%%%%%%%%%%%####..+++++++++++X+++++++X++X+++                   ",
"                   +++X++X+++++++X+++++++++++..####%%%%%%%%%%%%%%%%%%%%%%%%%%####..+++++++++++X+++++++X++X+++                   ",
"                   +++X++X+++++++X+++++++++++..#####%%%%%%%%%%%%%%%%%%%%%%%%#####..+++++++++++X+++++++X++X+++                   ",
"                   +++X++X+++++++X+++++++++++..#####%%%%%%%%%%%%%%%%%%%%%%%%#####..+++++++++++X+++++++X++X+++                   ",
"                   +++X++X+++++++X+++++++++++..######%%%%%%%%%%%%%%%%%%%%%%######..+++++++++++X+++++++X++X+++                   ",
"                   +++X++X+++++++X+++++++++++..#######%%%%%%%%%%%%%%%%%%%%#######..+++++++++++X+++++++X++X+++                   ",
"                   +++X++X+++++++X+++++++++++..#######%%%%%%%%%%%%%%%%%%%%#######..+++++++++++X+++++++X++X+++                   ",
"                   +++X++X+++++++X+++++++++++..########%%%%%%%%%%%%%%%%%%########..+++++++++++X+++++++X++X+++                   ",
"                   +++X++X+++++++X+++++++++++..#########%%%%%%%%%%%%%%%%#########..+++++++++++X+++++++X++X+++                   ",
"                   +++X++X+++++++X+++++++++++..#########%%%%%%%%%%%%%%%%#########..+++++++++++X+++++++X++X+++                   ",
"                   +++X++X+++++++X+++++++++++..##########$$$$$$$$$$$$$$##########..+++++++++++X+++++++X++X+++                   ",
"                   +++X++X+++++++X+++++++++++..##########$$$$$$$$$$$$$$##########..+++++++++++X+++++++X++X+++                   ",
"                   +++X++X+++++++X+++++++++++..##########$$$$$$$$$$$$$$##########..+++++++++++X+++++++X++X+++                   ",
"                   +++X++X+++++++X+++++++++++..##########$$$$$$$$$$$$$$##########..+++++++++++X+++++++X++X+++                   ",
"                   +++X++X+++++++X+++++++++++..##########$$$$$$$$$$$$$$##########..+++++++++++X+++++++X++X+++                   ",
"                   +++X++X+++++++X+++++++++++..##########$$$$$$$$$$$$$$##########..+++++++++++X+++++++X++X+++                   ",
"                   +++X++X+++++++X+++++++++++..##########$$$$$$$$$$$$$$##########..+++++++++++X+++++++X++X+++                   ",
"                   +++X++X+++++++X+++++++++++..##########$$$$$$$$$$$$$$##########..+++++++++++X+++++++X++X+++                   ",
"                   +++X++X+++++++X+++++++++++..##########$$$$$$$$$$$$$$##########..+++++++++++X+++++++X++X+++                   ",
"                   +++X++X+++++++X+++++++++++..#########%@@@@@@@@@@@@@@%#########..+++++++++++X+++++++X++X+++                   ",
"                   +++X++X+++++++X+++++++++++..########%@@@@@@@@@@@@@@@@%########..+++++++++++X+++++++X++X+++                   ",
"                   +++X++X+++++++X+++++++++++..#######%@@@@@@@@@@@@@@@@@@%#######..+++++++++++X+++++++X++X+++                   ",
"                   +++X++X+++++++X+++++++++++..######%@@@@@@@@@@@@@@@@@@@@%######..+++++++++++X+++++++X++X+++                   ",
"                   +++X++X+++++++X+++++++++++..#####%@@@@@@@@@@@@@@@@@@@@@@%#####..+++++++++++X+++++++X++X+++                   ",
"                   +++X++X+++++++X+++++++++++..####%@@@@@@@@@@@@@@@@@@@@@@@@%####..+++++++++++X+++++++X++X+++                   ",
"                   +++X++X+++++++X+++++++++++..###%@@@@@@@@@@@@@@@@@@@@@@@@@@%###..+++++++++++X+++++++X++X+++                   ",
"                   +++X++X+++++++X+++++++++++..##%@@@@@@@@@@@@@@@@@@@@@@@@@@@@%##..+++++++++++X+++++++X++X+++                   ",
"                   +++X++X+++++++X+++++++++++..#%@@@@@@@@@@@@@@@@@@@@@@@@@@@@@@%#..+++++++++++X+++++++X++X+++                   ",
"                   +++X++X+++++++X+++++++++++..%@@@@@@@@@@@@@@@@@@@@@@@@@@@@@@@@%..+++++++++++X+++++++X++X+++                   ",
"                   +++X++X+++++++X+++++++++++......................................+++++++++++X+++++++X++X+++                   ",
"                   +++X++X+++++++X+++++++++++......................................+++++++++++X+++++++X++X+++                   ",
"                   +++X++X+++++++X++++++++++++++++++++++++++++++++++++++++++++++++++++++++++++X+++++++X++X+++                   ",
"                   +++X++X+++++++X++++++++++++++++++++++++++++++++++++++++++++++++++++++++++++X+++++++X++X+++                   ",
"                   +++X++X+++++++X++++++++++++++++++++++++++++++++++++++++++++++++++++++++++++X+++++++X++X+++                   ",
"                   +++X++X+++++++X++++++++++++++++++++++++++++++++++++++++++++++++++++++++++++X+++++++X++X+++                   ",
"                   +++X++X+++++++X++++++++++++++++++++++++++++++++++++++++++++++++++++++++++++X+++++++X++X+++                   ",
"                   +++X++X+++++++X++++++++++++++++++++++++++++++++++++++++++++++++++++++++++++X+++++++X++X+++                   ",
"                   +++X++X+++++++X++++++++++++++++++++++++++++++++++++++++++++++++++++++++++++X+++++++X++X+++                   ",
"                   +++X++X+++++++X++++++++++++++++++++++++++++++++++++++++++++++++++++++++++++X+++++++X++X+++                   ",
"                   +++X++X+++++++X++++++++++++++++++++++++++++++++++++++++++++++++++++++++++++X+++++++X++X+++                   ",
"                   +++X++X+++++++X++++++++++++++++++++++++++++++++++++++++++++++++++++++++++++X+++++++X++X+++                   ",
"                   $$$X++X+++++++XXXXXXXXXXXXXXXXXXXXXXXXXXXXXXXXXXXXXXXXXXXXXXXXXXXXXXXXXXXXXX+++++++X++X$$$                   ",
"                   XXXX++X++++++X..............................................................X++++++X++XXXX                   ",
"                   $$$X++X+++++X................................................................X+++++X++X$$$                   ",
"                   +++X++X++++X..................................................................X++++X++X+++                   ",
"                   +++X++X++XX....................................................................XX++X++X+++                   ",
"                   +++X++X+X........................................................................X+X++X+++                   ",
"                   +++X++XX..........................................................................XX++X+++                   ",
"                   +++X++XXXXXXXXXXXXXXXXXXXXXXXXXXXXXXXXXXXXXXXXXXXXXXXXXXXXXXXXXXXXXXXXXXXXXXXXXXXXXX++X+++                   ",
"                   +++X++++++++++++++++++++++++++++++++++++++++++++++++++++++++++++++++++++++++++++++++++X+++                   ",
"                   +++XXXXXXXXXXXXXXXXXXXXXXXXXXXXXXXXXXXXXXXXXXXXXXXXXXXXXXXXXXXXXXXXXXXXXXXXXXXXXXXXXXXX+++                   ",
"                   +++....................................................................................+++                   ",
"                   +........................................................................................+                   ",
"                   ..........................................................................................                   ",
"                                                                                                                                ",
"                                                                                                                                ",
"                                                                                                                                ",
"                                                                                                                                ",
"                                                                                                                                ",
"                                                                                                                                ",
"                                                                                                                                ",
"                                                                                                                                ",
"                                                                                                                                ",
"                                                                                                                                ",
"                                                                                                                                ",
"                                                                                                                                ",
"                                                                                                                                ",
"                                                                                                                                ",
"                                                                                                                                ",
"                                                                                                                                ",
"                                                                                                                                ",
"                                             OOOOOOOOOOOOOOOOOOOOOOOOOOOOOOOOOOOOOO                                             ",
"                                           OOOOOOOOOOOOOOOOOOOOOOOOOOOOOOOOOOOOOOOOOO                                           ",
"                                         OOOOOOOOOOOOOOOOOOOOOOOOOOOOOOOOOOOOOOOOOOOOOO                                         ",
"                                       OOOOOOOOOOOOOOOOOOOOOOOOOOOOOOOOOOOOOOOOOOOOOOOOOO                                       ",
"                                     OOOOOOOOOOOOOOOOOOOOOOOOOOOOOOOOOOOOOOOOOOOOOOOOOOOOOO                                     ",
"                                   OOOOOOOOOOOOOOOOOOOOOOOOOOOOOOOOOOOOOOOOOOOOOOOOOOOOOOOOOO                                   ",
"                                 OOOOOOOOOOOOOOOOOOOOOOOOOOOOOOOOOOOOOOOOOOOOOOOOOOOOOOOOOOOOOO                                 ",
"                               OOOOOOOOOOOOOOOOOOOOOOOOOOOOOOOOOOOOOOOOOOOOOOOOOOOOOOOOOOOOOOOOOO                               ",
"                             OOOOOOOOOOOOOOOOOOOOOOOOOOOOOOOOOOOOOOOOOOOOOOOOOOOOOOOOOOOOOOOOOOOOOO                             ",
"                           OOOOOOOOOOOOOOOOOOOOOOOOOOOOOOOOOOOOOOOOOOOOOOOOOOOOOOOOOOOOOOOOOOOOOOOOOO                           ",
"                         OOOOOOOOOOOOOOOOOOOOOOOOOOOOOOOOOOOOOOOOOOOOOOOOOOOOOOOOOOOOOOOOOOOOOOOOOOOOOO                         ",
"                       OOOOOOOOOOOOOOOOOOOOOOOOOOOOOOOOOOOOOOOOOOOOOOOOOOOOOOOOOOOOOOOOOOOOOOOOOOOOOOOOOO                       ",
"                                                                                                                                "
};
