/* XPM */
static char *result[] = {
/* columns rows colors chars-per-pixel */
"128 128 60 1 ",
"  c #534B45",
". c #524D4B",
"X c #57514F",
"o c #5D544D",
"O c #555454",
"+ c #5C5654",
"@ c #5E5956",
"# c #56565A",
"$ c #5A5759",
"% c #56585C",
"& c #5C5B5C",
"* c #63554D",
"= c #6A574A",
"- c #67594E",
"; c #6B5A4E",
": c #715A47",
"> c #715C4D",
", c #785F4C",
"< c #615652",
"1 c #635A55",
"2 c #6B5D54",
"3 c #635D5B",
"4 c #695F59",
"5 c #715E52",
"6 c #5F605F",
"7 c #75614F",
"8 c #6D6157",
"9 c #65615E",
"0 c #6A615C",
"q c #736155",
"w c #7B6453",
"e c #72635B",
"r c #76685F",
"t c #7E6B5A",
"y c #5D5D61",
"u c #615F61",
"i c #5F6064",
"p c #626162",
"a c #6A6562",
"s c #6C6965",
"d c #646568",
"f c #6C6B6C",
"g c #736760",
"h c #736963",
"j c #7E6D60",
"k c #716D6B",
"l c #75706D",
"z c #7D746E",
"x c #6F6F72",
"c c #737376",
"v c #7A7675",
"b c #797A7E",
"n c #817163",
"m c #82746A",
"M c #847E78",
"N c #8C8179",
"B c #90837C",
"V c #5B5F90",
"C c #7E7F83",
"Z c #6B9BCF",
/* pixels */
"11111111@@669sVV6$66&3&&i&&&yy$yy&&&yyyyyyyyppy&&&&3&&&&3&upy&uy&&&1yy30&3yy&&3&332112y$11y1&9iyip&9VV111@1+111---82-888--;>:::>",
"1211-111@@#@adVV$66&&&&&yy&yy&%y&&y&y&yyyy%ypp&i&63&@3i&&3uu&y&u&y3&yy333&yy&1&13$12111u13$y&&&ipp39VV1111111@1----2--8;-=>>:,:>",
"*1211$#$##6#O#VVkk@1y%&&&&&$&&y%&&&%y%%&%&%%3y&1&%&3&@&&&3@&&%@&#yyy3$&$y$&$&@&&1u111$13&&$3@13113$&VV+@@@-6*---1-2-;;1---22;:::",
"@*22$3$$##@###VVhs1@y&&&&&&&&$y%$&&%%y%&y%%&&y1&&y&&1&&&1&1@&y&@%yy#$&3%yy$3&&&@$y11y11$&$3$&&1&31&&VV+@@@@-*@-@11-;;;-----;:>::",
"1<$+y%##6O%%##VV9p&&&@&&$$$6&1&&y%y%y%&%%&%&%$&&$&&&&%&&@@&&1&1&y#yy%%#y&&&$$&3@y$131$1311&&@&y$&1$&VVOX@###$$$%+#o1-1+6@@o111-2",
"$+1$###y##%%##VV9p&$1&&&6$6$@&&&%y%yyyy%&&&&$$&&yy&&&y&&@#&1&1&&#yyyy&y%&&&&$&11$u1$$1333$@&&@$y&&&$VVOX+@##$$%$$@@oo-+O@@1<-1-2",
"$<1$#y#y%%@$##VV$&13&$y$&%&y%#$y%yy&%%$&%&%%6&pi$$12&1&&y%&%1113y%yy%&yyy&11&1&&3111111$y&%&yy@1$6@@VV#%##%%%%$+$$6666O6@@+1@@*<",
"$1$$##%#%%@$O#VV&&1&&&$yyy%%%#yy%y%%%#&$&&%&%$ip$y1111@@%yyy&131#y%%%%yy$y&13&11112<++$1$y&%$y@1%&6%VV%%%#y%#%$+@$%OO#$O@@+1@1+*",
"VVVVVVVVVVVVVVVV%&&&&$&&%%y%yy%%%%y%yy&&&%&&y&&6&3333y$3$3131&u3u&1&&$11&&3$ua11ds--1121113u&&1&&$6$VV##%%%%$@$%<11<--1@1@o@-1--",
"VVVVVVVVVVVVVVVV&&$&&&116%%y%y%%%y%%#y&$&%y&%%y6&&3y$y@$3$13&@3u&&&&%%33$&3&au31aa22132111y&@&&&&&$&VV%%%%%%@&$$1<<<1-@@+11@--=-",
"1$$$VVVVVV&&OOVV&&&&&&3&%6%%ffyyyy&&yy#&$&$&%&$$3&3434mm$3$3$u@31311&&%&3&&y1@@<$yy33$33&y$&3@&&6%6&VV@@@@&@&&$+<<111<@<22@-<<--",
"$<$$VVVVVV&&OOVV&&&&&&&&6%%&xdy%yy%&yy%$&&&&%y$%$34u4umm3&&1$#311&111&&6@&&&@1&1y$$y$33u%%&$@&&$%%%yVV@@+@@@$&++@<<<11<<21*11-;;",
"<1@@$@@o@@1111VV9331&111%y%yyyiduududd%y3y&9&%&&3&&11&11$3&&&11&&&&3&@&@&&$$11&61&41112-221&@1&&$&*2VV##<<@@33--1*-11@<<===-=-=-",
"<<1@+$@@@@1111VV393&3&11yyy%yydiuupddi&&&3&&%&&&1&1&&11133&y&&&1&1&&1@@&&6$$11$@<&<11<24--&113&@&122VV%#<1@@3412*1*-<111==----=-",
"@@@@$$&@$$1o++VV@@&3333&y%i%y%%%y$&&&&&&&$3@6%@6&&1111<@$y$$33$y11&&6&$@@1$6006@1&&&2-343u&@$&yy1@21VVVVVVVVVVVVVVVVVVVVVVVVVVVV",
"1@$@$$&@$$@1O+VV@&3&&1&3$%%y%y%%$y&&&3&&@@3&%6$$11111413y$y$y&&$31&&&&&6@16600@@<@11-21133$&$&&&&111VVVVVVVVVVVVVVVVVVVVVVVVVVVV",
"++XX@@%%$@<<<+VV&&1111&@&3%%yyy%&$y%#&y$yy@&&@&&11u$111$&%&111&&#$<1111-31&&221111gu43&<3&33aa@@111@VV1@1&1-12-2ooooOO111155>;;;",
"@+.X@@$&@@1<o*VV&313111@&@y%y%yy%&yy1&y&$$&@&$&&<1$u1<u1%&1&12&$y$&11&--13$&2211114413@1&133a0&@111-VV696@1112--ooXo+$1212>>>>22",
"@@@@+@&$$@1$++VV11@31@&1&yyp%%%yy%y%@$ks%&&&9i1&3<3<u1%%%&&&@&%&$$3&112111&&&&&&42-2dd&&&&1&$&&&@9@6VV%$@@@6122-;2--55-1=2-1;-;;",
"@@@@$$$$$@@@+@VV33@11&1&yyii%%y%$%%%$&ss$$&&u3&&<3<<31#y%y&$@3y&&&$&112-&1$&&&1&22-1dd&&1@&1&&&19@81VV+%@9$@11-12;2;55112=-12->>",
"$$@@$&$$$$@$o+VV&&@@3$1&y#y$%%y&idyy#yy#&1y%&@&&31udydy#yyy#14$$&&@@1122&@&3&@&1<4$%y%%yy$&&11&111@@VV%y&y$&-1@&1@118225;;<222;;",
"&$1@$$$$$1@@++VV1&1@331&$y&yy%&$iiy%%y%y1&%y&1&&3<ddyyyyy#%y11$%@&&&&@--@&3&@&3341$%yy%%$&&&111&11&@VV&y&%&&12&@1@12522>;;24-2>>",
"@@@@@+$$@@$$++VV&&1&<1$31$@&%y&$$&y$y%ff&$&&@@VVVVVVVVVVVVVVVVVVVVVVVVVVVVVVVVVVVVVVVVVV41331&1&1@&@VV11&&&&3&33@1@@hr11rn54;;=;",
"@@o@&$$$$@$$++VV11&1113$3$@$y$%yy$%y$#ff&$&&1&VVVVVVVVVVVVVVVVVVVVVVVVVVVVVVVVVVVVVVVVVV3333&&&&12@&VV12&$&&@3&33@@1gh11rg55>;;;",
"11@&1+1@1$<$<1VV41&11@&&11aa33#$%y%%%y$y%y%%$<VVyyVVVVVVuy$&yy3u423yyuuuyyyuyyVVVVVVy%VV&1&&3&3382>2VV21111190$&9@80e011141452>;",
"111@@1@*@@@1<$VV4411@13&13su3$&$%#%y$$y$y%y%13VVyyVVVVVV&yy&yyuu22u&3uyuuyyyyyVVVVVV&&VV1313&&31222>VV21321-aa$$@300a0114<12;2>2",
"11+$+@@@1@@@+@VV1111&3@133$y3&$3yy1$y#yy$y%##Oduy$yyyyyyyu&iu333933330sd4433p90p4pfx99VV3pp94a009911VV6@24e09323899288eq44225555",
"@@$$+@@@<<@@+<VV14113&&&31y$@3$$#yyu$y#$y$##.Ouuyyy$yyyyuuiiuup4193999as4444p3pp90fk99VV3&99u4p0988@VV6620ee9931911822qq1122555,",
"@@@++%99$111+@VV504111&1111$11&$u$u#%yy%yyVVxxyyyyuyyyuyyyyyi&y6ffap00882240ssvvp0a0ppVVy693y333993&VV9623341414199a448855555555",
"@@$@$@9i@@<<+@VV4e31111&11&@@11&$<#uy%yyyyVVxxyyyyyuyyyuyyiyyiyifspp888045g4ssvv0p0a9pVV6&393u3309&&VV9334343334610a44420544555;",
"11@@$$@@<@33asVV44&11&$&11@3@3$&$y$y%y$yVVidyyyyyyyyy#uu69yypii9dd990888hs3u4034p9p0iiVV&y39p3llsd69VV6903u4224445885q7q4445g555",
"11@+6%@@@@44ssVV<4&&&&&$111@33@13$3$y%$yVVudyyyyyyyu#yuu69yypp6iap990808hh4490a4pa9ppiVVuu933pclda33VVp6303p224454557q>>22545g55",
"-;211342312288VV9999rs990388080pau4uu3VVVVuu44&369p99999ppapp0aa009daahhll9a0a9a00ga3pVV09443aau90upVV&9333344525,,,5n>55555==,,",
";232&142232489VV2999gg0998400090aa4a4uVVVVuu449&9p9p9939ppapppapd090a0hhll9a0000a0aap9VVp344puudapuuVV&63333435555,,w5554e55==w,",
"VVVVVVVVVVVVVVVVVVVVVVVVVVVVVVVVVVVVVVVVVVVVVVVVVVVVVVVVVVVVVVVVVVVVVVVVVVVVVVVVVVVVVVVVVVVVVVVVVVVVVVVVVVVVVVVVVVVVVVVVVVVVVVVV",
"VVVVVVVVVVVVVVVVVVVVVVVVVVVVVVVVVVVVVVVVVVVVVVVVVVVVVVVVVVVVVVVVVVVVVVVVVVVVVVVVVVVVVVVVVVVVVVVVVVVVVVVVVVVVVVVVVVVVVVVVVVVVVVVV",
"ZZZZZZZZZZZZZZZZZZZZZZZZZZZZZZZZZZZZZZZZZZZZZZZZZZZZZZZZZZZZZZZZVVZZZZZZZZZZZZZZZZZZZZZZZZZZZZZZZZZZZZZZZZZZZZZZVVZZZZZZZZZZZZVV",
"ZZZZZZZZZZZZZZZZZZZZZZZZZZZZZZZZZZZZZZZZZZZZZZZZZZZZZZZZZZZZZZZZVVZZZZZZZZZZZZZZZZZZZZZZZZZZZZZZZZZZZZZZZZZZZZZZVVZZZZZZZZZZZZVV",
"ZZZZZZZZZZZZZZZZZZZZZZZZZZZZZZZZZZZZZZZZZZZZZZZZZZZZZZZZZZZZZZZZVVZZZZZZZZZZZZZZZZZZZZZZZZZZZZZZZZZZZZZZZZZZZZVVZZZZZZZZZZZZZZVV",
"ZZZZZZZZZZZZZZZZZZZZZZZZZZZZZZZZZZZZZZZZZZZZZZZZZZZZZZZZZZZZZZZZVVZZZZZZZZZZZZZZZZZZZZZZZZZZZZZZZZZZZZZZZZZZZZVVZZZZZZZZZZZZZZVV",
"ZZZZZZZZZZZZZZZZZZZZZZZZZZZZZZZZZZZZZZZZZZZZZZZZZZZZZZZZZZZZZZZZVVVVVVVVVVVVVVVVVVVVVVVVVVVVVVVVVVVVVVVVVVVVVVZZZZZZZZZZZZZZZZVV",
"ZZZZZZZZZZZZZZZZZZZZZZZZZZZZZZZZZZZZZZZZZZZZZZZZZZZZZZZZZZZZZZZZVVVVVVVVVVVVVVVVVVVVVVVVVVVVVVVVVVVVVVVVVVVVVVZZZZZZZZZZZZZZZZVV",
"ZZZZZZZZZZZZZZZZZZZZZZZZZZZZZZZZZZZZZZZZZZZZZZZZZZZZZZZZZZZZZZZZVVZZZZZZZZZZZZZZZZZZZZZZZZZZZZZZZZZZZZZZZZZZZZZZZZZZZZZZZZZZZZVV",
"ZZZZZZZZZZZZZZZZZZZZZZZZZZZZZZZZZZZZZZZZZZZZZZZZZZZZZZZZZZZZZZZZVVZZZZZZZZZZZZZZZZZZZZZZZZZZZZZZZZZZZZZZZZZZZZZZZZZZZZZZZZZZZZVV",
"ZZZZZZZZZZZZZZZZZZZZZZZZZZZZZZZZZZZZZZZZZZZZZZZZZZZZZZZZZZZZZZZZVVZZZZZZZZZZZZZZZZZZZZZZZZZZZZZZZZZZZZZZZZZZZZZZZZZZZZZZZZZZZZVV",
"ZZZZZZZZZZZZZZZZZZZZZZZZZZZZZZZZZZZZZZZZZZZZZZZZZZZZZZZZZZZZZZZZVVZZZZZZZZZZZZZZZZZZZZZZZZZZZZZZZZZZZZZZZZZZZZZZZZZZZZZZZZZZZZVV",
"ZZZZZZZZZZZZZZZZZZZZZZZZZZZZZZZZZZZZZZZZZZZZZZZZZZZZZZZZZZZZZZZZVVZZZZZZZZZZZZZZZZZZZZZZZZZZZZZZZZZZZZZZZZZZZZZZZZZZZZZZZZZZZZVV",
"ZZZZZZZZZZZZZZZZZZZZZZZZZZZZZZZZZZZZZZZZZZZZZZZZZZZZZZZZZZZZZZZZVVZZZZZZZZZZZZZZZZZZZZZZZZZZZZZZZZZZZZZZZZZZZZZZZZZZZZZZZZZZZZVV",
"ZZZZZZZZZZZZZZZZZZZZZZZZZZZZZZZZZZZZZZZZZZZZZZZZZZZZZZZZZZZZZZZZVVZZZZZZZZZZZZZZZZZZZZZZZZZZZZZZZZZZZZZZZZZZZZZZZZZZZZZZZZZZZZVV",
"ZZZZZZZZZZZZZZZZZZZZZZZZZZZZZZZZZZZZZZZZZZZZZZZZZZZZZZZZZZZZZZZZVVZZZZZZZZZZZZZZZZZZZZZZZZZZZZZZZZZZZZZZZZZZZZZZZZZZZZZZZZZZZZVV",
"ZZZZZZZZZZZZZZZZZZZZZZZZZZZZZZZZZZZZZZZZZZZZZZZZZZZZZZZZZZZZZZZZVVZZZZZZZZZZZZZZZZZZZZZZZZZZZZZZZZZZZZZZZZZZZZZZZZZZZZZZZZZZZZVV",
"ZZZZZZZZZZZZZZZZZZZZZZZZZZZZZZZZZZZZZZZZZZZZZZZZZZZZZZZZZZZZZZZZVVZZZZZZZZZZZZZZZZZZZZZZZZZZZZZZZZZZZZZZZZZZZZZZZZZZZZZZZZZZZZVV",
"ZZZZZZZZZZZZZZZZZZZZZZZZZZZZZZZZZZZZZZZZZZZZZZZZZZZZZZZZZZZZZZZZVVZZZZZZZZZZZZZZZZZZZZZZZZZZZZZZZZZZZZZZZZZZZZZZZZZZZZZZZZZZZZVV",
"ZZZZZZZZZZZZZZZZZZZZZZZZZZZZZZZZZZZZZZZZZZZZZZZZZZZZZZZZZZZZZZZZVVZZZZZZZZZZZZZZZZZZZZZZZZZZZZZZZZZZZZZZZZZZZZZZZZZZZZZZZZZZZZVV",
"ZZZZZZZZZZZZZZZZZZZZZZZZZZZZZZZZZZZZZZZZZZZZZZZZZZZZZZZZZZZZZZZZVVZZZZZZZZZZZZZZZZZZZZZZZZZZZZZZZZZZZZZZZZZZZZZZZZZZZZZZZZZZZZVV",
"ZZZZZZZZZZZZZZZZZZZZZZZZZZZZZZZZZZZZZZZZZZZZZZZZZZZZZZZZZZZZZZZZVVZZZZZZZZZZZZZZZZZZZZZZZZZZZZZZZZZZZZZZZZZZZZZZZZZZZZZZZZZZZZVV",
"ZZZZZZZZZZZZZZZZZZZZZZZZZZZZZZZZZZZZZZZZZZZZZZZZZZZZZZZZZZZZZZZZVVZZZZZZZZZZZZZZZZZZZZZZZZZZZZZZZZZZZZZZZZZZZZZZZZZZZZZZZZZZZZVV",
"ZZZZZZZZZZZZZZZZZZZZZZZZZZZZZZZZZZZZZZZZZZZZZZZZZZZZZZZZZZZZZZZZVVZZZZZZZZZZZZZZZZZZZZZZZZZZZZZZZZZZZZZZZZZZZZZZZZZZZZZZZZZZZZVV",
"ZZZZZZZZZZZZZZZZZZZZZZZZZZZZZZZZZZZZZZZZZZZZZZZZZZZZZZZZZZZZZZZZVVZZZZZZZZZZZZZZZZZZZZZZZZZZZZZZZZZZZZZZZZZZZZZZZZZZZZZZZZZZZZVV",
"ZZZZZZZZZZZZZZZZZZZZZZZZZZZZZZZZZZZZZZZZZZZZZZZZZZZZZZZZZZZZZZZZVVZZZZZZZZZZZZZZZZZZZZZZZZZZZZZZZZZZZZZZZZZZZZZZZZZZZZZZZZZZZZVV",
"ZZZZZZZZZZZZZZZZZZZZZZZZZZZZZZZZZZZZZZZZZZZZZZZZZZZZZZZZZZZZZZZZVVZZZZZZZZZZZZZZZZZZZZZZZZZZZZZZZZZZZZZZZZZZZZZZZZZZZZZZZZZZZZVV",
"ZZZZZZZZZZZZZZZZZZZZZZZZZZZZZZZZZZZZZZZZZZZZZZZZZZZZZZZZZZZZZZZZVVZZZZZZZZZZZZZZZZZZZZZZZZZZZZZZZZZZZZZZZZZZZZZZZZZZZZZZZZZZZZVV",
"VVZZZZZZZZZZZZZZZZZZZZZZZZZZZZZZZZZZZZZZZZZZZZZZZZZZZZZZZZZZZZZZVVZZZZZZZZZZZZZZZZZZZZZZZZZZZZZZZZZZZZZZZZZZZZZZZZZZZZZZZZZZZZVV",
"VVZZZZZZZZZZZZZZZZZZZZZZZZZZZZZZZZZZZZZZZZZZZZZZZZZZZZZZZZZZZZZZVVZZZZZZZZZZZZZZZZZZZZZZZZZZZZZZZZZZZZZZZZZZZZZZZZZZZZZZZZZZZZVV",
"  VVVVZZZZZZZZZZZZZZZZZZZZZZZZZZZZZZZZZZZZZZZZZZZZZZZZZZZZZZZZZZVVZZZZZZZZZZZZZZZZZZZZZZZZZZZZZZZZZZZZZZZZZZZZZZZZZZZZZZZZZZZZVV",
"  VVVVZZZZZZZZZZZZZZZZZZZZZZZZZZZZZZZZZZZZZZZZZZZZZZZZZZZZZZZZZZVVZZZZZZZZZZZZZZZZZZZZZZZZZZZZZZZZZZZZZZZZZZZZZZZZZZZZZZZZZZZZVV",
"22er..VVZZZZZZZZZZZZZZZZZZZZZZZZZZZZZZZZZZZZZZZZZZZZZZZZZZZZZZZZVVZZZZZZZZZZZZZZVVZZZZZZZZZZVVVVZZZZZZZZZZZZZZZZZZZZZZZZZZZZZZVV",
"22re..VVZZZZZZZZZZZZZZZZZZZZZZZZZZZZZZZZZZZZZZZZZZZZZZZZZZZZZZZZVVZZZZZZZZZZZZZZVVZZZZZZZZZZVVVVZZZZZZZZZZZZZZZZZZZZZZZZZZZZZZVV",
"545544MMVVZZZZZZZZZZZZZZZZZZZZZZZZZZZZZZZZZZZZZZZZZZZZZZZZZZZZZZVVVVVVVVVVVVVVVVVVVVVVVVVVVVVVVVVVVVVVVVVVVVVVVVVVVVVVVVVVVVVVVV",
"254e42MMVVZZZZZZZZZZZZZZZZZZZZZZZZZZZZZZZZZZZZZZZZZZZZZZZZZZZZZZVVVVVVVVVVVVVVVVVVVVVVVVVVVVVVVVVVVVVVVVVVVVVVVVVVVVVVVVVVVVVVVV",
"5w44222425VVVVZZZZZZZZZZZZZZZZZZZZZZZZVVVVVVVVVVVVVVVVVVVVVVVVVVVVZZZZZZZZZZZZZZZZZZZZZZZZZZZZZZZZZZZZZZZZZZZZZZZZZZZZZZZZZZZZVV",
"ww22524452VVVVZZZZZZZZZZZZZZZZZZZZZZZZVVVVVVVVVVVVVVVVVVVVVVVVVVVVZZZZZZZZZZZZZZZZZZZZZZZZZZZZZZZZZZZZZZZZZZZZZZZZZZZZZZZZZZZZVV",
"222242ee28qq  VVZZZZZZZZZZZZZZZZZZZZVVZZZZZZZZZZZZZZZZZZZZZZZZZZVVZZZZZZZZZZZZZZZZZZZZZZZZZZZZZZZZZZZZZZZZZZZZZZZZZZZZZZZZZZZZVV",
"2>2124re78qe  VVZZZZZZZZZZZZZZZZZZZZVVZZZZZZZZZZZZZZZZZZZZZZZZZZVVZZZZZZZZZZZZZZZZZZZZZZZZZZZZZZZZZZZZZZZZZZZZZZZZZZZZZZZZZZZZVV",
"nn445255q252>2egVVZZZZZZZZZZZZZZZZVVZZZZZZZZZZZZZZZZZZZZZZZZZZZZVVZZZZZZZZZZZZZZZZZZZZZZZZZZZZZZZZZZZZZZZZZZZZZZZZZZZZZZZZZZZZVV",
"nn445525;q2855ggVVZZZZZZZZZZZZZZZZVVZZZZZZZZZZZZZZZZZZZZZZZZZZZZVVZZZZZZZZZZZZZZZZZZZZZZZZZZZZZZZZZZZZZZZZZZZZZZZZZZZZZZZZZZZZVV",
"22>2>5122;82>2888099VVZZZZZZZZZZVVZZZZZZZZZZZZZZZZZZZZZZZZZZZZZZVVZZZZZZZZZZZZZZZZZZZZZZZZZZZZZZZZZZZZZZZZZZZZZZZZZZZZZZZZZZZZVV",
"2-555,2222>58;698899VVZZZZZZZZZZVVZZZZZZZZZZZZZZZZZZZZZZZZZZZZZZVVZZZZZZZZZZZZZZZZZZZZZZZZZZZZZZZZZZZZZZZZZZZZZZZZZZZZZZZZZZZZVV",
"2225>5222222888-1-;799VVZZZZZZVVZZZZZZZZZZZZZZZZZZZZZZZZZZZZZZZZVVZZZZZZZZZZZZZZZZZZZZZZZZZZZZZZZZZZZZZZZZZZZZZZZZZZZZZZZZZZZZVV",
"2>52252212888988-7;:99VVZZZZZZVVZZZZZZZZZZZZZZZZZZZZZZZZZZZZZZZZVVZZZZZZZZZZZZZZZZZZZZZZZZZZZZZZZZZZZZZZZZZZZZZZZZZZZZZZZZZZZZVV",
">>552255;22113442;91310aVVVVZZVVZZZZZZZZZZZZZZZZZZZZZZZZZZZZZZZZVVZZZZZZZZZZZZZZZZZZZZZZZZZZZZZZZZZZZZZZZZZZZZZZZZZZZZZZZZZZZZVV",
">=252;55;52232e5222929paVVVVZZVVZZZZZZZZZZZZZZZZZZZZZZZZZZZZZZZZVVZZZZZZZZZZZZZZZZZZZZZZZZZZZZZZZZZZZZZZZZZZZZZZZZZZZZZZZZZZZZVV",
"5>>25522224154u23224323213llVVVVZZZZZZZZZZZZZZZZZZZZZZZZZZZZZZZZVVZZZZZZZZZZZZZZZZZZZZZZZZZZZZZZZZZZZZZZZZZZZZZZZZZZZZZZZZZZZZVV",
"5>5=5542222244442234191933vlVVVVZZZZZZZZZZZZZZZZZZZZZZZZZZZZZZZZVVZZZZZZZZZZZZZZZZZZZZZZZZZZZZZZZZZZZZZZZZZZZZZZZZZZZZZZZZZZZZVV",
">>2;5222555224442222jj43132182VVVVZZZZZZZZZZZZZZZZZZZZZZZZZZZZZZVVZZZZZZZZZZZZZZZZZZZZZZVVZZZZZZZZZZZZZZZZZZZZZZZZZZZZZZZZZZZZVV",
">>222225>52242422242jt43911222VVVVZZZZZZZZZZZZZZZZZZZZZZZZZZZZZZVVZZZZZZZZZZZZZZZZZZZZZZVVZZZZZZZZZZZZZZZZZZZZZZZZZZZZZZZZZZZZVV",
"522;215g2252522-1244hh33833&&&93yyVVZZZZZZZZZZZZZZZZZZZZZZZZZZZZVVZZZZZZZZZZZZZZZZZZZZZZZZZZZZZZZZZZZZZZZZZZZZZZZZZZZZZZZZZZZZVV",
"52;522ge225542222240hh293829&&11yyVVZZZZZZZZZZZZZZZZZZZZZZZZZZZZVVZZZZZZZZZZZZZZZZZZZZZZZZZZZZZZZZZZZZZZZZZZZZZZZZZZZZZZZZZZZZVV",
";22222NNee81180r040a933333&y13y36&39VVZZZZZZZZZZZZZZZZZZZZZZZZZZVVZZZZZZZZZZZZZZZZZZZZZZZZZZZZZZZZZZZZZZZZZZZZZZZZZZZZZZZZZZZZVV",
";--222NNee828@h044001319&3u334&y&&93VVZZZZZZZZZZZZZZZZZZZZZZZZZZVVZZZZZZZZZZZZZZZZZZZZZZZZZZZZZZZZZZZZZZZZZZZZZZZZZZZZZZZZZZZZVV",
"52428r9444296@9941239999933&##3&se3p66VVVVZZZZZZZZZZZZZZZZZZZZZZVVZZZZZZZZZZZZZZZZZZZZZZZZZZZZZZZZZZZZZZZZZZZZZZZZZZZZZZZZZZZZVV",
";228ee224412-8@81433&19932&&#+&30s99&9VVVVZZZZZZZZZZZZZZZZZZZZZZVVZZZZZZZZZZZZZZZZZZZZZZZZZZZZZZZZZZZZZZZZZZZZZZZZZZZZZZZZZZZZVV",
">2BB9213233899183333nn229033443&93336999paVVVVVVVVVVVVVVVVVVVVVVVVVVVVVVVVVVVVVVVVVVVVVVVVVVVVVVVVVVVVVVVVVVVVVVVVVVVVVVVVVVVVVV",
"2>BB1232222321113333nt42931344&393u4999&aaVVVVVVVVVVVVVVVVVVVVVVVVVVVVVVVVVVVVVVVVVVVVVVVVVVVVVVVVVVVVVVVVVVVVVVVVVVVVVVVVVVVVVV",
"=2241331332392913133334444934ueu33a40a0999VV&13p939&$6$6$$##&%&i666%VVsf66999939O+++6@9000sa999999aa0aa999i99996XXOOXX33@6918--8",
"2244913331932918333334344039u4u4u3ap99a999VV3&9999&66$6$6+O#%%&&6%@6VVfs699p3993++++66990a0a990909aaga9999999p69XXOOOX31&1191688",
"251133u34340434300394u434434393999@9999999VV3&9933&3&3&&33&&&&&%&&&&VV66999&69639996969000ss9008p93&9&999&9333&y&&33009921301+11",
"2;11u3$y330444030393u444433393p4999996&999VV&&99933&i&6&3&&&&&&&%&6iVV&@pp999&9699999600s0ss990s99939699333u&9y&3&33099&1298+111",
"131133u3313044343333a33u&&y3p&33&99999&9&6VV#+1633&6&&&&&6$&&&&6y%6&VV699p&9&&&p9p99690s9s00s0999966330093&939&u&&408-&19184&3&3",
"11@@33&312034404333330333y&y&y3u9699996&&$VV+#99&33&&&&&66$&&y&&%y&&VV69p99&699i699169990009s099p99&&p0033p93&y&&1448-931894111&",
"4133413429949039433333339&y3uu&36&6&3ip996VV#+$6&&&&&6&&y&3&&$yy&&&&VV6639999y&y&&99999900699969696699999a339&&&1331&39913434043",
"14411433938989220431u433&3333yu&9&36i36&96VV+#6$&&6&&$6&&y&3&%yy&%%yVV&99699&6u3&pp&9d90s09999999&6&9&99pp3&33631&&33&9931114444",
"yy33242299203389444400a4933p&33&p6a9999699VVVVVVVVVVVVVVVVVVVVVVVVVVVVVVVVVVVVVVVVVVVVVVVVVVVVVVVVVVVVVVVVVVVVVVVVVVVVVVVVVVVVVV",
"yy11344239003u894444000a433939&3&999a06p&9VVVVVVVVVVVVVVVVVVVVVVVVVVVVVVVVVVVVVVVVVVVVVVVVVVVVVVVVVVVVVVVVVVVVVVVVVVVVVVVVVVVVVV",
"1441343333339269&1430089934933336&9999u3&yVVuffffxfffffffxfffdffxfffffffxlfkfxflffkkclkkkkllkxljllffkkfxffccksffssksskkhhhhhzzkh",
"331334443333996331440998393433339&9999ppyyVVfafffffffxfffffffffffxffffffkkfffkkffklklxxkkfklkkllllffffxffxccskffkksskshhhjhgzzks",
"2444333p343131294340009893aa@936&9663u3&u&VVy#yyyyyyyyipyuyyyyyyyyyiuyyyyy6iip669969p9iiaaa9669993666939dpiipy39u33y444444342252",
"314443pp441483334444008930aa999@3169p3&yyuVVy$yuyyyyyyppuuuyiyyyyyiyppypyy69ip9i999y9py9ad0969669969p699id&9&u933uuy313434445=55",
"232233443023212344349309323399&&33&&3yyy33VV$y$$yuyyyyiiddi3ipppy6uiyyyyipii&ii9pi&piiases9p0p9a99999908apppy&uuuu3344001340rr52",
"113244340311319130432042938219&933&3y3yyyyVV#%yyuyyyiyydapp&ippppiyiyyyyppiypy666pp96yaeseapp99909p99980apii3pup333u44003100rr45",
"3133244332..92980a0334492129@1&6O+$&&y&3&yVV$yyyyyuiiyyy3&pp9p&pxxfdyyuypii&pii66ipiiiss9ip90ap9999999a9i9i9yy33y334u314khe2u422",
"2131423439  2929g00432838998919&#%$$y3&3yyVVy&yyyyiiyiiy&pppi6pixxff&&yp&i66i9i&69pi3yss699pa099990a99d96y66iy23yu333333ll05e452",
"2341;2433313444408&998242219193&&&99ipy&uyVV&%y&i&&iyu&i&9y&p9di&ydfipyyyiiu&yi&6pbbpi66iipip9p699699999p39&9&&6330004u333448222",
"31112;413333444408810039228191999&&&ipy&y&VV%&&yiyi&ppu&9&yy9ppdyydfpiyy&6ippy6ii6bbi966ii96pp9i69p99999u969669&334u433324430e22",
"VVVVVVVVVVVVVVVVVVVVVVVVVVVVVVVVVVVVVVVVVVVVVVVVVVVVVVVVVVVVVVVVVVVVVVVVVVVVVVVVVVVVVVVVVVVVVVVVVVVVVVVVVVVVVVVVVVVVVVVVVVVVVVVV",
"VVVVVVVVVVVVVVVVVVVVVVVVVVVVVVVVVVVVVVVVVVVVVVVVVVVVVVVVVVVVVVVVVVVVVVVVVVVVVVVVVVVVVVVVVVVVVVVVVVVVVVVVVVVVVVVVVVVVVVVVVVVVVVVV",
"+o+*++--*<++$<<<++92tt99@&11*-11@@@&$$%&$$#O###%##%$&%%%&y%#%$$$%%%####+$$$#&&lfff#Oi&$$$&@&+$$+&&&1&+$$1@+##++#@$+++++@++*o****",
"o++<@<*-<<<+<@++++22tt90<<11-*1@&@@@##&&+$##%+#%##$$$$%+&&##&%&%+##&##%#O$$#&&xkff##ii$+$&&$@#$$&1&&$$$$@@#+#+++++++<<++<+o**<**",
"5e4354204400vm4e81898q33404444ssp9393iupyy&i6&iy&6dppipyy3yuu3p&6i&&u3pp9spppdffdsdp&yffapp3i6puuyup903up31&&93833334448441442;5",
"04a444824404mma499228833a44403hs9pp9pyuiuup&&6&yp&pdipypyyuy99y3&i&63ppyd969dixkddadyyfspppp66py&upu00uu3p136&991341424442242252",
"44824e00334411uaaa2944233305099339&9&yyiyyffyyyyyyyyyyuy6i669&996&yypiy6ffd99696ffi6&iyyp9p3uuyyuuu4u3yy131133>8e0224333;5424252",
"422q22eu444433a4001384320p52300p99piyyiyyyffyyyyyypypy&u6i9i@999&6yipd&iff99id96dd6ii&yy9p99udiyu33uuuyy333&332200243323252222q5",
"224443444444442491sg00943433343339uy93y3yyyyyyyyyypip&yui&6696cc&iddfdi&69id6iip6966ip3pyyp9uu3yuu4333u&3113,,139333113311202222",
"224244444424444433ge0e3244444430993336yyyyyyy&&yyyyuyyyyi&ii66cvy&dddf&i99ii&&i999i66yp3yu3p9u&34uu0uu3u3331,,13&931613123822225",
"a03puyppi6pp9&ypipi669iiy&&yffad996iffyuuyyyyyyy66yyypyyidiiipiiCCiiiiiip&iiiy93338;999334ppu3uuyyyyuuuyOO33$u1@1113u331&141ee44",
"40uuyupppppy&6y&diyyipi6yyy&sfpa99&pffuyidyyyyyy6&yyy&yydidiiiiiCCiidiip&3yiyi3p2-28p939uudp$#u3yyyyuu3uOO$&uu@@1@333u443&24ee22",
"3339u3u3uyi&66iyyy&y&&&yu&y&y&3yy6yyuuy&3yyy&y3&&yyyyy&ybbbcpiidy%yiyixxi&&yyy03wn433&yi&yppyyyyyyy%13y3&u$$3$3331391131111-2222",
"33333&uyyy6y6&&yyyy&i&i3yyy&yyy&9yuuyuyyy&yyy&33yyy&yyy&bbcc66ii%yyyyixci&yyyy30nw4393&uyyydyyyy%yyy313yyy$@$3&y1333113141212122"
};
